<svg width="24" height="25" viewBox="0 0 24 25" fill="none" xmlns="http://www.w3.org/2000/svg">
<path fill-rule="evenodd" clip-rule="evenodd" d="M16 3.74219H8C5.23858 3.74219 3 5.98077 3 8.74219V16.7422C3 19.5036 5.23858 21.7422 8 21.7422H16C18.7614 21.7422 21 19.5036 21 16.7422V8.74219C21 5.98077 18.7614 3.74219 16 3.74219ZM19.25 16.7422C19.2445 18.5348 17.7926 19.9867 16 19.9922H8C6.20735 19.9867 4.75549 18.5348 4.75 16.7422V8.74219C4.75549 6.94954 6.20735 5.49768 8 5.49219H16C17.7926 5.49768 19.2445 6.94954 19.25 8.74219V16.7422ZM16.75 8.99219C17.3023 8.99219 17.75 8.54447 17.75 7.99219C17.75 7.43991 17.3023 6.99219 16.75 6.99219C16.1977 6.99219 15.75 7.43991 15.75 7.99219C15.75 8.54447 16.1977 8.99219 16.75 8.99219ZM12 8.24219C9.51472 8.24219 7.5 10.2569 7.5 12.7422C7.5 15.2275 9.51472 17.2422 12 17.2422C14.4853 17.2422 16.5 15.2275 16.5 12.7422C16.5027 11.5479 16.0294 10.4018 15.1849 9.55727C14.3404 8.71278 13.1943 8.23953 12 8.24219ZM9.25 12.7422C9.25 14.261 10.4812 15.4922 12 15.4922C13.5188 15.4922 14.75 14.261 14.75 12.7422C14.75 11.2234 13.5188 9.99219 12 9.99219C10.4812 9.99219 9.25 11.2234 9.25 12.7422Z" fill="#FFFDFD"/>
</svg>
