<svg width="24" height="25" viewBox="0 0 24 25" fill="none" xmlns="http://www.w3.org/2000/svg">
<path fill-rule="evenodd" clip-rule="evenodd" d="M4.5 3.74219C3.67157 3.74219 3 4.41376 3 5.24219V20.2422C3 21.0706 3.67157 21.7422 4.5 21.7422H19.5C20.3284 21.7422 21 21.0706 21 20.2422V5.24219C21 4.41376 20.3284 3.74219 19.5 3.74219H4.5ZM8.52076 7.74491C8.52639 8.70116 7.81061 9.29038 6.96123 9.28616C6.16107 9.28194 5.46357 8.64491 5.46779 7.74632C5.47201 6.90116 6.13998 6.22194 7.00764 6.24163C7.88795 6.26132 8.52639 6.90679 8.52076 7.74491ZM12.2797 10.5039H9.75971H9.7583V19.0638H12.4217V18.8641C12.4217 18.4842 12.4214 18.1042 12.4211 17.7241C12.4203 16.7103 12.4194 15.6954 12.4246 14.6819C12.426 14.4358 12.4372 14.1799 12.5005 13.945C12.7381 13.0675 13.5271 12.5008 14.4074 12.6401C14.9727 12.7286 15.3467 13.0563 15.5042 13.5893C15.6013 13.9225 15.6449 14.2811 15.6491 14.6285C15.6605 15.6761 15.6589 16.7237 15.6573 17.7714C15.6567 18.1412 15.6561 18.5112 15.6561 18.881V19.0624H18.328V18.8571C18.328 18.4051 18.3278 17.9532 18.3275 17.5013C18.327 16.3718 18.3264 15.2423 18.3294 14.1124C18.3308 13.6019 18.276 13.0985 18.1508 12.6049C17.9638 11.8708 17.5771 11.2633 16.9485 10.8246C16.5027 10.5124 16.0133 10.3113 15.4663 10.2888C15.404 10.2862 15.3412 10.2828 15.2781 10.2794C14.9984 10.2643 14.7141 10.2489 14.4467 10.3028C13.6817 10.4561 13.0096 10.8063 12.5019 11.4236C12.4429 11.4944 12.3852 11.5663 12.2991 11.6736L12.2797 11.6979V10.5039ZM5.68164 19.0666H8.33242V10.5095H5.68164V19.0666Z" fill="#FFFDFD"/>
</svg>
