<svg width="40" height="40" viewBox="0 0 40 40" fill="none" xmlns="http://www.w3.org/2000/svg">
<path fill-rule="evenodd" clip-rule="evenodd" d="M17.0146 33.5654H0.879475C0.480065 33.5654 0.152344 33.2104 0.152344 32.7742V7.73132C0.152344 7.51325 0.316204 7.33574 0.51591 7.33574H9.97374H10.9774V14.7452H23.0519V7.33574H24.0504H33.5133C33.7131 7.33574 33.8769 7.51325 33.8769 7.73132V24.1882C33.4058 24.1071 32.9245 24.0665 32.4278 24.0665C27.727 24.0665 23.9121 27.8448 23.9121 32.5004C23.9121 32.8605 23.9326 33.2155 23.9787 33.5654H17.0146ZM32.4278 39.7627C28.3825 39.7627 25.1001 36.5119 25.1001 32.5004C25.1001 28.4939 28.3825 25.2431 32.4278 25.2431C36.4782 25.2431 39.7605 28.4939 39.7605 32.5004C39.7605 36.5119 36.4782 39.7627 32.4278 39.7627ZM34.6245 27.3478L28.787 33.6719C28.746 33.7226 28.7358 33.7885 28.7614 33.8443C28.787 33.9001 28.8382 33.9356 28.8996 33.9305L31.6494 33.7023L29.7804 37.4856C29.7497 37.5566 29.765 37.6378 29.8265 37.6784C29.8828 37.7189 29.9647 37.7139 30.0159 37.6581L36.0686 31.1767C36.1146 31.126 36.1249 31.0601 36.0993 31.0043C36.0737 30.9434 36.0122 30.913 35.9508 30.9232L33.3546 31.2782L34.8652 27.505C34.8908 27.4391 34.8703 27.363 34.8089 27.3224C34.7525 27.2818 34.6757 27.292 34.6245 27.3478ZM15.0022 0.164684H19.027C19.2421 0.164684 19.4316 0.286399 19.5135 0.484187L21.8639 6.05773V13.5686H12.1654V6.05773L14.5158 0.484187C14.5977 0.286399 14.7871 0.164684 15.0022 0.164684ZM10.6855 6.04252H1.59637C1.25328 6.04252 1.10478 5.52523 1.37106 5.27166L5.66216 1.16884C6.14862 0.70226 6.4405 0.154541 6.9628 0.154541H13.2407L10.9774 5.51002V5.9563C10.8955 6.01209 10.793 6.04252 10.6855 6.04252ZM20.7885 0.154541H27.0665C27.5888 0.154541 27.8806 0.70226 28.3671 1.16884L32.6582 5.27166C32.9245 5.52523 32.776 6.04252 32.4329 6.04252H23.3437C23.2362 6.04252 23.1338 6.01209 23.0519 5.9563V5.51002L20.7885 0.154541Z" fill="white"/>
<path fill-rule="evenodd" clip-rule="evenodd" d="M17.0146 33.5654H0.879475C0.480065 33.5654 0.152344 33.2104 0.152344 32.7742V7.73132C0.152344 7.51325 0.316204 7.33574 0.51591 7.33574H9.97374H10.9774V14.7452H23.0519V7.33574H24.0504H33.5133C33.7131 7.33574 33.8769 7.51325 33.8769 7.73132V24.1882C33.4058 24.1071 32.9245 24.0665 32.4278 24.0665C27.727 24.0665 23.9121 27.8448 23.9121 32.5004C23.9121 32.8605 23.9326 33.2155 23.9787 33.5654H17.0146ZM32.4278 39.7627C28.3825 39.7627 25.1001 36.5119 25.1001 32.5004C25.1001 28.4939 28.3825 25.2431 32.4278 25.2431C36.4782 25.2431 39.7605 28.4939 39.7605 32.5004C39.7605 36.5119 36.4782 39.7627 32.4278 39.7627ZM34.6245 27.3478L28.787 33.6719C28.746 33.7226 28.7358 33.7885 28.7614 33.8443C28.787 33.9001 28.8382 33.9356 28.8996 33.9305L31.6494 33.7023L29.7804 37.4856C29.7497 37.5566 29.765 37.6378 29.8265 37.6784C29.8828 37.7189 29.9647 37.7139 30.0159 37.6581L36.0686 31.1767C36.1146 31.126 36.1249 31.0601 36.0993 31.0043C36.0737 30.9434 36.0122 30.913 35.9508 30.9232L33.3546 31.2782L34.8652 27.505C34.8908 27.4391 34.8703 27.363 34.8089 27.3224C34.7525 27.2818 34.6757 27.292 34.6245 27.3478ZM15.0022 0.164684H19.027C19.2421 0.164684 19.4316 0.286399 19.5135 0.484187L21.8639 6.05773V13.5686H12.1654V6.05773L14.5158 0.484187C14.5977 0.286399 14.7871 0.164684 15.0022 0.164684ZM10.6855 6.04252H1.59637C1.25328 6.04252 1.10478 5.52523 1.37106 5.27166L5.66216 1.16884C6.14862 0.70226 6.4405 0.154541 6.9628 0.154541H13.2407L10.9774 5.51002V5.9563C10.8955 6.01209 10.793 6.04252 10.6855 6.04252ZM20.7885 0.154541H27.0665C27.5888 0.154541 27.8806 0.70226 28.3671 1.16884L32.6582 5.27166C32.9245 5.52523 32.776 6.04252 32.4329 6.04252H23.3437C23.2362 6.04252 23.1338 6.01209 23.0519 5.9563V5.51002L20.7885 0.154541Z" fill="#16A7E0"/>
<path fill-rule="evenodd" clip-rule="evenodd" d="M17.0146 33.5654H0.879475C0.480065 33.5654 0.152344 33.2104 0.152344 32.7742V7.73132C0.152344 7.51325 0.316204 7.33574 0.51591 7.33574H9.97374H10.9774V14.7452H23.0519V7.33574H24.0504H33.5133C33.7131 7.33574 33.8769 7.51325 33.8769 7.73132V24.1882C33.4058 24.1071 32.9245 24.0665 32.4278 24.0665C27.727 24.0665 23.9121 27.8448 23.9121 32.5004C23.9121 32.8605 23.9326 33.2155 23.9787 33.5654H17.0146ZM32.4278 39.7627C28.3825 39.7627 25.1001 36.5119 25.1001 32.5004C25.1001 28.4939 28.3825 25.2431 32.4278 25.2431C36.4782 25.2431 39.7605 28.4939 39.7605 32.5004C39.7605 36.5119 36.4782 39.7627 32.4278 39.7627ZM34.6245 27.3478L28.787 33.6719C28.746 33.7226 28.7358 33.7885 28.7614 33.8443C28.787 33.9001 28.8382 33.9356 28.8996 33.9305L31.6494 33.7023L29.7804 37.4856C29.7497 37.5566 29.765 37.6378 29.8265 37.6784C29.8828 37.7189 29.9647 37.7139 30.0159 37.6581L36.0686 31.1767C36.1146 31.126 36.1249 31.0601 36.0993 31.0043C36.0737 30.9434 36.0122 30.913 35.9508 30.9232L33.3546 31.2782L34.8652 27.505C34.8908 27.4391 34.8703 27.363 34.8089 27.3224C34.7525 27.2818 34.6757 27.292 34.6245 27.3478ZM15.0022 0.164684H19.027C19.2421 0.164684 19.4316 0.286399 19.5135 0.484187L21.8639 6.05773V13.5686H12.1654V6.05773L14.5158 0.484187C14.5977 0.286399 14.7871 0.164684 15.0022 0.164684ZM10.6855 6.04252H1.59637C1.25328 6.04252 1.10478 5.52523 1.37106 5.27166L5.66216 1.16884C6.14862 0.70226 6.4405 0.154541 6.9628 0.154541H13.2407L10.9774 5.51002V5.9563C10.8955 6.01209 10.793 6.04252 10.6855 6.04252ZM20.7885 0.154541H27.0665C27.5888 0.154541 27.8806 0.70226 28.3671 1.16884L32.6582 5.27166C32.9245 5.52523 32.776 6.04252 32.4329 6.04252H23.3437C23.2362 6.04252 23.1338 6.01209 23.0519 5.9563V5.51002L20.7885 0.154541Z" fill="url(#paint0_linear_299_4586)"/>
<defs>
<linearGradient id="paint0_linear_299_4586" x1="20.3165" y1="31.1209" x2="19.2363" y2="42.6433" gradientUnits="userSpaceOnUse">
<stop stop-color="white" stop-opacity="0"/>
<stop offset="1" stop-color="white"/>
</linearGradient>
</defs>
</svg>
