<svg width="394" height="494" viewBox="0 0 394 494" fill="none" xmlns="http://www.w3.org/2000/svg">
<g style="mix-blend-mode:plus-lighter" filter="url(#filter0_f_395_3672)">
<rect x="22" y="22" width="350" height="450" rx="16" fill="url(#paint0_linear_395_3672)"/>
</g>
<rect x="23" y="32" width="348" height="439" rx="15" fill="#0B0B0B"/>
<rect x="23" y="32" width="348" height="439" rx="15" fill="url(#paint1_radial_395_3672)" fill-opacity="0.2"/>
<rect x="23" y="32" width="348" height="439" rx="15" fill="url(#paint2_radial_395_3672)" fill-opacity="0.2"/>
<rect x="23" y="32" width="348" height="439" rx="15" fill="url(#paint3_radial_395_3672)" fill-opacity="0.2"/>
<rect x="23" y="32" width="348" height="439" rx="15" fill="url(#paint4_radial_395_3672)" fill-opacity="0.28"/>
<rect x="23" y="32" width="348" height="439" rx="15" fill="url(#paint5_radial_395_3672)" fill-opacity="0.58"/>
<rect x="23" y="32" width="348" height="439" rx="15" stroke="url(#paint6_linear_395_3672)" stroke-width="2"/>
<rect x="23" y="32" width="348" height="439" rx="15" stroke="url(#paint7_linear_395_3672)" stroke-width="2"/>
<path d="M97.9002 266.36C93.0522 266.36 89.2602 262.424 89.2602 257.36C89.2602 252.32 93.0522 248.408 97.9002 248.408C102.436 248.408 105.988 251.432 106.588 255.848H102.724C102.316 253.376 100.396 251.672 97.9482 251.672C94.9962 251.672 93.0042 254 93.0042 257.36C93.0042 260.744 94.9962 263.096 97.9482 263.096C100.396 263.096 102.292 261.368 102.724 258.896H106.588C105.988 263.36 102.436 266.36 97.9002 266.36ZM116.647 260.6V253.184H119.959V266H116.911V264.32C116.215 265.448 114.799 266.24 113.167 266.24C110.599 266.24 108.727 264.68 108.727 261.344V253.184H112.063V260.696C112.063 262.496 112.951 263.288 114.295 263.288C115.495 263.288 116.647 262.328 116.647 260.6ZM133.781 261.896C133.781 264.584 131.741 266.24 128.093 266.24C124.445 266.24 122.405 264.488 122.141 261.632H125.333C125.357 262.952 126.485 263.792 128.141 263.792C129.437 263.792 130.421 263.384 130.421 262.472C130.421 261.656 129.893 261.32 128.669 261.08L126.365 260.648C124.061 260.24 122.669 258.968 122.669 256.976C122.669 254.6 124.709 252.944 127.901 252.944C131.117 252.944 133.325 254.648 133.565 257.408H130.373C130.253 256.16 129.317 255.392 127.901 255.392C126.677 255.392 125.861 255.848 125.861 256.664C125.861 257.432 126.389 257.744 127.541 257.96L130.013 258.416C132.509 258.896 133.781 260.048 133.781 261.896ZM143.769 262.76V265.664C142.953 266.072 142.185 266.24 141.201 266.24C138.561 266.24 136.905 264.728 136.905 261.848V256.04H134.312V253.184H136.905V249.392H140.217V253.184H143.889V256.04H140.217V261.08C140.217 262.568 140.889 263.168 142.089 263.168C142.713 263.168 143.289 263.024 143.769 262.76ZM151.308 266.24C147.588 266.24 144.804 263.312 144.804 259.592C144.804 255.848 147.588 252.944 151.308 252.944C155.028 252.944 157.812 255.848 157.812 259.592C157.812 263.312 155.028 266.24 151.308 266.24ZM151.308 263.288C152.964 263.288 154.38 261.968 154.38 259.592C154.38 257.216 152.964 255.92 151.308 255.92C149.652 255.92 148.236 257.216 148.236 259.592C148.236 261.968 149.652 263.288 151.308 263.288ZM163.277 266H159.941V253.184H163.013V255.008C163.949 253.712 165.149 252.944 166.853 252.944C168.605 252.944 169.949 253.76 170.597 255.224C171.605 253.808 172.901 252.944 174.821 252.944C177.413 252.944 179.165 254.648 179.165 257.72V266H175.853V258.776C175.853 256.976 175.085 255.896 173.621 255.896C172.301 255.896 171.221 256.928 171.221 258.848V266H167.909V258.776C167.909 256.976 167.141 255.896 165.677 255.896C164.333 255.896 163.277 256.928 163.277 258.848V266ZM185.883 250.208C185.883 251.336 184.971 252.176 183.651 252.176C182.355 252.176 181.443 251.336 181.443 250.208C181.443 249.032 182.355 248.192 183.651 248.192C184.971 248.192 185.883 249.032 185.883 250.208ZM185.355 266H182.019V253.184H185.355V266ZM198.692 266H187.772V263.312L194.372 256.064H187.748V253.184H198.5V255.92L191.876 263.096H198.692V266ZM206.361 266.216C202.521 266.216 199.953 263.552 199.953 259.544C199.953 255.728 202.617 252.944 206.313 252.944C210.369 252.944 213.057 256.232 212.457 260.408H203.361C203.577 262.496 204.585 263.648 206.289 263.648C207.753 263.648 208.737 262.928 209.121 261.656H212.433C211.713 264.56 209.481 266.216 206.361 266.216ZM206.241 255.392C204.681 255.392 203.697 256.4 203.409 258.296H208.929C208.833 256.52 207.825 255.392 206.241 255.392ZM213.617 259.592C213.617 255.8 215.849 252.944 219.305 252.944C220.841 252.944 222.137 253.616 223.097 254.84V248.768H226.409V266H223.361V264.152C222.353 265.496 220.961 266.24 219.305 266.24C215.849 266.24 213.617 263.336 213.617 259.592ZM217.049 259.592C217.049 261.992 218.417 263.264 220.049 263.264C221.705 263.264 223.073 261.968 223.073 259.544C223.073 257.12 221.681 255.896 220.049 255.896C218.417 255.896 217.049 257.144 217.049 259.592ZM238.338 266H234.69V248.768H238.338V255.56H245.802V248.768H249.45V266H245.802V258.704H238.338V266ZM258.371 266.24C254.651 266.24 251.867 263.312 251.867 259.592C251.867 255.848 254.651 252.944 258.371 252.944C262.091 252.944 264.875 255.848 264.875 259.592C264.875 263.312 262.091 266.24 258.371 266.24ZM258.371 263.288C260.027 263.288 261.443 261.968 261.443 259.592C261.443 257.216 260.027 255.92 258.371 255.92C256.715 255.92 255.299 257.216 255.299 259.592C255.299 261.968 256.715 263.288 258.371 263.288ZM270.34 266H267.004V253.184H270.076V255.008C271.012 253.712 272.212 252.944 273.916 252.944C275.668 252.944 277.012 253.76 277.66 255.224C278.668 253.808 279.964 252.944 281.884 252.944C284.476 252.944 286.228 254.648 286.228 257.72V266H282.916V258.776C282.916 256.976 282.148 255.896 280.684 255.896C279.364 255.896 278.284 256.928 278.284 258.848V266H274.972V258.776C274.972 256.976 274.204 255.896 272.74 255.896C271.396 255.896 270.34 256.928 270.34 258.848V266ZM294.65 266.216C290.81 266.216 288.242 263.552 288.242 259.544C288.242 255.728 290.906 252.944 294.602 252.944C298.658 252.944 301.346 256.232 300.746 260.408H291.65C291.866 262.496 292.874 263.648 294.578 263.648C296.042 263.648 297.026 262.928 297.41 261.656H300.722C300.002 264.56 297.77 266.216 294.65 266.216ZM294.53 255.392C292.97 255.392 291.986 256.4 291.698 258.296H297.218C297.122 256.52 296.114 255.392 294.53 255.392ZM125.709 298H122.061V280.768H125.709V298ZM132.281 298H128.945V285.184H132.017V287.008C132.953 285.712 134.153 284.944 135.857 284.944C137.609 284.944 138.953 285.76 139.601 287.224C140.609 285.808 141.905 284.944 143.825 284.944C146.417 284.944 148.169 286.648 148.169 289.72V298H144.857V290.776C144.857 288.976 144.089 287.896 142.625 287.896C141.305 287.896 140.225 288.928 140.225 290.848V298H136.913V290.776C136.913 288.976 136.145 287.896 134.681 287.896C133.337 287.896 132.281 288.928 132.281 290.848V298ZM163.815 291.592C163.815 295.384 161.583 298.24 158.127 298.24C156.615 298.24 155.319 297.592 154.359 296.344V302.632H151.023V285.184H154.095V287.056C155.079 285.688 156.495 284.944 158.127 284.944C161.583 284.944 163.815 287.824 163.815 291.592ZM160.383 291.592C160.383 289.192 159.015 287.896 157.383 287.896C155.751 287.896 154.383 289.168 154.383 291.592C154.383 294.016 155.751 295.264 157.383 295.264C159.015 295.264 160.383 294.04 160.383 291.592ZM169.289 291.784V298H165.953V285.184H169.025V287.656C169.961 286.024 171.953 285.04 174.017 285.04V288.496C171.185 288.28 169.289 288.952 169.289 291.784ZM181.32 298.24C177.6 298.24 174.816 295.312 174.816 291.592C174.816 287.848 177.6 284.944 181.32 284.944C185.04 284.944 187.824 287.848 187.824 291.592C187.824 295.312 185.04 298.24 181.32 298.24ZM181.32 295.288C182.976 295.288 184.392 293.968 184.392 291.592C184.392 289.216 182.976 287.92 181.32 287.92C179.664 287.92 178.248 289.216 178.248 291.592C178.248 293.968 179.664 295.288 181.32 295.288ZM201.052 285.184L196.348 298H192.7L187.972 285.184H191.572L194.62 294.208L197.692 285.184H201.052ZM207.638 298.216C203.798 298.216 201.23 295.552 201.23 291.544C201.23 287.728 203.894 284.944 207.59 284.944C211.646 284.944 214.334 288.232 213.734 292.408H204.638C204.854 294.496 205.862 295.648 207.566 295.648C209.03 295.648 210.014 294.928 210.398 293.656H213.71C212.99 296.56 210.758 298.216 207.638 298.216ZM207.518 287.392C205.958 287.392 204.974 288.4 204.686 290.296H210.206C210.11 288.52 209.102 287.392 207.518 287.392ZM219.304 298H215.968V285.184H219.04V287.008C219.976 285.712 221.176 284.944 222.88 284.944C224.632 284.944 225.976 285.76 226.624 287.224C227.632 285.808 228.928 284.944 230.848 284.944C233.44 284.944 235.192 286.648 235.192 289.72V298H231.88V290.776C231.88 288.976 231.112 287.896 229.648 287.896C228.328 287.896 227.248 288.928 227.248 290.848V298H223.936V290.776C223.936 288.976 223.168 287.896 221.704 287.896C220.36 287.896 219.304 288.928 219.304 290.848V298ZM243.615 298.216C239.775 298.216 237.207 295.552 237.207 291.544C237.207 287.728 239.871 284.944 243.567 284.944C247.623 284.944 250.311 288.232 249.711 292.408H240.615C240.831 294.496 241.839 295.648 243.543 295.648C245.007 295.648 245.991 294.928 246.375 293.656H249.687C248.967 296.56 246.735 298.216 243.615 298.216ZM243.495 287.392C241.935 287.392 240.951 288.4 240.663 290.296H246.183C246.087 288.52 245.079 287.392 243.495 287.392ZM255.281 291.016V298H251.945V285.184H255.017V287.008C255.953 285.736 257.273 284.944 258.953 284.944C261.521 284.944 263.297 286.624 263.297 289.72V298H259.985V290.848C259.985 288.952 259.241 287.896 257.729 287.896C256.409 287.896 255.281 288.952 255.281 291.016ZM274.046 294.76V297.664C273.23 298.072 272.462 298.24 271.478 298.24C268.838 298.24 267.182 296.728 267.182 293.848V288.04H264.59V285.184H267.182V281.392H270.494V285.184H274.166V288.04H270.494V293.08C270.494 294.568 271.166 295.168 272.366 295.168C272.99 295.168 273.566 295.024 274.046 294.76Z" fill="white"/>
<mask id="mask0_395_3672" style="mask-type:alpha" maskUnits="userSpaceOnUse" x="87" y="72" width="228" height="180">
<path d="M87 72H315V251.5H87V72Z" fill="url(#paint8_linear_395_3672)"/>
</mask>
<g mask="url(#mask0_395_3672)">
<g filter="url(#filter1_f_395_3672)">
<rect x="138.064" y="81" width="113.873" height="144" rx="16" fill="url(#paint9_linear_395_3672)" fill-opacity="0.48"/>
</g>
<g filter="url(#filter2_f_395_3672)">
<rect x="138.064" y="81" width="113.873" height="120.615" rx="16" fill="#1689B6"/>
</g>
<g filter="url(#filter3_f_395_3672)">
<rect x="138.064" y="81" width="113.873" height="112" rx="16" fill="#1D4655"/>
</g>
</g>
<rect x="137" y="81" width="116" height="114" rx="17" fill="#070606"/>
<rect x="137" y="81" width="116" height="114" rx="17" fill="url(#paint10_linear_395_3672)" fill-opacity="0.54"/>
<rect x="137" y="81" width="116" height="114" rx="17" fill="url(#paint11_radial_395_3672)" fill-opacity="0.6"/>
<rect x="137" y="81" width="116" height="114" rx="17" fill="url(#paint12_radial_395_3672)" fill-opacity="0.26"/>
<rect x="137" y="81" width="116" height="114" rx="17" fill="url(#paint13_linear_395_3672)" fill-opacity="0.66"/>
<rect x="137" y="81" width="116" height="114" rx="17" stroke="url(#paint14_linear_395_3672)" stroke-width="2"/>
<path d="M140 98C140 90.268 146.268 84 154 84H236C243.732 84 250 90.268 250 98V159C250 166.732 243.732 173 236 173H154C146.268 173 140 166.732 140 159V98Z" fill="#060606"/>
<path d="M140 98C140 90.268 146.268 84 154 84H236C243.732 84 250 90.268 250 98V159C250 166.732 243.732 173 236 173H154C146.268 173 140 166.732 140 159V98Z" fill="url(#paint15_radial_395_3672)" fill-opacity="0.64"/>
<path d="M139.5 98C139.5 89.9919 145.992 83.5 154 83.5H236C244.008 83.5 250.5 89.9919 250.5 98H249.5C249.5 90.5442 243.456 84.5 236 84.5H154C146.544 84.5 140.5 90.5442 140.5 98H139.5ZM250.5 159.5C250.5 167.508 244.008 174 236 174H154C145.992 174 139.5 167.508 139.5 159.5L140.5 159C140.5 166.18 146.544 172 154 172H236C243.456 172 249.5 166.18 249.5 159L250.5 159.5ZM154 174C145.992 174 139.5 167.508 139.5 159.5V98C139.5 89.9919 145.992 83.5 154 83.5V84.5C146.544 84.5 140.5 90.5442 140.5 98V159C140.5 166.18 146.544 172 154 172V174ZM236 83.5C244.008 83.5 250.5 89.9919 250.5 98V159.5C250.5 167.508 244.008 174 236 174V172C243.456 172 249.5 166.18 249.5 159V98C249.5 90.5442 243.456 84.5 236 84.5V83.5Z" fill="url(#paint16_radial_395_3672)"/>
<path d="M139.5 98C139.5 89.9919 145.992 83.5 154 83.5H236C244.008 83.5 250.5 89.9919 250.5 98H249.5C249.5 90.5442 243.456 84.5 236 84.5H154C146.544 84.5 140.5 90.5442 140.5 98H139.5ZM250.5 159.5C250.5 167.508 244.008 174 236 174H154C145.992 174 139.5 167.508 139.5 159.5L140.5 159C140.5 166.18 146.544 172 154 172H236C243.456 172 249.5 166.18 249.5 159L250.5 159.5ZM154 174C145.992 174 139.5 167.508 139.5 159.5V98C139.5 89.9919 145.992 83.5 154 83.5V84.5C146.544 84.5 140.5 90.5442 140.5 98V159C140.5 166.18 146.544 172 154 172V174ZM236 83.5C244.008 83.5 250.5 89.9919 250.5 98V159.5C250.5 167.508 244.008 174 236 174V172C243.456 172 249.5 166.18 249.5 159V98C249.5 90.5442 243.456 84.5 236 84.5V83.5Z" fill="white" fill-opacity="0.06"/>
<g filter="url(#filter4_d_395_3672)">
<path fill-rule="evenodd" clip-rule="evenodd" d="M193.415 147.394H171.01C170.455 147.394 170 146.901 170 146.296V111.521C170 111.218 170.228 110.972 170.505 110.972H183.638H185.032V121.261H201.798V110.972H203.185H216.325C216.602 110.972 216.83 111.218 216.83 111.521V134.373C216.176 134.261 215.507 134.204 214.818 134.204C208.29 134.204 202.993 139.451 202.993 145.915C202.993 146.415 203.021 146.908 203.085 147.394H193.415ZM214.818 156C209.2 156 204.643 151.486 204.643 145.915C204.643 140.352 209.2 135.838 214.818 135.838C220.442 135.838 225 140.352 225 145.915C225 151.486 220.442 156 214.818 156ZM217.868 138.761L209.762 147.542C209.705 147.613 209.691 147.704 209.727 147.782C209.762 147.859 209.833 147.908 209.919 147.901L213.737 147.585L211.142 152.838C211.099 152.937 211.12 153.049 211.206 153.106C211.284 153.162 211.398 153.155 211.469 153.077L219.873 144.077C219.937 144.007 219.952 143.915 219.916 143.838C219.88 143.754 219.795 143.711 219.71 143.725L216.105 144.218L218.202 138.979C218.238 138.887 218.209 138.782 218.124 138.725C218.046 138.669 217.939 138.683 217.868 138.761ZM190.621 101.014H196.209C196.508 101.014 196.771 101.183 196.885 101.458L200.149 109.197V119.627H186.681V109.197L189.945 101.458C190.059 101.183 190.322 101.014 190.621 101.014ZM184.626 109.176H172.005C171.529 109.176 171.323 108.458 171.692 108.106L177.651 102.408C178.326 101.761 178.732 101 179.457 101H188.175L185.032 108.437V109.056C184.918 109.134 184.776 109.176 184.626 109.176ZM198.655 101H207.373C208.098 101 208.504 101.761 209.179 102.408L215.138 108.106C215.507 108.458 215.301 109.176 214.825 109.176H202.204C202.054 109.176 201.912 109.134 201.798 109.056V108.437L198.655 101Z" fill="#1689B6"/>
<path fill-rule="evenodd" clip-rule="evenodd" d="M193.415 147.394H171.01C170.455 147.394 170 146.901 170 146.296V111.521C170 111.218 170.228 110.972 170.505 110.972H183.638H185.032V121.261H201.798V110.972H203.185H216.325C216.602 110.972 216.83 111.218 216.83 111.521V134.373C216.176 134.261 215.507 134.204 214.818 134.204C208.29 134.204 202.993 139.451 202.993 145.915C202.993 146.415 203.021 146.908 203.085 147.394H193.415ZM214.818 156C209.2 156 204.643 151.486 204.643 145.915C204.643 140.352 209.2 135.838 214.818 135.838C220.442 135.838 225 140.352 225 145.915C225 151.486 220.442 156 214.818 156ZM217.868 138.761L209.762 147.542C209.705 147.613 209.691 147.704 209.727 147.782C209.762 147.859 209.833 147.908 209.919 147.901L213.737 147.585L211.142 152.838C211.099 152.937 211.12 153.049 211.206 153.106C211.284 153.162 211.398 153.155 211.469 153.077L219.873 144.077C219.937 144.007 219.952 143.915 219.916 143.838C219.88 143.754 219.795 143.711 219.71 143.725L216.105 144.218L218.202 138.979C218.238 138.887 218.209 138.782 218.124 138.725C218.046 138.669 217.939 138.683 217.868 138.761ZM190.621 101.014H196.209C196.508 101.014 196.771 101.183 196.885 101.458L200.149 109.197V119.627H186.681V109.197L189.945 101.458C190.059 101.183 190.322 101.014 190.621 101.014ZM184.626 109.176H172.005C171.529 109.176 171.323 108.458 171.692 108.106L177.651 102.408C178.326 101.761 178.732 101 179.457 101H188.175L185.032 108.437V109.056C184.918 109.134 184.776 109.176 184.626 109.176ZM198.655 101H207.373C208.098 101 208.504 101.761 209.179 102.408L215.138 108.106C215.507 108.458 215.301 109.176 214.825 109.176H202.204C202.054 109.176 201.912 109.134 201.798 109.056V108.437L198.655 101Z" fill="url(#paint17_linear_395_3672)"/>
<path fill-rule="evenodd" clip-rule="evenodd" d="M193.415 147.394H171.01C170.455 147.394 170 146.901 170 146.296V111.521C170 111.218 170.228 110.972 170.505 110.972H183.638H185.032V121.261H201.798V110.972H203.185H216.325C216.602 110.972 216.83 111.218 216.83 111.521V134.373C216.176 134.261 215.507 134.204 214.818 134.204C208.29 134.204 202.993 139.451 202.993 145.915C202.993 146.415 203.021 146.908 203.085 147.394H193.415ZM214.818 156C209.2 156 204.643 151.486 204.643 145.915C204.643 140.352 209.2 135.838 214.818 135.838C220.442 135.838 225 140.352 225 145.915C225 151.486 220.442 156 214.818 156ZM217.868 138.761L209.762 147.542C209.705 147.613 209.691 147.704 209.727 147.782C209.762 147.859 209.833 147.908 209.919 147.901L213.737 147.585L211.142 152.838C211.099 152.937 211.12 153.049 211.206 153.106C211.284 153.162 211.398 153.155 211.469 153.077L219.873 144.077C219.937 144.007 219.952 143.915 219.916 143.838C219.88 143.754 219.795 143.711 219.71 143.725L216.105 144.218L218.202 138.979C218.238 138.887 218.209 138.782 218.124 138.725C218.046 138.669 217.939 138.683 217.868 138.761ZM190.621 101.014H196.209C196.508 101.014 196.771 101.183 196.885 101.458L200.149 109.197V119.627H186.681V109.197L189.945 101.458C190.059 101.183 190.322 101.014 190.621 101.014ZM184.626 109.176H172.005C171.529 109.176 171.323 108.458 171.692 108.106L177.651 102.408C178.326 101.761 178.732 101 179.457 101H188.175L185.032 108.437V109.056C184.918 109.134 184.776 109.176 184.626 109.176ZM198.655 101H207.373C208.098 101 208.504 101.761 209.179 102.408L215.138 108.106C215.507 108.458 215.301 109.176 214.825 109.176H202.204C202.054 109.176 201.912 109.134 201.798 109.056V108.437L198.655 101Z" fill="url(#paint18_linear_395_3672)"/>
<path d="M209.573 147.379L209.578 147.373L217.684 138.592L209.573 147.379ZM209.573 147.379L209.568 147.385M209.573 147.379L209.568 147.385M209.568 147.385C209.457 147.522 209.42 147.714 209.499 147.886C209.571 148.043 209.732 148.168 209.939 148.151L209.939 148.151M209.568 147.385L209.939 148.151M209.939 148.151L213.317 147.87M209.939 148.151L213.317 147.87M213.317 147.87L210.917 152.727L210.917 152.727L210.912 152.739C210.834 152.919 210.857 153.173 211.065 153.312C211.242 153.436 211.494 153.419 211.652 153.248C211.652 153.247 211.652 153.247 211.653 153.247L220.056 144.248L220.058 144.246C220.184 144.107 220.223 143.911 220.145 143.738C220.062 143.544 219.863 143.448 219.673 143.478L216.496 143.912L218.434 139.072L218.435 139.069C218.51 138.877 218.453 138.646 218.266 138.519C218.074 138.385 217.83 138.433 217.684 138.591L213.317 147.87ZM202.048 121.261V111.222H203.185H216.325C216.445 111.222 216.58 111.336 216.58 111.521V134.08C216.005 133.996 215.419 133.954 214.818 133.954C208.154 133.954 202.743 139.31 202.743 145.915C202.743 146.329 202.762 146.738 202.804 147.144H193.415H171.01C170.612 147.144 170.25 146.783 170.25 146.296V111.521C170.25 111.336 170.385 111.222 170.505 111.222H183.638H184.782V121.261V121.511H185.032H201.798H202.048V121.261ZM196.654 101.553L196.655 101.555L199.899 109.248V119.377H186.931V109.248L190.175 101.555L190.176 101.553C190.249 101.376 190.419 101.264 190.621 101.264H196.209C196.411 101.264 196.581 101.376 196.654 101.553ZM171.865 108.287L171.865 108.286L177.824 102.589L177.824 102.589C178.001 102.419 178.159 102.244 178.303 102.081C178.315 102.068 178.327 102.054 178.338 102.041C178.471 101.892 178.59 101.757 178.71 101.64C178.971 101.384 179.194 101.25 179.457 101.25H187.797L184.801 108.339L184.782 108.386V108.437V108.902C184.734 108.918 184.682 108.926 184.626 108.926H172.005C171.914 108.926 171.817 108.859 171.772 108.703C171.727 108.549 171.761 108.385 171.865 108.287ZM199.033 101.25H207.373C207.636 101.25 207.859 101.384 208.12 101.64C208.24 101.757 208.359 101.892 208.492 102.041C208.503 102.054 208.515 102.068 208.527 102.081C208.671 102.244 208.829 102.419 209.006 102.589L209.006 102.589L214.965 108.286L214.965 108.287C215.069 108.385 215.103 108.549 215.058 108.703C215.013 108.859 214.916 108.926 214.825 108.926H202.204C202.148 108.926 202.096 108.918 202.048 108.902V108.437V108.386L202.029 108.339L199.033 101.25ZM214.818 155.75C209.336 155.75 204.893 151.346 204.893 145.915C204.893 140.492 209.336 136.088 214.818 136.088C220.306 136.088 224.75 140.493 224.75 145.915C224.75 151.346 220.306 155.75 214.818 155.75Z" stroke="#1689B6" stroke-width="0.5"/>
</g>
<path d="M75.1325 335H73.8005V323.282H69.4625V322.076H79.4705V323.282H75.1325V335ZM82.4532 329.474V335H81.1932V322.076H82.4532V327.26C83.0472 326.126 84.1272 325.334 85.4952 325.334C87.4752 325.334 88.7532 326.594 88.7532 328.844V335H87.4932V329.276C87.4932 327.458 86.6652 326.432 85.1172 326.432C83.6412 326.432 82.4532 327.71 82.4532 329.474ZM95.1321 335.18C92.4681 335.18 90.7041 333.182 90.7041 330.176C90.7041 327.404 92.5401 325.334 95.0601 325.334C97.7601 325.334 99.5241 327.512 99.3081 330.554H91.9641C92.0721 332.804 93.2601 334.19 95.1141 334.19C96.6981 334.19 97.7961 333.308 98.1021 331.796H99.3441C98.9121 333.902 97.3101 335.18 95.1321 335.18ZM95.0421 326.306C93.3321 326.306 92.1261 327.62 91.9641 329.69H97.9941C97.8861 327.566 96.7881 326.306 95.0421 326.306ZM106.592 335H105.242V322.076H106.592V327.746H113.936V322.076H115.286V335H113.936V328.916H106.592V335ZM126.891 331.382C126.891 333.686 125.199 335 122.661 335H118.197V322.076H122.391C124.893 322.076 126.369 323.282 126.369 325.406C126.369 326.684 125.559 327.782 124.245 328.268C125.991 328.7 126.891 329.834 126.891 331.382ZM122.319 323.174H119.457V327.782H122.319C124.065 327.782 125.055 326.918 125.055 325.478C125.055 324.038 124.065 323.174 122.319 323.174ZM122.589 328.88H119.457V333.902H122.589C124.479 333.902 125.595 332.966 125.595 331.346C125.595 329.798 124.479 328.88 122.589 328.88ZM131.023 333.956C131.023 334.604 130.555 335.09 129.889 335.09C129.241 335.09 128.755 334.604 128.755 333.956C128.755 333.272 129.241 332.804 129.889 332.804C130.555 332.804 131.023 333.272 131.023 333.956ZM139.408 335V333.272C138.85 334.46 137.698 335.18 136.222 335.18C134.26 335.18 132.982 334.082 132.982 332.372C132.982 330.518 134.458 329.546 137.338 329.546C137.914 329.546 138.346 329.582 139.282 329.654V328.862C139.282 327.278 138.436 326.342 136.996 326.342C135.448 326.342 134.476 327.296 134.458 328.844H133.306C133.36 326.738 134.818 325.334 136.978 325.334C139.192 325.334 140.488 326.63 140.488 328.826V335H139.408ZM134.188 332.336C134.188 333.488 135.07 334.262 136.402 334.262C138.166 334.262 139.282 333.11 139.282 331.328V330.482C138.472 330.41 137.914 330.392 137.392 330.392C135.232 330.392 134.188 331.022 134.188 332.336ZM144.777 323.318C144.777 323.876 144.363 324.272 143.751 324.272C143.157 324.272 142.743 323.876 142.743 323.318C142.743 322.778 143.157 322.382 143.751 322.382C144.363 322.382 144.777 322.778 144.777 323.318ZM144.399 335H143.139V325.514H144.399V335ZM154.616 335.18C151.952 335.18 150.188 333.182 150.188 330.176C150.188 327.404 152.024 325.334 154.544 325.334C157.244 325.334 159.008 327.512 158.792 330.554H151.448C151.556 332.804 152.744 334.19 154.598 334.19C156.182 334.19 157.28 333.308 157.586 331.796H158.828C158.396 333.902 156.794 335.18 154.616 335.18ZM154.526 326.306C152.816 326.306 151.61 327.62 151.448 329.69H157.478C157.37 327.566 156.272 326.306 154.526 326.306ZM162.135 329.474V335H160.875V325.514H162.045V327.296C162.657 326.126 163.809 325.334 165.177 325.334C167.157 325.334 168.435 326.594 168.435 328.844V335H167.175V329.276C167.175 327.458 166.347 326.432 164.799 326.432C163.323 326.432 162.135 327.71 162.135 329.474ZM174.67 338.672C172.258 338.672 170.746 337.412 170.638 335.288H171.844C171.952 336.836 172.96 337.664 174.652 337.664C176.524 337.664 177.514 336.674 177.514 334.802V332.822C176.938 334.154 175.786 334.928 174.382 334.928C171.988 334.928 170.386 333.002 170.386 330.122C170.386 327.242 171.97 325.334 174.364 325.334C175.786 325.334 176.974 326.144 177.586 327.53V325.514H178.756V334.784C178.756 337.232 177.262 338.672 174.67 338.672ZM171.646 330.122C171.646 332.444 172.744 333.848 174.562 333.848C176.344 333.848 177.532 332.408 177.532 330.212C177.532 327.89 176.362 326.414 174.562 326.414C172.762 326.414 171.646 327.818 171.646 330.122ZM183.132 323.318C183.132 323.876 182.718 324.272 182.106 324.272C181.512 324.272 181.098 323.876 181.098 323.318C181.098 322.778 181.512 322.382 182.106 322.382C182.718 322.382 183.132 322.778 183.132 323.318ZM182.754 335H181.494V325.514H182.754V335ZM186.744 329.474V335H185.484V325.514H186.654V327.296C187.266 326.126 188.418 325.334 189.786 325.334C191.766 325.334 193.044 326.594 193.044 328.844V335H191.784V329.276C191.784 327.458 190.956 326.432 189.408 326.432C187.932 326.432 186.744 327.71 186.744 329.474ZM199.423 335.18C196.759 335.18 194.995 333.182 194.995 330.176C194.995 327.404 196.831 325.334 199.351 325.334C202.051 325.334 203.815 327.512 203.599 330.554H196.255C196.363 332.804 197.551 334.19 199.405 334.19C200.989 334.19 202.087 333.308 202.393 331.796H203.635C203.203 333.902 201.601 335.18 199.423 335.18ZM199.333 326.306C197.623 326.306 196.417 327.62 196.255 329.69H202.285C202.177 327.566 201.079 326.306 199.333 326.306ZM217.345 335L214.861 327.188L212.395 335H211.117L208.345 325.514H209.587L211.783 333.218L214.249 325.514H215.491L217.939 333.236L220.135 325.514H221.395L218.605 335H217.345ZM224.669 323.318C224.669 323.876 224.255 324.272 223.643 324.272C223.049 324.272 222.635 323.876 222.635 323.318C222.635 322.778 223.049 322.382 223.643 322.382C224.255 322.382 224.669 322.778 224.669 323.318ZM224.291 335H223.031V325.514H224.291V335ZM228.281 335H227.021V322.076H228.281V335ZM232.272 335H231.012V322.076H232.272V335ZM247.458 330.248C247.458 333.164 245.82 335.18 243.282 335.18C241.824 335.18 240.6 334.388 239.934 333.002V335H238.764V322.076H240.024V327.512C240.636 326.126 241.842 325.334 243.282 325.334C245.82 325.334 247.458 327.332 247.458 330.248ZM246.18 330.248C246.18 327.836 244.938 326.432 243.084 326.432C241.302 326.432 240.006 327.818 240.006 330.212C240.006 332.588 241.266 334.082 243.084 334.082C244.938 334.082 246.18 332.66 246.18 330.248ZM255.552 331.166V325.514H256.794V335H255.624V333.29C255.138 334.388 253.986 335.18 252.6 335.18C250.674 335.18 249.396 334.082 249.396 331.688V325.514H250.656V331.418C250.656 333.344 251.61 334.082 252.942 334.082C254.454 334.082 255.552 332.858 255.552 331.166ZM260.783 329.474V335H259.523V325.514H260.693V327.296C261.305 326.126 262.457 325.334 263.825 325.334C265.805 325.334 267.083 326.594 267.083 328.844V335H265.823V329.276C265.823 327.458 264.995 326.432 263.447 326.432C261.971 326.432 260.783 327.71 260.783 329.474ZM269.034 330.248C269.034 327.332 270.654 325.334 273.21 325.334C274.632 325.334 275.838 326.144 276.468 327.494V322.076H277.728V335H276.558V333.002C275.892 334.388 274.668 335.18 273.21 335.18C270.654 335.18 269.034 333.164 269.034 330.248ZM270.312 330.248C270.312 332.66 271.536 334.082 273.39 334.082C275.226 334.082 276.486 332.588 276.486 330.212C276.486 327.818 275.19 326.432 273.39 326.432C271.536 326.432 270.312 327.836 270.312 330.248ZM281.719 335H280.459V322.076H281.719V335ZM288.175 335.18C285.511 335.18 283.747 333.182 283.747 330.176C283.747 327.404 285.583 325.334 288.103 325.334C290.803 325.334 292.567 327.512 292.351 330.554H285.007C285.115 332.804 286.303 334.19 288.157 334.19C289.741 334.19 290.839 333.308 291.145 331.796H292.387C291.955 333.902 290.353 335.18 288.175 335.18ZM288.085 326.306C286.375 326.306 285.169 327.62 285.007 329.69H291.037C290.929 327.566 289.831 326.306 288.085 326.306ZM303.073 333.794V334.91C302.587 335.108 302.173 335.18 301.705 335.18C300.139 335.18 298.933 334.37 298.933 332.318V326.576H296.701V325.514H298.933V322.706H300.193V325.514H303.163V326.576H300.193V332.048C300.193 333.524 300.913 334.028 301.957 334.028C302.353 334.028 302.677 333.956 303.073 333.794ZM306.328 329.474V335H305.068V322.076H306.328V327.26C306.922 326.126 308.002 325.334 309.37 325.334C311.35 325.334 312.628 326.594 312.628 328.844V335H311.368V329.276C311.368 327.458 310.54 326.432 308.992 326.432C307.516 326.432 306.328 327.71 306.328 329.474ZM319.007 335.18C316.343 335.18 314.579 333.182 314.579 330.176C314.579 327.404 316.415 325.334 318.935 325.334C321.635 325.334 323.399 327.512 323.183 330.554H315.839C315.947 332.804 317.135 334.19 318.989 334.19C320.573 334.19 321.671 333.308 321.977 331.796H323.219C322.787 333.902 321.185 335.18 319.007 335.18ZM318.917 326.306C317.207 326.306 316.001 327.62 315.839 329.69H321.869C321.761 327.566 320.663 326.306 318.917 326.306ZM60.252 359H58.992V349.514H60.162V351.296C60.792 350.072 61.908 349.334 63.258 349.334C64.734 349.334 65.832 350.144 66.228 351.53C66.822 350.198 68.01 349.334 69.504 349.334C71.466 349.334 72.69 350.63 72.69 352.844V359H71.448V353.258C71.448 351.458 70.62 350.432 69.09 350.432C67.65 350.432 66.48 351.692 66.48 353.438V359H65.22V353.258C65.22 351.458 64.392 350.432 62.862 350.432C61.404 350.432 60.252 351.692 60.252 353.438V359ZM79.1377 359.18C76.5277 359.18 74.6377 357.11 74.6377 354.248C74.6377 351.404 76.5277 349.352 79.1377 349.352C81.7657 349.352 83.6557 351.404 83.6557 354.248C83.6557 357.11 81.7657 359.18 79.1377 359.18ZM79.1377 358.082C80.9917 358.082 82.3777 356.606 82.3777 354.248C82.3777 351.926 80.9917 350.45 79.1377 350.45C77.3017 350.45 75.9157 351.926 75.9157 354.248C75.9157 356.606 77.3017 358.082 79.1377 358.082ZM92.7852 356.354C92.7852 358.1 91.3812 359.18 89.0412 359.18C86.6832 359.18 85.2432 357.992 85.0632 356.03H86.2692C86.3592 357.38 87.4212 358.226 89.0412 358.226C90.5892 358.226 91.5252 357.632 91.5252 356.552C91.5252 355.616 90.9852 355.184 89.5452 354.896L88.1772 354.626C86.3772 354.284 85.4232 353.402 85.4232 352.034C85.4232 350.45 86.8272 349.334 88.8972 349.334C91.0752 349.334 92.5152 350.504 92.6592 352.394H91.4712C91.3452 351.08 90.3912 350.306 88.8972 350.306C87.5652 350.306 86.6472 350.936 86.6472 351.926C86.6472 352.862 87.2232 353.312 88.6272 353.582L90.0492 353.852C91.9392 354.212 92.7852 355.004 92.7852 356.354ZM99.7821 357.794V358.91C99.2961 359.108 98.8821 359.18 98.4141 359.18C96.8481 359.18 95.6421 358.37 95.6421 356.318V350.576H93.4101V349.514H95.6421V346.706H96.9021V349.514H99.8721V350.576H96.9021V356.048C96.9021 357.524 97.6221 358.028 98.6661 358.028C99.0621 358.028 99.3861 357.956 99.7821 357.794ZM109.085 359.198C106.583 359.198 104.837 357.164 104.837 354.248C104.837 351.368 106.601 349.334 109.085 349.334C111.299 349.334 112.883 350.81 113.261 353.186H111.983C111.695 351.458 110.615 350.432 109.085 350.432C107.321 350.432 106.115 351.98 106.115 354.248C106.115 356.552 107.321 358.1 109.085 358.1C110.633 358.1 111.695 357.092 111.983 355.328H113.261C112.919 357.74 111.317 359.198 109.085 359.198ZM118.97 359.18C116.36 359.18 114.47 357.11 114.47 354.248C114.47 351.404 116.36 349.352 118.97 349.352C121.598 349.352 123.488 351.404 123.488 354.248C123.488 357.11 121.598 359.18 118.97 359.18ZM118.97 358.082C120.824 358.082 122.21 356.606 122.21 354.248C122.21 351.926 120.824 350.45 118.97 350.45C117.134 350.45 115.748 351.926 115.748 354.248C115.748 356.606 117.134 358.082 118.97 358.082ZM132.617 356.354C132.617 358.1 131.213 359.18 128.873 359.18C126.515 359.18 125.075 357.992 124.895 356.03H126.101C126.191 357.38 127.253 358.226 128.873 358.226C130.421 358.226 131.357 357.632 131.357 356.552C131.357 355.616 130.817 355.184 129.377 354.896L128.009 354.626C126.209 354.284 125.255 353.402 125.255 352.034C125.255 350.45 126.659 349.334 128.729 349.334C130.907 349.334 132.347 350.504 132.491 352.394H131.303C131.177 351.08 130.223 350.306 128.729 350.306C127.397 350.306 126.479 350.936 126.479 351.926C126.479 352.862 127.055 353.312 128.459 353.582L129.881 353.852C131.771 354.212 132.617 355.004 132.617 356.354ZM139.614 357.794V358.91C139.128 359.108 138.714 359.18 138.246 359.18C136.68 359.18 135.474 358.37 135.474 356.318V350.576H133.242V349.514H135.474V346.706H136.734V349.514H139.704V350.576H136.734V356.048C136.734 357.524 137.454 358.028 138.498 358.028C138.894 358.028 139.218 357.956 139.614 357.794ZM149.097 359.18C146.433 359.18 144.669 357.182 144.669 354.176C144.669 351.404 146.505 349.334 149.025 349.334C151.725 349.334 153.489 351.512 153.273 354.554H145.929C146.037 356.804 147.225 358.19 149.079 358.19C150.663 358.19 151.761 357.308 152.067 355.796H153.309C152.877 357.902 151.275 359.18 149.097 359.18ZM149.007 350.306C147.297 350.306 146.091 351.62 145.929 353.69H151.959C151.851 351.566 150.753 350.306 149.007 350.306ZM157.426 359H156.166V350.576H153.934V349.514H156.166V348.65C156.166 346.904 157.12 345.932 158.776 345.932C159.208 345.932 159.586 346.004 159.91 346.13V347.174C159.604 347.048 159.316 347.03 158.992 347.03C157.984 347.03 157.426 347.534 157.426 348.65V349.514H160.216V350.576H157.426V359ZM164.369 359H163.109V350.576H160.877V349.514H163.109V348.65C163.109 346.904 164.063 345.932 165.719 345.932C166.151 345.932 166.529 346.004 166.853 346.13V347.174C166.547 347.048 166.259 347.03 165.935 347.03C164.927 347.03 164.369 347.534 164.369 348.65V349.514H167.159V350.576H164.369V359ZM172.072 359.18C169.408 359.18 167.644 357.182 167.644 354.176C167.644 351.404 169.48 349.334 172 349.334C174.7 349.334 176.464 351.512 176.248 354.554H168.904C169.012 356.804 170.2 358.19 172.054 358.19C173.638 358.19 174.736 357.308 175.042 355.796H176.284C175.852 357.902 174.25 359.18 172.072 359.18ZM171.982 350.306C170.272 350.306 169.066 351.62 168.904 353.69H174.934C174.826 351.566 173.728 350.306 171.982 350.306ZM181.7 359.198C179.198 359.198 177.452 357.164 177.452 354.248C177.452 351.368 179.216 349.334 181.7 349.334C183.914 349.334 185.498 350.81 185.876 353.186H184.598C184.31 351.458 183.23 350.432 181.7 350.432C179.936 350.432 178.73 351.98 178.73 354.248C178.73 356.552 179.936 358.1 181.7 358.1C183.248 358.1 184.31 357.092 184.598 355.328H185.876C185.534 357.74 183.932 359.198 181.7 359.198ZM192.788 357.794V358.91C192.302 359.108 191.888 359.18 191.42 359.18C189.854 359.18 188.648 358.37 188.648 356.318V350.576H186.416V349.514H188.648V346.706H189.908V349.514H192.878V350.576H189.908V356.048C189.908 357.524 190.628 358.028 191.672 358.028C192.068 358.028 192.392 357.956 192.788 357.794ZM196.421 347.318C196.421 347.876 196.007 348.272 195.395 348.272C194.801 348.272 194.387 347.876 194.387 347.318C194.387 346.778 194.801 346.382 195.395 346.382C196.007 346.382 196.421 346.778 196.421 347.318ZM196.043 359H194.783V349.514H196.043V359ZM206.081 349.514L202.427 359H201.113L197.495 349.514H198.845L201.815 357.524L204.785 349.514H206.081ZM210.99 359.18C208.326 359.18 206.562 357.182 206.562 354.176C206.562 351.404 208.398 349.334 210.918 349.334C213.618 349.334 215.382 351.512 215.166 354.554H207.822C207.93 356.804 209.118 358.19 210.972 358.19C212.556 358.19 213.654 357.308 213.96 355.796H215.202C214.77 357.902 213.168 359.18 210.99 359.18ZM210.9 350.306C209.19 350.306 207.984 351.62 207.822 353.69H213.852C213.744 351.566 212.646 350.306 210.9 350.306ZM219.037 358.406C219.037 359.738 218.029 360.98 216.301 361.034V360.278C217.327 360.206 218.029 359.576 218.101 358.748C217.957 358.82 217.831 358.838 217.687 358.838C217.111 358.838 216.697 358.388 216.697 357.848C216.697 357.218 217.165 356.804 217.777 356.804C218.623 356.804 219.037 357.452 219.037 358.406ZM229.077 359.18C226.413 359.18 224.649 357.182 224.649 354.176C224.649 351.404 226.485 349.334 229.005 349.334C231.705 349.334 233.469 351.512 233.253 354.554H225.909C226.017 356.804 227.205 358.19 229.059 358.19C230.643 358.19 231.741 357.308 232.047 355.796H233.289C232.857 357.902 231.255 359.18 229.077 359.18ZM228.987 350.306C227.277 350.306 226.071 351.62 225.909 353.69H231.939C231.831 351.566 230.733 350.306 228.987 350.306ZM236.596 353.474V359H235.336V349.514H236.506V351.296C237.118 350.126 238.27 349.334 239.638 349.334C241.618 349.334 242.896 350.594 242.896 352.844V359H241.636V353.276C241.636 351.458 240.808 350.432 239.26 350.432C237.784 350.432 236.596 351.71 236.596 353.474ZM249.275 359.18C246.611 359.18 244.847 357.182 244.847 354.176C244.847 351.404 246.683 349.334 249.203 349.334C251.903 349.334 253.667 351.512 253.451 354.554H246.107C246.215 356.804 247.403 358.19 249.257 358.19C250.841 358.19 251.939 357.308 252.245 355.796H253.487C253.055 357.902 251.453 359.18 249.275 359.18ZM249.185 350.306C247.475 350.306 246.269 351.62 246.107 353.69H252.137C252.029 351.566 250.931 350.306 249.185 350.306ZM256.793 353.924V359H255.533V349.514H256.703V351.674C257.351 350.27 258.755 349.37 260.321 349.37V350.684C258.323 350.612 256.793 351.854 256.793 353.924ZM265.443 362.672C263.031 362.672 261.519 361.412 261.411 359.288H262.617C262.725 360.836 263.733 361.664 265.425 361.664C267.297 361.664 268.287 360.674 268.287 358.802V356.822C267.711 358.154 266.559 358.928 265.155 358.928C262.761 358.928 261.159 357.002 261.159 354.122C261.159 351.242 262.743 349.334 265.137 349.334C266.559 349.334 267.747 350.144 268.359 351.53V349.514H269.529V358.784C269.529 361.232 268.035 362.672 265.443 362.672ZM262.419 354.122C262.419 356.444 263.517 357.848 265.335 357.848C267.117 357.848 268.305 356.408 268.305 354.212C268.305 351.89 267.135 350.414 265.335 350.414C263.535 350.414 262.419 351.818 262.419 354.122ZM279.575 349.514L274.715 362.474H273.365L274.751 358.874L270.989 349.514H272.339L275.399 357.362L278.297 349.514H279.575ZM291.893 356.354C291.893 358.1 290.489 359.18 288.149 359.18C285.791 359.18 284.351 357.992 284.171 356.03H285.377C285.467 357.38 286.529 358.226 288.149 358.226C289.697 358.226 290.633 357.632 290.633 356.552C290.633 355.616 290.093 355.184 288.653 354.896L287.285 354.626C285.485 354.284 284.531 353.402 284.531 352.034C284.531 350.45 285.935 349.334 288.005 349.334C290.183 349.334 291.623 350.504 291.767 352.394H290.579C290.453 351.08 289.499 350.306 288.005 350.306C286.673 350.306 285.755 350.936 285.755 351.926C285.755 352.862 286.331 353.312 287.735 353.582L289.157 353.852C291.047 354.212 291.893 355.004 291.893 356.354ZM299.914 359V357.272C299.356 358.46 298.204 359.18 296.728 359.18C294.766 359.18 293.488 358.082 293.488 356.372C293.488 354.518 294.964 353.546 297.844 353.546C298.42 353.546 298.852 353.582 299.788 353.654V352.862C299.788 351.278 298.942 350.342 297.502 350.342C295.954 350.342 294.982 351.296 294.964 352.844H293.812C293.866 350.738 295.324 349.334 297.484 349.334C299.698 349.334 300.994 350.63 300.994 352.826V359H299.914ZM294.694 356.336C294.694 357.488 295.576 358.262 296.908 358.262C298.672 358.262 299.788 357.11 299.788 355.328V354.482C298.978 354.41 298.42 354.392 297.898 354.392C295.738 354.392 294.694 355.022 294.694 356.336ZM310.671 349.514L307.017 359H305.703L302.085 349.514H303.435L306.405 357.524L309.375 349.514H310.671ZM313.773 347.318C313.773 347.876 313.359 348.272 312.747 348.272C312.153 348.272 311.739 347.876 311.739 347.318C311.739 346.778 312.153 346.382 312.747 346.382C313.359 346.382 313.773 346.778 313.773 347.318ZM313.395 359H312.135V349.514H313.395V359ZM317.385 353.474V359H316.125V349.514H317.295V351.296C317.907 350.126 319.059 349.334 320.427 349.334C322.407 349.334 323.685 350.594 323.685 352.844V359H322.425V353.276C322.425 351.458 321.597 350.432 320.049 350.432C318.573 350.432 317.385 351.71 317.385 353.474ZM329.92 362.672C327.508 362.672 325.996 361.412 325.888 359.288H327.094C327.202 360.836 328.21 361.664 329.902 361.664C331.774 361.664 332.764 360.674 332.764 358.802V356.822C332.188 358.154 331.036 358.928 329.632 358.928C327.238 358.928 325.636 357.002 325.636 354.122C325.636 351.242 327.22 349.334 329.614 349.334C331.036 349.334 332.224 350.144 332.836 351.53V349.514H334.006V358.784C334.006 361.232 332.512 362.672 329.92 362.672ZM326.896 354.122C326.896 356.444 327.994 357.848 329.812 357.848C331.594 357.848 332.782 356.408 332.782 354.212C332.782 351.89 331.612 350.414 329.812 350.414C328.012 350.414 326.896 351.818 326.896 354.122ZM66.2725 377.474V383H65.0125V370.076H66.2725V375.26C66.8665 374.126 67.9465 373.334 69.3145 373.334C71.2945 373.334 72.5725 374.594 72.5725 376.844V383H71.3125V377.276C71.3125 375.458 70.4845 374.432 68.9365 374.432C67.4605 374.432 66.2725 375.71 66.2725 377.474ZM79.0234 383.18C76.4134 383.18 74.5234 381.11 74.5234 378.248C74.5234 375.404 76.4134 373.352 79.0234 373.352C81.6514 373.352 83.5414 375.404 83.5414 378.248C83.5414 381.11 81.6514 383.18 79.0234 383.18ZM79.0234 382.082C80.8774 382.082 82.2634 380.606 82.2634 378.248C82.2634 375.926 80.8774 374.45 79.0234 374.45C77.1874 374.45 75.8014 375.926 75.8014 378.248C75.8014 380.606 77.1874 382.082 79.0234 382.082ZM86.8389 383H85.5789V373.514H86.7489V375.296C87.3789 374.072 88.4949 373.334 89.8449 373.334C91.3209 373.334 92.4189 374.144 92.8149 375.53C93.4089 374.198 94.5969 373.334 96.0909 373.334C98.0529 373.334 99.2769 374.63 99.2769 376.844V383H98.0349V377.258C98.0349 375.458 97.2069 374.432 95.6769 374.432C94.2369 374.432 93.0669 375.692 93.0669 377.438V383H91.8069V377.258C91.8069 375.458 90.9789 374.432 89.4489 374.432C87.9909 374.432 86.8389 375.692 86.8389 377.438V383ZM105.653 383.18C102.989 383.18 101.225 381.182 101.225 378.176C101.225 375.404 103.061 373.334 105.581 373.334C108.281 373.334 110.045 375.512 109.829 378.554H102.485C102.593 380.804 103.781 382.19 105.635 382.19C107.219 382.19 108.317 381.308 108.623 379.796H109.865C109.433 381.902 107.831 383.18 105.653 383.18ZM105.563 374.306C103.853 374.306 102.647 375.62 102.485 377.69H108.515C108.407 375.566 107.309 374.306 105.563 374.306ZM122.765 380.354C122.765 382.1 121.361 383.18 119.021 383.18C116.663 383.18 115.223 381.992 115.043 380.03H116.249C116.339 381.38 117.401 382.226 119.021 382.226C120.569 382.226 121.505 381.632 121.505 380.552C121.505 379.616 120.965 379.184 119.525 378.896L118.157 378.626C116.357 378.284 115.403 377.402 115.403 376.034C115.403 374.45 116.807 373.334 118.877 373.334C121.055 373.334 122.495 374.504 122.639 376.394H121.451C121.325 375.08 120.371 374.306 118.877 374.306C117.545 374.306 116.627 374.936 116.627 375.926C116.627 376.862 117.203 377.312 118.607 377.582L120.029 377.852C121.919 378.212 122.765 379.004 122.765 380.354ZM128.752 383.18C126.142 383.18 124.252 381.11 124.252 378.248C124.252 375.404 126.142 373.352 128.752 373.352C131.38 373.352 133.27 375.404 133.27 378.248C133.27 381.11 131.38 383.18 128.752 383.18ZM128.752 382.082C130.606 382.082 131.992 380.606 131.992 378.248C131.992 375.926 130.606 374.45 128.752 374.45C126.916 374.45 125.53 375.926 125.53 378.248C125.53 380.606 126.916 382.082 128.752 382.082ZM136.567 383H135.307V370.076H136.567V383ZM145.364 379.166V373.514H146.606V383H145.436V381.29C144.95 382.388 143.798 383.18 142.412 383.18C140.486 383.18 139.208 382.082 139.208 379.688V373.514H140.468V379.418C140.468 381.344 141.422 382.082 142.754 382.082C144.266 382.082 145.364 380.858 145.364 379.166ZM154.213 381.794V382.91C153.727 383.108 153.313 383.18 152.845 383.18C151.279 383.18 150.073 382.37 150.073 380.318V374.576H147.841V373.514H150.073V370.706H151.333V373.514H154.303V374.576H151.333V380.048C151.333 381.524 152.053 382.028 153.097 382.028C153.493 382.028 153.817 381.956 154.213 381.794ZM157.846 371.318C157.846 371.876 157.432 372.272 156.82 372.272C156.226 372.272 155.812 371.876 155.812 371.318C155.812 370.778 156.226 370.382 156.82 370.382C157.432 370.382 157.846 370.778 157.846 371.318ZM157.468 383H156.208V373.514H157.468V383ZM163.996 383.18C161.386 383.18 159.496 381.11 159.496 378.248C159.496 375.404 161.386 373.352 163.996 373.352C166.624 373.352 168.514 375.404 168.514 378.248C168.514 381.11 166.624 383.18 163.996 383.18ZM163.996 382.082C165.85 382.082 167.236 380.606 167.236 378.248C167.236 375.926 165.85 374.45 163.996 374.45C162.16 374.45 160.774 375.926 160.774 378.248C160.774 380.606 162.16 382.082 163.996 382.082ZM171.812 377.474V383H170.552V373.514H171.722V375.296C172.334 374.126 173.486 373.334 174.854 373.334C176.834 373.334 178.112 374.594 178.112 376.844V383H176.852V377.276C176.852 375.458 176.024 374.432 174.476 374.432C173 374.432 171.812 375.71 171.812 377.474ZM187.856 380.354C187.856 382.1 186.452 383.18 184.112 383.18C181.754 383.18 180.314 381.992 180.134 380.03H181.34C181.43 381.38 182.492 382.226 184.112 382.226C185.66 382.226 186.596 381.632 186.596 380.552C186.596 379.616 186.056 379.184 184.616 378.896L183.248 378.626C181.448 378.284 180.494 377.402 180.494 376.034C180.494 374.45 181.898 373.334 183.968 373.334C186.146 373.334 187.586 374.504 187.73 376.394H186.542C186.416 375.08 185.462 374.306 183.968 374.306C182.636 374.306 181.718 374.936 181.718 375.926C181.718 376.862 182.294 377.312 183.698 377.582L185.12 377.852C187.01 378.212 187.856 379.004 187.856 380.354ZM195.895 383H194.635V374.576H192.403V373.514H194.635V372.65C194.635 370.904 195.589 369.932 197.245 369.932C197.677 369.932 198.055 370.004 198.379 370.13V371.174C198.073 371.048 197.785 371.03 197.461 371.03C196.453 371.03 195.895 371.534 195.895 372.65V373.514H198.685V374.576H195.895V383ZM203.67 383.18C201.06 383.18 199.17 381.11 199.17 378.248C199.17 375.404 201.06 373.352 203.67 373.352C206.298 373.352 208.188 375.404 208.188 378.248C208.188 381.11 206.298 383.18 203.67 383.18ZM203.67 382.082C205.524 382.082 206.91 380.606 206.91 378.248C206.91 375.926 205.524 374.45 203.67 374.45C201.834 374.45 200.448 375.926 200.448 378.248C200.448 380.606 201.834 382.082 203.67 382.082ZM211.485 377.924V383H210.225V373.514H211.395V375.674C212.043 374.27 213.447 373.37 215.013 373.37V374.684C213.015 374.612 211.485 375.854 211.485 377.924ZM227.623 373.514L222.763 386.474H221.413L222.799 382.874L219.037 373.514H220.387L223.447 381.362L226.345 373.514H227.623ZM232.604 383.18C229.994 383.18 228.104 381.11 228.104 378.248C228.104 375.404 229.994 373.352 232.604 373.352C235.232 373.352 237.122 375.404 237.122 378.248C237.122 381.11 235.232 383.18 232.604 383.18ZM232.604 382.082C234.458 382.082 235.844 380.606 235.844 378.248C235.844 375.926 234.458 374.45 232.604 374.45C230.768 374.45 229.382 375.926 229.382 378.248C229.382 380.606 230.768 382.082 232.604 382.082ZM245.225 379.166V373.514H246.467V383H245.297V381.29C244.811 382.388 243.659 383.18 242.273 383.18C240.347 383.18 239.069 382.082 239.069 379.688V373.514H240.329V379.418C240.329 381.344 241.283 382.082 242.615 382.082C244.127 382.082 245.225 380.858 245.225 379.166ZM251.284 381.956C251.284 382.604 250.816 383.09 250.15 383.09C249.502 383.09 249.016 382.604 249.016 381.956C249.016 381.272 249.502 380.804 250.15 380.804C250.816 380.804 251.284 381.272 251.284 381.956ZM262.8 383H261.45V370.076H262.8V383ZM266.892 377.474V383H265.632V373.514H266.802V375.296C267.414 374.126 268.566 373.334 269.934 373.334C271.914 373.334 273.192 374.594 273.192 376.844V383H271.932V377.276C271.932 375.458 271.104 374.432 269.556 374.432C268.08 374.432 266.892 375.71 266.892 377.474ZM279.391 383.198C276.889 383.198 275.143 381.164 275.143 378.248C275.143 375.368 276.907 373.334 279.391 373.334C281.605 373.334 283.189 374.81 283.567 377.186H282.289C282.001 375.458 280.921 374.432 279.391 374.432C277.627 374.432 276.421 375.98 276.421 378.248C276.421 380.552 277.627 382.1 279.391 382.1C280.939 382.1 282.001 381.092 282.289 379.328H283.567C283.225 381.74 281.623 383.198 279.391 383.198ZM286.86 377.924V383H285.6V373.514H286.77V375.674C287.418 374.27 288.822 373.37 290.388 373.37V374.684C288.39 374.612 286.86 375.854 286.86 377.924ZM295.637 383.18C292.973 383.18 291.209 381.182 291.209 378.176C291.209 375.404 293.045 373.334 295.565 373.334C298.265 373.334 300.029 375.512 299.813 378.554H292.469C292.577 380.804 293.765 382.19 295.619 382.19C297.203 382.19 298.301 381.308 298.607 379.796H299.849C299.417 381.902 297.815 383.18 295.637 383.18ZM295.547 374.306C293.837 374.306 292.631 375.62 292.469 377.69H298.499C298.391 375.566 297.293 374.306 295.547 374.306ZM307.727 383V381.272C307.169 382.46 306.017 383.18 304.541 383.18C302.579 383.18 301.301 382.082 301.301 380.372C301.301 378.518 302.777 377.546 305.657 377.546C306.233 377.546 306.665 377.582 307.601 377.654V376.862C307.601 375.278 306.755 374.342 305.315 374.342C303.767 374.342 302.795 375.296 302.777 376.844H301.625C301.679 374.738 303.137 373.334 305.297 373.334C307.511 373.334 308.807 374.63 308.807 376.826V383H307.727ZM302.507 380.336C302.507 381.488 303.389 382.262 304.721 382.262C306.485 382.262 307.601 381.11 307.601 379.328V378.482C306.791 378.41 306.233 378.392 305.711 378.392C303.551 378.392 302.507 379.022 302.507 380.336ZM318.55 380.354C318.55 382.1 317.146 383.18 314.806 383.18C312.448 383.18 311.008 381.992 310.828 380.03H312.034C312.124 381.38 313.186 382.226 314.806 382.226C316.354 382.226 317.29 381.632 317.29 380.552C317.29 379.616 316.75 379.184 315.31 378.896L313.942 378.626C312.142 378.284 311.188 377.402 311.188 376.034C311.188 374.45 312.592 373.334 314.662 373.334C316.84 373.334 318.28 374.504 318.424 376.394H317.236C317.11 375.08 316.156 374.306 314.662 374.306C313.33 374.306 312.412 374.936 312.412 375.926C312.412 376.862 312.988 377.312 314.392 377.582L315.814 377.852C317.704 378.212 318.55 379.004 318.55 380.354ZM324.465 383.18C321.801 383.18 320.037 381.182 320.037 378.176C320.037 375.404 321.873 373.334 324.393 373.334C327.093 373.334 328.857 375.512 328.641 378.554H321.297C321.405 380.804 322.593 382.19 324.447 382.19C326.031 382.19 327.129 381.308 327.435 379.796H328.677C328.245 381.902 326.643 383.18 324.465 383.18ZM324.375 374.306C322.665 374.306 321.459 375.62 321.297 377.69H327.327C327.219 375.566 326.121 374.306 324.375 374.306ZM92.1356 405.794V406.91C91.6496 407.108 91.2356 407.18 90.7676 407.18C89.2016 407.18 87.9956 406.37 87.9956 404.318V398.576H85.7636V397.514H87.9956V394.706H89.2556V397.514H92.2256V398.576H89.2556V404.048C89.2556 405.524 89.9756 406.028 91.0196 406.028C91.4156 406.028 91.7396 405.956 92.1356 405.794ZM95.3907 401.474V407H94.1307V394.076H95.3907V399.26C95.9847 398.126 97.0647 397.334 98.4327 397.334C100.413 397.334 101.691 398.594 101.691 400.844V407H100.431V401.276C100.431 399.458 99.6027 398.432 98.0547 398.432C96.5787 398.432 95.3907 399.71 95.3907 401.474ZM108.07 407.18C105.406 407.18 103.642 405.182 103.642 402.176C103.642 399.404 105.478 397.334 107.998 397.334C110.698 397.334 112.462 399.512 112.246 402.554H104.902C105.01 404.804 106.198 406.19 108.052 406.19C109.636 406.19 110.734 405.308 111.04 403.796H112.282C111.85 405.902 110.248 407.18 108.07 407.18ZM107.98 398.306C106.27 398.306 105.064 399.62 104.902 401.69H110.932C110.824 399.566 109.726 398.306 107.98 398.306ZM125.398 397.514L121.744 407H120.43L116.812 397.514H118.162L121.132 405.524L124.102 397.514H125.398ZM132.5 407V405.272C131.942 406.46 130.79 407.18 129.314 407.18C127.352 407.18 126.074 406.082 126.074 404.372C126.074 402.518 127.55 401.546 130.43 401.546C131.006 401.546 131.438 401.582 132.374 401.654V400.862C132.374 399.278 131.528 398.342 130.088 398.342C128.54 398.342 127.568 399.296 127.55 400.844H126.398C126.452 398.738 127.91 397.334 130.07 397.334C132.284 397.334 133.58 398.63 133.58 400.826V407H132.5ZM127.28 404.336C127.28 405.488 128.162 406.262 129.494 406.262C131.258 406.262 132.374 405.11 132.374 403.328V402.482C131.564 402.41 131.006 402.392 130.484 402.392C128.324 402.392 127.28 403.022 127.28 404.336ZM137.49 407H136.23V394.076H137.49V407ZM146.287 403.166V397.514H147.529V407H146.359V405.29C145.873 406.388 144.721 407.18 143.335 407.18C141.409 407.18 140.131 406.082 140.131 403.688V397.514H141.391V403.418C141.391 405.344 142.345 406.082 143.677 406.082C145.189 406.082 146.287 404.858 146.287 403.166ZM153.984 407.18C151.32 407.18 149.556 405.182 149.556 402.176C149.556 399.404 151.392 397.334 153.912 397.334C156.612 397.334 158.376 399.512 158.16 402.554H150.816C150.924 404.804 152.112 406.19 153.966 406.19C155.55 406.19 156.648 405.308 156.954 403.796H158.196C157.764 405.902 156.162 407.18 153.984 407.18ZM153.894 398.306C152.184 398.306 150.978 399.62 150.816 401.69H156.846C156.738 399.566 155.64 398.306 153.894 398.306ZM167.802 407.18C165.192 407.18 163.302 405.11 163.302 402.248C163.302 399.404 165.192 397.352 167.802 397.352C170.43 397.352 172.32 399.404 172.32 402.248C172.32 405.11 170.43 407.18 167.802 407.18ZM167.802 406.082C169.656 406.082 171.042 404.606 171.042 402.248C171.042 399.926 169.656 398.45 167.802 398.45C165.966 398.45 164.58 399.926 164.58 402.248C164.58 404.606 165.966 406.082 167.802 406.082ZM176.182 407H174.922V398.576H172.69V397.514H174.922V396.65C174.922 394.904 175.876 393.932 177.532 393.932C177.964 393.932 178.342 394.004 178.666 394.13V395.174C178.36 395.048 178.072 395.03 177.748 395.03C176.74 395.03 176.182 395.534 176.182 396.65V397.514H178.972V398.576H176.182V407ZM191.491 397.514L186.631 410.474H185.281L186.667 406.874L182.905 397.514H184.255L187.315 405.362L190.213 397.514H191.491ZM196.472 407.18C193.862 407.18 191.972 405.11 191.972 402.248C191.972 399.404 193.862 397.352 196.472 397.352C199.1 397.352 200.99 399.404 200.99 402.248C200.99 405.11 199.1 407.18 196.472 407.18ZM196.472 406.082C198.326 406.082 199.712 404.606 199.712 402.248C199.712 399.926 198.326 398.45 196.472 398.45C194.636 398.45 193.25 399.926 193.25 402.248C193.25 404.606 194.636 406.082 196.472 406.082ZM209.093 403.166V397.514H210.335V407H209.165V405.29C208.679 406.388 207.527 407.18 206.141 407.18C204.215 407.18 202.937 406.082 202.937 403.688V397.514H204.197V403.418C204.197 405.344 205.151 406.082 206.483 406.082C207.995 406.082 209.093 404.858 209.093 403.166ZM214.324 401.924V407H213.064V397.514H214.234V399.674C214.882 398.27 216.286 397.37 217.852 397.37V398.684C215.854 398.612 214.324 399.854 214.324 401.924ZM224.414 401.474V407H223.154V394.076H224.414V399.26C225.008 398.126 226.088 397.334 227.456 397.334C229.436 397.334 230.714 398.594 230.714 400.844V407H229.454V401.276C229.454 399.458 228.626 398.432 227.078 398.432C225.602 398.432 224.414 399.71 224.414 401.474ZM237.165 407.18C234.555 407.18 232.665 405.11 232.665 402.248C232.665 399.404 234.555 397.352 237.165 397.352C239.793 397.352 241.683 399.404 241.683 402.248C241.683 405.11 239.793 407.18 237.165 407.18ZM237.165 406.082C239.019 406.082 240.405 404.606 240.405 402.248C240.405 399.926 239.019 398.45 237.165 398.45C235.329 398.45 233.943 399.926 233.943 402.248C233.943 404.606 235.329 406.082 237.165 406.082ZM244.981 407H243.721V397.514H244.891V399.296C245.521 398.072 246.637 397.334 247.987 397.334C249.463 397.334 250.561 398.144 250.957 399.53C251.551 398.198 252.739 397.334 254.233 397.334C256.195 397.334 257.419 398.63 257.419 400.844V407H256.177V401.258C256.177 399.458 255.349 398.432 253.819 398.432C252.379 398.432 251.209 399.692 251.209 401.438V407H249.949V401.258C249.949 399.458 249.121 398.432 247.591 398.432C246.133 398.432 244.981 399.692 244.981 401.438V407ZM263.794 407.18C261.13 407.18 259.366 405.182 259.366 402.176C259.366 399.404 261.202 397.334 263.722 397.334C266.422 397.334 268.186 399.512 267.97 402.554H260.626C260.734 404.804 261.922 406.19 263.776 406.19C265.36 406.19 266.458 405.308 266.764 403.796H268.006C267.574 405.902 265.972 407.18 263.794 407.18ZM263.704 398.306C261.994 398.306 260.788 399.62 260.626 401.69H266.656C266.548 399.566 265.45 398.306 263.704 398.306ZM281.716 407L279.232 399.188L276.766 407H275.488L272.716 397.514H273.958L276.154 405.218L278.62 397.514H279.862L282.31 405.236L284.506 397.514H285.766L282.976 407H281.716ZM289.04 395.318C289.04 395.876 288.626 396.272 288.014 396.272C287.42 396.272 287.006 395.876 287.006 395.318C287.006 394.778 287.42 394.382 288.014 394.382C288.626 394.382 289.04 394.778 289.04 395.318ZM288.662 407H287.402V397.514H288.662V407ZM296.27 405.794V406.91C295.784 407.108 295.37 407.18 294.902 407.18C293.336 407.18 292.13 406.37 292.13 404.318V398.576H289.898V397.514H292.13V394.706H293.39V397.514H296.36V398.576H293.39V404.048C293.39 405.524 294.11 406.028 295.154 406.028C295.55 406.028 295.874 405.956 296.27 405.794ZM299.525 401.474V407H298.265V394.076H299.525V399.26C300.119 398.126 301.199 397.334 302.567 397.334C304.547 397.334 305.825 398.594 305.825 400.844V407H304.565V401.276C304.565 399.458 303.737 398.432 302.189 398.432C300.713 398.432 299.525 399.71 299.525 401.474ZM155.183 419.318C155.183 419.876 154.769 420.272 154.157 420.272C153.563 420.272 153.149 419.876 153.149 419.318C153.149 418.778 153.563 418.382 154.157 418.382C154.769 418.382 155.183 418.778 155.183 419.318ZM154.805 431H153.545V421.514H154.805V431ZM158.795 425.474V431H157.535V421.514H158.705V423.296C159.317 422.126 160.469 421.334 161.837 421.334C163.817 421.334 165.095 422.594 165.095 424.844V431H163.835V425.276C163.835 423.458 163.007 422.432 161.459 422.432C159.983 422.432 158.795 423.71 158.795 425.474ZM169.008 425.474V431H167.748V421.514H168.918V423.296C169.53 422.126 170.682 421.334 172.05 421.334C174.03 421.334 175.308 422.594 175.308 424.844V431H174.048V425.276C174.048 423.458 173.22 422.432 171.672 422.432C170.196 422.432 169.008 423.71 169.008 425.474ZM181.759 431.18C179.149 431.18 177.259 429.11 177.259 426.248C177.259 423.404 179.149 421.352 181.759 421.352C184.387 421.352 186.277 423.404 186.277 426.248C186.277 429.11 184.387 431.18 181.759 431.18ZM181.759 430.082C183.613 430.082 184.999 428.606 184.999 426.248C184.999 423.926 183.613 422.45 181.759 422.45C179.923 422.45 178.537 423.926 178.537 426.248C178.537 428.606 179.923 430.082 181.759 430.082ZM195.341 421.514L191.687 431H190.373L186.755 421.514H188.105L191.075 429.524L194.045 421.514H195.341ZM202.443 431V429.272C201.885 430.46 200.733 431.18 199.257 431.18C197.295 431.18 196.017 430.082 196.017 428.372C196.017 426.518 197.493 425.546 200.373 425.546C200.949 425.546 201.381 425.582 202.317 425.654V424.862C202.317 423.278 201.471 422.342 200.031 422.342C198.483 422.342 197.511 423.296 197.493 424.844H196.341C196.395 422.738 197.853 421.334 200.013 421.334C202.227 421.334 203.523 422.63 203.523 424.826V431H202.443ZM197.223 428.336C197.223 429.488 198.105 430.262 199.437 430.262C201.201 430.262 202.317 429.11 202.317 427.328V426.482C201.507 426.41 200.949 426.392 200.427 426.392C198.267 426.392 197.223 427.022 197.223 428.336ZM210.999 429.794V430.91C210.513 431.108 210.099 431.18 209.631 431.18C208.065 431.18 206.859 430.37 206.859 428.318V422.576H204.627V421.514H206.859V418.706H208.119V421.514H211.089V422.576H208.119V428.048C208.119 429.524 208.839 430.028 209.883 430.028C210.279 430.028 210.603 429.956 210.999 429.794ZM214.632 419.318C214.632 419.876 214.218 420.272 213.606 420.272C213.012 420.272 212.598 419.876 212.598 419.318C212.598 418.778 213.012 418.382 213.606 418.382C214.218 418.382 214.632 418.778 214.632 419.318ZM214.254 431H212.994V421.514H214.254V431ZM220.782 431.18C218.172 431.18 216.282 429.11 216.282 426.248C216.282 423.404 218.172 421.352 220.782 421.352C223.41 421.352 225.3 423.404 225.3 426.248C225.3 429.11 223.41 431.18 220.782 431.18ZM220.782 430.082C222.636 430.082 224.022 428.606 224.022 426.248C224.022 423.926 222.636 422.45 220.782 422.45C218.946 422.45 217.56 423.926 217.56 426.248C217.56 428.606 218.946 430.082 220.782 430.082ZM228.598 425.474V431H227.338V421.514H228.508V423.296C229.12 422.126 230.272 421.334 231.64 421.334C233.62 421.334 234.898 422.594 234.898 424.844V431H233.638V425.276C233.638 423.458 232.81 422.432 231.262 422.432C229.786 422.432 228.598 423.71 228.598 425.474ZM239.639 429.956C239.639 430.604 239.171 431.09 238.505 431.09C237.857 431.09 237.371 430.604 237.371 429.956C237.371 429.272 237.857 428.804 238.505 428.804C239.171 428.804 239.639 429.272 239.639 429.956Z" fill="white"/>
<defs>
<filter id="filter0_f_395_3672" x="0.700001" y="0.700001" width="392.6" height="492.6" filterUnits="userSpaceOnUse" color-interpolation-filters="sRGB">
<feFlood flood-opacity="0" result="BackgroundImageFix"/>
<feBlend mode="normal" in="SourceGraphic" in2="BackgroundImageFix" result="shape"/>
<feGaussianBlur stdDeviation="10.65" result="effect1_foregroundBlur_395_3672"/>
</filter>
<filter id="filter1_f_395_3672" x="91.1645" y="34.1" width="207.673" height="237.8" filterUnits="userSpaceOnUse" color-interpolation-filters="sRGB">
<feFlood flood-opacity="0" result="BackgroundImageFix"/>
<feBlend mode="normal" in="SourceGraphic" in2="BackgroundImageFix" result="shape"/>
<feGaussianBlur stdDeviation="23.45" result="effect1_foregroundBlur_395_3672"/>
</filter>
<filter id="filter2_f_395_3672" x="107.464" y="50.4" width="175.073" height="181.815" filterUnits="userSpaceOnUse" color-interpolation-filters="sRGB">
<feFlood flood-opacity="0" result="BackgroundImageFix"/>
<feBlend mode="normal" in="SourceGraphic" in2="BackgroundImageFix" result="shape"/>
<feGaussianBlur stdDeviation="15.3" result="effect1_foregroundBlur_395_3672"/>
</filter>
<filter id="filter3_f_395_3672" x="130.464" y="73.4" width="129.073" height="127.2" filterUnits="userSpaceOnUse" color-interpolation-filters="sRGB">
<feFlood flood-opacity="0" result="BackgroundImageFix"/>
<feBlend mode="normal" in="SourceGraphic" in2="BackgroundImageFix" result="shape"/>
<feGaussianBlur stdDeviation="3.8" result="effect1_foregroundBlur_395_3672"/>
</filter>
<filter id="filter4_d_395_3672" x="166.5" y="101" width="62" height="62.5" filterUnits="userSpaceOnUse" color-interpolation-filters="sRGB">
<feFlood flood-opacity="0" result="BackgroundImageFix"/>
<feColorMatrix in="SourceAlpha" type="matrix" values="0 0 0 0 0 0 0 0 0 0 0 0 0 0 0 0 0 0 127 0" result="hardAlpha"/>
<feOffset dy="4"/>
<feGaussianBlur stdDeviation="1.75"/>
<feComposite in2="hardAlpha" operator="out"/>
<feColorMatrix type="matrix" values="0 0 0 0 0 0 0 0 0 0 0 0 0 0 0 0 0 0 1 0"/>
<feBlend mode="normal" in2="BackgroundImageFix" result="effect1_dropShadow_395_3672"/>
<feBlend mode="normal" in="SourceGraphic" in2="effect1_dropShadow_395_3672" result="shape"/>
</filter>
<linearGradient id="paint0_linear_395_3672" x1="197" y1="22" x2="197" y2="472" gradientUnits="userSpaceOnUse">
<stop stop-color="#FFF9D2"/>
<stop offset="1" stop-color="#99957E" stop-opacity="0"/>
</linearGradient>
<radialGradient id="paint1_radial_395_3672" cx="0" cy="0" r="1" gradientUnits="userSpaceOnUse" gradientTransform="translate(-71.5 558.5) rotate(-13.3677) scale(374.137 212.247)">
<stop stop-color="#1689B6"/>
<stop offset="1" stop-color="#16160C"/>
</radialGradient>
<radialGradient id="paint2_radial_395_3672" cx="0" cy="0" r="1" gradientUnits="userSpaceOnUse" gradientTransform="translate(-30 10) rotate(17.2717) scale(323.854 163.035)">
<stop stop-color="#1689B6"/>
<stop offset="1" stop-color="#887E45" stop-opacity="0"/>
</radialGradient>
<radialGradient id="paint3_radial_395_3672" cx="0" cy="0" r="1" gradientUnits="userSpaceOnUse" gradientTransform="translate(561.5 214.5) rotate(163.61) scale(301.241 205.064)">
<stop stop-color="#1689B6"/>
<stop offset="1" stop-color="#887E45" stop-opacity="0"/>
</radialGradient>
<radialGradient id="paint4_radial_395_3672" cx="0" cy="0" r="1" gradientUnits="userSpaceOnUse" gradientTransform="translate(197 -4.99999) rotate(-0.0529539) scale(541 98.1865)">
<stop offset="0.13" stop-color="#1689B6"/>
<stop offset="1" stop-color="#BDB88F" stop-opacity="0"/>
</radialGradient>
<radialGradient id="paint5_radial_395_3672" cx="0" cy="0" r="1" gradientUnits="userSpaceOnUse" gradientTransform="translate(197 -4.99998) rotate(-0.0529538) scale(541 48.3224)">
<stop offset="0.574225" stop-color="#1689B6"/>
<stop offset="1" stop-color="#777777" stop-opacity="0"/>
</radialGradient>
<linearGradient id="paint6_linear_395_3672" x1="197" y1="31" x2="197" y2="472" gradientUnits="userSpaceOnUse">
<stop stop-color="#145169"/>
<stop offset="1" stop-color="#6E828B" stop-opacity="0.23"/>
</linearGradient>
<linearGradient id="paint7_linear_395_3672" x1="372" y1="203.5" x2="22" y2="203" gradientUnits="userSpaceOnUse">
<stop stop-color="#565446"/>
<stop offset="0.5" stop-color="#1689B6"/>
<stop offset="1" stop-color="#545144"/>
</linearGradient>
<linearGradient id="paint8_linear_395_3672" x1="201" y1="72" x2="201" y2="293" gradientUnits="userSpaceOnUse">
<stop stop-opacity="0"/>
<stop offset="0.783896" stop-color="#666666"/>
</linearGradient>
<linearGradient id="paint9_linear_395_3672" x1="194.822" y1="81" x2="196.37" y2="224.985" gradientUnits="userSpaceOnUse">
<stop stop-color="#FFF0C7" stop-opacity="0"/>
<stop offset="0.404705" stop-color="#999077" stop-opacity="0"/>
<stop offset="1" stop-color="#1689B6"/>
</linearGradient>
<linearGradient id="paint10_linear_395_3672" x1="178.382" y1="138.615" x2="215.549" y2="138.615" gradientUnits="userSpaceOnUse">
<stop/>
<stop offset="0.5" stop-color="#1689B6"/>
<stop offset="1"/>
</linearGradient>
<radialGradient id="paint11_radial_395_3672" cx="0" cy="0" r="1" gradientUnits="userSpaceOnUse" gradientTransform="translate(192.856 216.769) rotate(-0.843211) scale(83.6329 32.7731)">
<stop stop-color="#1689B6"/>
<stop offset="1" stop-color="#0B0B0B"/>
</radialGradient>
<radialGradient id="paint12_radial_395_3672" cx="0" cy="0" r="1" gradientUnits="userSpaceOnUse" gradientTransform="translate(198.574 202) scale(98.8119 31.5774)">
<stop stop-color="#FFFEDB"/>
<stop offset="1" stop-color="#F6FFC1" stop-opacity="0"/>
</radialGradient>
<linearGradient id="paint13_linear_395_3672" x1="197.502" y1="169.385" x2="201.72" y2="111.821" gradientUnits="userSpaceOnUse">
<stop stop-opacity="0"/>
<stop offset="1"/>
</linearGradient>
<linearGradient id="paint14_linear_395_3672" x1="199.288" y1="217.385" x2="205.634" y2="82.2728" gradientUnits="userSpaceOnUse">
<stop stop-color="white"/>
<stop offset="1" stop-color="#4B4B4B" stop-opacity="0.1"/>
</linearGradient>
<radialGradient id="paint15_radial_395_3672" cx="0" cy="0" r="1" gradientUnits="userSpaceOnUse" gradientTransform="translate(195 128.5) rotate(1.62498) scale(70.5284 75.6245)">
<stop stop-color="#FFF7C7" stop-opacity="0.81"/>
<stop offset="1" stop-opacity="0"/>
</radialGradient>
<radialGradient id="paint16_radial_395_3672" cx="0" cy="0" r="1" gradientUnits="userSpaceOnUse" gradientTransform="translate(198.339 173) rotate(-88.9187) scale(102.429 80.1123)">
<stop offset="0.00877352" stop-color="#FFF6C5"/>
<stop offset="0.395" stop-color="#D2CCA5" stop-opacity="0.544614"/>
<stop offset="0.791025" stop-color="#9D9D9D" stop-opacity="0"/>
</radialGradient>
<linearGradient id="paint17_linear_395_3672" x1="198" y1="79" x2="198" y2="147" gradientUnits="userSpaceOnUse">
<stop stop-color="white" stop-opacity="0"/>
<stop offset="1" stop-color="#B3DDEB"/>
</linearGradient>
<linearGradient id="paint18_linear_395_3672" x1="198" y1="144" x2="196.5" y2="160" gradientUnits="userSpaceOnUse">
<stop stop-color="white" stop-opacity="0"/>
<stop offset="1" stop-color="white"/>
</linearGradient>
</defs>
</svg>
