<svg width="145" height="40" viewBox="0 0 145 40" fill="none" xmlns="http://www.w3.org/2000/svg">
<path d="M15.2578 28.9277C15.26 28.9304 15.2624 28.9329 15.2646 28.9356C15.2624 28.9329 15.2602 28.9302 15.2578 28.9277Z" fill="#046299"/>
<path d="M15.6133 29.3984C15.6154 29.4017 15.6173 29.4046 15.6195 29.4079C15.6173 29.4046 15.6152 29.4014 15.6133 29.3984Z" fill="#046299"/>
<path d="M15.8555 29.8223C15.8579 29.8272 15.8604 29.8323 15.8626 29.8372C15.8602 29.8323 15.8579 29.8272 15.8555 29.8223Z" fill="#046299"/>
<path d="M14.8398 28.5156C14.8403 28.5164 14.8408 28.5169 14.8416 28.5176C14.8463 28.5216 14.8512 28.5256 14.8559 28.5298C14.8502 28.5251 14.845 28.5201 14.8398 28.5156Z" fill="#046299"/>
<path d="M14.9766 28.6367C14.9944 28.6534 15.0124 28.6701 15.03 28.6871C15.0124 28.6704 14.9944 28.6534 14.9766 28.6367Z" fill="#046299"/>
<path d="M15.2712 28.943C15.269 28.9405 15.267 28.9378 15.2648 28.9354C15.2628 28.9329 15.2606 28.9307 15.2586 28.9283C15.2447 28.9125 15.2306 28.8973 15.2168 28.8818C15.2351 28.9022 15.2534 28.9224 15.2712 28.943Z" fill="#046299"/>
<path d="M15.1387 28.7979C15.1567 28.8168 15.1748 28.8357 15.1926 28.8551C15.175 28.8359 15.157 28.817 15.1387 28.7979Z" fill="#046299"/>
<path d="M1.00272 39.6094C1.00223 39.6248 1.00124 39.6398 1 39.6551C1 39.6553 1 39.6558 1 39.656C1.00124 39.6408 1.00223 39.6251 1.00272 39.6094Z" fill="#111111"/>
<path d="M6.71853 39.7441C6.71828 39.7546 6.71729 39.7648 6.7168 39.7752C6.7168 39.7767 6.71704 39.7779 6.71704 39.7792C6.71779 39.7675 6.71803 39.7558 6.71853 39.7441Z" fill="#111111"/>
<path d="M27.834 19.083C27.8664 19.1073 27.8973 19.1329 27.9267 19.1592C27.8973 19.1329 27.8664 19.1076 27.834 19.083Z" fill="#111111"/>
<path d="M27.6836 18.9824C27.7222 19.005 27.7595 19.0288 27.7951 19.0539C27.7592 19.0288 27.7222 19.005 27.6836 18.9824Z" fill="#111111"/>
<path d="M23.4824 25.2339H24.2056L24.2046 25.2314H23.4837L23.4824 25.2339Z" fill="#111111"/>
<path d="M32.2544 14.4363L18.2652 0.402344L11.4648 7.22427V10.071L18.265 3.24911L27.2205 12.2276C27.0761 12.1765 26.9221 12.1335 26.7584 12.0987L18.265 3.5839L26.7584 12.1043C26.5898 12.0446 26.4079 11.996 26.213 11.9587L26.7584 12.5059C26.3124 12.3477 25.774 12.2669 25.147 12.2669H19.9266C19.7091 12.2669 19.5785 12.3526 19.5785 12.541V24.9607C19.5785 25.1319 19.7091 25.2348 19.9266 25.2348H22.3404V25.225H22.735V25.2348H23.1063L23.6754 23.906H24.0213L24.5904 25.2348H25.0323V23.9183H25.4073V25.2299C27.2853 25.1589 28.3007 24.3086 28.3007 22.768V20.3523C28.3007 19.7186 27.7135 19.2389 26.9303 19.136V19.1016C27.1612 19.0714 27.3748 19.008 27.5614 18.9179C27.3748 18.8277 27.1612 18.7646 26.9303 18.7342V18.6998C27.1315 18.6735 27.3194 18.6219 27.488 18.5497C27.3194 18.4772 27.1313 18.4259 26.9303 18.3996V18.3652C27.7132 18.2626 28.3007 17.7829 28.3007 17.1489V14.7332C28.3007 14.4473 28.2651 14.1857 28.1961 13.9477L28.2873 14.0393C28.2713 13.8649 28.2408 13.7004 28.1961 13.5461L29.4167 14.7705L28.2794 13.6296C28.2621 13.483 28.2344 13.3435 28.1961 13.2116L29.4167 14.436H32.2544V14.4363ZM25.4078 20.5329V22.6229V23.0245C25.4078 23.487 25.1032 23.7097 24.5378 23.7097H22.4V23.3082V20.187C22.267 20.3179 22.1278 20.4548 21.9816 20.5977C21.9433 20.6353 21.9043 20.6734 21.865 20.7117C21.8558 20.7205 21.8474 20.7289 21.8392 20.737C21.8363 20.7399 21.8333 20.7429 21.8306 20.7458C21.8259 20.7505 21.8214 20.7549 21.8172 20.7593C21.8143 20.7625 21.8111 20.7657 21.8081 20.7687C21.8044 20.7726 21.8012 20.776 21.7977 20.7795C21.7952 20.7822 21.7925 20.7849 21.7903 20.7873C21.7616 20.8185 21.7505 20.835 21.7574 20.8365C21.7581 20.8367 21.7589 20.8372 21.7591 20.8382C21.7861 20.9187 21.8024 21.0013 21.8088 21.085C21.8098 21.0988 21.8108 21.1125 21.8113 21.1263C21.8113 21.128 21.8113 21.1297 21.8115 21.1314C21.8115 21.1317 21.8115 21.1319 21.8115 21.1322C21.8115 21.1337 21.8115 21.1349 21.8115 21.1364C21.812 21.1506 21.8123 21.1651 21.812 21.1796C21.812 21.1845 21.8118 21.1897 21.8115 21.1948C21.8115 21.1978 21.8113 21.201 21.8113 21.2039C21.8111 21.2123 21.8108 21.2206 21.8103 21.229C21.8093 21.2459 21.8081 21.2631 21.8064 21.28C21.8064 21.2803 21.8064 21.2805 21.8064 21.2808C21.8036 21.3073 21.7591 21.3717 21.6731 21.4734C21.6667 21.481 21.66 21.4881 21.6531 21.4952C21.6254 21.5235 21.5927 21.548 21.5557 21.5691C21.5371 21.5797 21.5173 21.5893 21.4966 21.5979C21.4862 21.6023 21.4753 21.6062 21.4644 21.6102C21.4076 21.6301 21.35 21.6401 21.2914 21.6401C21.2679 21.6401 21.2444 21.6387 21.2207 21.6355C21.2088 21.634 21.1969 21.632 21.1848 21.6296C21.0669 21.6062 20.9658 21.547 20.8817 21.4517C20.8815 21.4512 20.881 21.451 20.8807 21.4505C20.8745 21.4434 20.8686 21.4363 20.8629 21.4291C20.8609 21.4267 20.8595 21.4245 20.8575 21.422C20.8533 21.4166 20.8493 21.4112 20.8454 21.4058C20.8436 21.4031 20.8419 21.4004 20.8402 21.3979C20.8365 21.3925 20.833 21.3871 20.8295 21.3817C20.8281 21.3793 20.8266 21.3766 20.8251 21.3741C20.8216 21.3685 20.8184 21.3628 20.8152 21.3569C20.814 21.3545 20.8127 21.352 20.8115 21.3498C20.8083 21.3439 20.8053 21.3378 20.8023 21.3316C20.8014 21.3294 20.8004 21.3275 20.7994 21.3252C20.7964 21.3189 20.7937 21.3122 20.791 21.3058C20.7902 21.3039 20.7895 21.3022 20.7887 21.3002C20.786 21.2933 20.7836 21.2864 20.7811 21.2796C20.7806 21.2781 20.7801 21.2764 20.7796 21.2749C20.7771 21.2675 20.7749 21.2602 20.7729 21.2528C20.7727 21.2516 20.7724 21.2503 20.7719 21.2491C20.77 21.2412 20.768 21.2336 20.7662 21.2258C20.766 21.2248 20.766 21.224 20.7658 21.2231C20.764 21.215 20.7625 21.2066 20.7611 21.1985C20.7611 21.1978 20.7608 21.1973 20.7608 21.1965C20.7596 21.1879 20.7583 21.1796 20.7573 21.171C20.7573 21.1705 20.7573 21.1703 20.7573 21.1698C20.7564 21.1609 20.7556 21.1521 20.7554 21.1432C20.7554 21.143 20.7554 21.143 20.7554 21.1427C20.7546 21.1305 20.7546 21.1179 20.7549 21.1057C20.7549 21.1057 20.7549 21.1057 20.7549 21.1054C20.7554 21.0804 20.7578 21.0555 20.7618 21.0307C20.762 21.03 20.762 21.0293 20.7623 21.0285C20.7665 21.0042 20.7722 20.9801 20.7798 20.9566C20.7801 20.9556 20.7803 20.9548 20.7808 20.9539C20.7843 20.9431 20.7882 20.9325 20.7922 20.9222C20.7927 20.9209 20.7932 20.9197 20.7937 20.9182C20.7984 20.9069 20.8033 20.8956 20.8088 20.8846C20.8088 20.8843 20.809 20.8841 20.809 20.8839C20.814 20.8735 20.8194 20.8635 20.8253 20.8536C20.8266 20.8514 20.8278 20.8495 20.829 20.8475C20.835 20.8377 20.8409 20.8279 20.8476 20.8183C20.8478 20.818 20.8478 20.8178 20.8481 20.8173C20.8548 20.8075 20.8619 20.7979 20.8693 20.7886C20.8711 20.7863 20.8728 20.7844 20.8745 20.7822C20.8807 20.7746 20.8871 20.7672 20.8936 20.7601C20.8953 20.7581 20.897 20.7564 20.8988 20.7544C20.9069 20.7458 20.9153 20.7375 20.924 20.7294C20.9257 20.7279 20.9274 20.7262 20.9292 20.7247C20.9366 20.7181 20.944 20.7117 20.9517 20.7053C20.9541 20.7031 20.9569 20.7011 20.9596 20.6991C20.9692 20.6918 20.9791 20.6844 20.9893 20.6775C21.1618 20.5614 21.3987 20.5564 21.5779 20.6711C21.5799 20.6724 21.5824 20.6731 21.5846 20.6729C21.5868 20.6726 21.589 20.6716 21.5908 20.6699L22.3995 19.8699V19.8476V19.513H24.5373C25.1245 19.513 25.4073 19.7528 25.4073 20.1983V20.5329H25.4078ZM25.4078 14.8116V16.9185V17.3201C25.4078 17.7485 25.1032 17.9882 24.5378 17.9882H22.4V17.9565C22.2615 18.0926 22.1186 18.2328 21.9703 18.378C21.9169 18.4303 21.8627 18.4834 21.8078 18.5367C21.795 18.5492 21.7834 18.5608 21.7722 18.5718C21.768 18.576 21.7641 18.5799 21.7601 18.5841C21.7537 18.5907 21.7475 18.5969 21.7416 18.603C21.7374 18.6074 21.7329 18.6118 21.729 18.616C21.7238 18.6214 21.7191 18.6263 21.7146 18.6312C21.7112 18.6349 21.7075 18.6389 21.7042 18.6421C21.6644 18.6855 21.6489 18.7084 21.6585 18.7103C21.6597 18.7106 21.6607 18.7116 21.661 18.7128C21.6983 18.825 21.7211 18.9398 21.7302 19.0564C21.7317 19.0756 21.7329 19.0945 21.7337 19.1137C21.7337 19.1161 21.7337 19.1183 21.7339 19.1208C21.7339 19.121 21.7339 19.1213 21.7339 19.1218C21.7339 19.1237 21.7339 19.1257 21.7342 19.1277C21.7347 19.1475 21.7352 19.1677 21.7349 19.1878C21.7349 19.1947 21.7344 19.2018 21.7344 19.209C21.7344 19.2131 21.7342 19.2173 21.7342 19.2215C21.7337 19.233 21.7337 19.2448 21.7329 19.2564C21.7317 19.2799 21.73 19.3038 21.7275 19.3276C21.7275 19.3278 21.7275 19.3283 21.7275 19.3286C21.7238 19.3657 21.6617 19.4548 21.5421 19.5968C21.5332 19.6074 21.524 19.6174 21.5144 19.6273C21.4758 19.6665 21.4306 19.7009 21.3789 19.7302C21.3532 19.7447 21.3255 19.7582 21.2966 19.7702C21.282 19.7763 21.2671 19.782 21.2518 19.7874C21.1727 19.8152 21.0926 19.8292 21.011 19.8292C20.9784 19.8292 20.9455 19.8269 20.9124 19.8225C20.8958 19.8203 20.8792 19.8176 20.8627 19.8142C20.6985 19.7817 20.5578 19.6992 20.4406 19.5666C20.4401 19.5661 20.4397 19.5654 20.4392 19.5649C20.4305 19.555 20.4221 19.5452 20.4142 19.5349C20.4117 19.5317 20.4092 19.5283 20.4068 19.5248C20.4011 19.5172 20.3954 19.5098 20.39 19.5022C20.3875 19.4985 20.385 19.4949 20.3825 19.4912C20.3776 19.4838 20.3724 19.4762 20.3677 19.4686C20.3655 19.4651 20.3637 19.4615 20.3615 19.458C20.3568 19.4502 20.3521 19.442 20.3477 19.4342C20.346 19.4307 20.3442 19.4276 20.3425 19.4241C20.338 19.4158 20.3338 19.4074 20.3299 19.3988C20.3284 19.3959 20.3272 19.3929 20.3259 19.39C20.322 19.3809 20.3178 19.372 20.3143 19.363C20.3133 19.3603 20.3123 19.3578 20.3113 19.3551C20.3076 19.3455 20.3039 19.3359 20.3007 19.3264C20.3 19.3242 20.2995 19.3222 20.2987 19.32C20.2953 19.3097 20.2923 19.2996 20.2893 19.2893C20.2888 19.2876 20.2886 19.2858 20.2881 19.2841C20.2851 19.2733 20.2824 19.2625 20.2802 19.2514C20.2799 19.2502 20.2797 19.249 20.2794 19.2478C20.277 19.2365 20.2747 19.2249 20.273 19.2136C20.2728 19.2126 20.2728 19.2119 20.2725 19.2109C20.2705 19.1991 20.2691 19.1873 20.2678 19.1753C20.2678 19.1748 20.2678 19.1743 20.2676 19.1736C20.2663 19.1613 20.2654 19.149 20.2646 19.1367C20.2646 19.1365 20.2646 19.1363 20.2646 19.1363C20.2636 19.1191 20.2636 19.1019 20.2639 19.0847V19.0844C20.2646 19.0495 20.2678 19.0149 20.2735 18.9805C20.2738 18.9795 20.2738 18.9783 20.274 18.9773C20.2797 18.9434 20.2879 18.91 20.2982 18.8774C20.2987 18.8761 20.299 18.8749 20.2995 18.8734C20.3044 18.8584 20.3096 18.8437 20.3155 18.8292C20.3163 18.8275 20.317 18.8258 20.3175 18.8238C20.3239 18.8081 20.3309 18.7924 20.3383 18.7771C20.3385 18.7769 20.3385 18.7764 20.3388 18.7762C20.3457 18.7619 20.3534 18.7479 20.3613 18.7342C20.363 18.7312 20.3647 18.7283 20.3665 18.7256C20.3746 18.7118 20.383 18.6983 20.3922 18.685C20.3924 18.6845 20.3927 18.6843 20.3929 18.6838C20.4023 18.6703 20.4122 18.657 20.4226 18.644C20.4251 18.6411 20.4275 18.6381 20.43 18.6352C20.4387 18.6246 20.4473 18.6145 20.4567 18.6045C20.4592 18.6018 20.4614 18.5991 20.4639 18.5966C20.4753 18.5846 20.4869 18.573 20.499 18.5617C20.5015 18.5595 20.5039 18.5573 20.5064 18.5554C20.5165 18.5463 20.5272 18.5372 20.5378 18.5286C20.5415 18.5256 20.545 18.5227 20.5487 18.52C20.562 18.5097 20.5756 18.4993 20.59 18.4898C20.8303 18.3279 21.1598 18.3213 21.4093 18.4807C21.4123 18.4826 21.4155 18.4834 21.4184 18.4829C21.4217 18.4826 21.4246 18.4812 21.4269 18.479L22.3997 17.5164V14.4625C22.1908 14.6703 21.9683 14.8907 21.9473 14.9115C21.8012 15.0555 21.6474 15.2065 21.4859 15.3645C21.4456 15.404 21.4048 15.4438 21.3636 15.4843C21.3539 15.4937 21.345 15.5025 21.3366 15.5109C21.3334 15.514 21.3304 15.517 21.3275 15.5202C21.3225 15.5251 21.3178 15.5298 21.3134 15.5344C21.3102 15.5379 21.3069 15.5411 21.304 15.5443C21.3 15.5482 21.2966 15.5521 21.2931 15.5556C21.2906 15.5583 21.2877 15.5612 21.2854 15.5639C21.2553 15.5966 21.2437 15.614 21.2511 15.6155C21.2521 15.6157 21.2528 15.6165 21.253 15.6172C21.2812 15.702 21.2985 15.7884 21.3052 15.8766C21.3065 15.8911 21.3072 15.9053 21.3079 15.9198C21.3079 15.9215 21.3079 15.9235 21.3082 15.9252C21.3082 15.9255 21.3082 15.9257 21.3082 15.926C21.3082 15.9274 21.3082 15.9289 21.3082 15.9304C21.3087 15.9454 21.3089 15.9606 21.3087 15.9758C21.3087 15.9812 21.3084 15.9864 21.3082 15.9918C21.3082 15.995 21.3079 15.9982 21.3079 16.0014C21.3077 16.0102 21.3074 16.0188 21.3069 16.0276C21.306 16.0456 21.3047 16.0633 21.3027 16.0814C21.3027 16.0817 21.3027 16.0819 21.3027 16.0822C21.3 16.1102 21.2533 16.1775 21.1628 16.2846C21.1561 16.2924 21.1492 16.3 21.1418 16.3077C21.1126 16.3374 21.0785 16.3632 21.0397 16.3853C21.0202 16.3963 20.9994 16.4064 20.9776 16.4155C20.9668 16.4202 20.9554 16.4243 20.9438 16.4285C20.8842 16.4494 20.8236 16.4599 20.762 16.4599C20.7373 16.4599 20.7126 16.4582 20.6876 16.455C20.6753 16.4533 20.6627 16.4513 20.65 16.4489C20.5262 16.4243 20.4201 16.3622 20.3316 16.262C20.3311 16.2615 20.3309 16.261 20.3306 16.2607C20.3242 16.2534 20.3178 16.2458 20.3118 16.2381C20.3099 16.2357 20.3081 16.2332 20.3061 16.2305C20.3019 16.2249 20.2975 16.2192 20.2935 16.2133C20.2916 16.2106 20.2898 16.2077 20.2881 16.205C20.2844 16.1993 20.2804 16.1937 20.277 16.188C20.2752 16.1853 20.274 16.1826 20.2723 16.1802C20.2688 16.1743 20.2651 16.1681 20.2619 16.1622C20.2604 16.1598 20.2594 16.1571 20.2579 16.1546C20.2547 16.1482 20.2513 16.1421 20.2483 16.1355C20.2473 16.1333 20.2463 16.1311 20.2453 16.1286C20.2424 16.1217 20.2391 16.1151 20.2364 16.1082C20.2357 16.1062 20.2349 16.1043 20.2342 16.1023C20.2315 16.0952 20.2288 16.0878 20.2263 16.0805C20.2258 16.0787 20.2253 16.0773 20.2248 16.0755C20.2223 16.0679 20.2199 16.0601 20.2176 16.0522C20.2174 16.051 20.2169 16.0498 20.2166 16.0485C20.2144 16.0404 20.2124 16.0321 20.2107 16.024C20.2105 16.023 20.2105 16.022 20.2102 16.021C20.2085 16.0124 20.2068 16.0038 20.2053 15.9952C20.2053 15.9945 20.205 15.994 20.205 15.9933C20.2035 15.9844 20.2023 15.9753 20.2016 15.9665C20.2016 15.966 20.2016 15.9657 20.2016 15.9653C20.2006 15.9559 20.1998 15.9468 20.1993 15.9375C20.1993 15.9373 20.1993 15.9373 20.1993 15.937C20.1986 15.924 20.1986 15.911 20.1988 15.898C20.1988 15.898 20.1988 15.898 20.1988 15.8977C20.1993 15.8714 20.2018 15.8454 20.2063 15.8194C20.2065 15.8186 20.2065 15.8179 20.2068 15.8169C20.2112 15.7914 20.2171 15.7661 20.2251 15.7415C20.2253 15.7405 20.2258 15.7395 20.226 15.7385C20.2297 15.7272 20.2337 15.7162 20.2382 15.7051C20.2387 15.7039 20.2391 15.7024 20.2396 15.7012C20.2446 15.6894 20.2498 15.6776 20.2555 15.6658C20.2557 15.6656 20.2557 15.6654 20.256 15.6651C20.2612 15.6543 20.2671 15.6437 20.273 15.6334C20.2743 15.6312 20.2755 15.629 20.2767 15.6268C20.2829 15.6165 20.2893 15.6062 20.2963 15.5963C20.2965 15.5961 20.2968 15.5956 20.2968 15.5953C20.3039 15.585 20.3113 15.5752 20.319 15.5654C20.3207 15.5632 20.3227 15.561 20.3244 15.5585C20.3309 15.5506 20.3375 15.5428 20.3445 15.5354C20.3462 15.5335 20.3479 15.5315 20.3499 15.5295C20.3583 15.5204 20.3672 15.5116 20.3764 15.5032C20.3781 15.5015 20.3801 15.5 20.3818 15.4983C20.3895 15.4915 20.3974 15.4846 20.4055 15.4782C20.4083 15.476 20.411 15.4738 20.4137 15.4716C20.4238 15.4637 20.4342 15.4561 20.4448 15.449C20.6263 15.3269 20.8748 15.3217 21.0629 15.4421C21.0652 15.4436 21.0676 15.444 21.0698 15.4438C21.0723 15.4436 21.0745 15.4426 21.0763 15.4409L22.4 14.1324V14.1268V13.7922H24.5378C25.125 13.7922 25.4078 14.032 25.4078 14.4775V14.8116Z" fill="#111111"/>
<path d="M26.1973 11.9551C26.2027 11.9561 26.2079 11.9573 26.2131 11.9583L26.2128 11.9581C26.2079 11.9568 26.2025 11.9561 26.1973 11.9551Z" fill="#111111"/>
<path d="M26.1965 11.9549C26.1646 11.9487 26.1322 11.943 26.0996 11.9375C26.1325 11.943 26.1646 11.9489 26.1965 11.9549Z" fill="#111111"/>
<path d="M23.6172 24.903H24.0701L23.8437 24.3535L23.6172 24.903Z" fill="#111111"/>
<path d="M28.2891 14.041C28.2925 14.0784 28.2952 14.1162 28.2972 14.1545C28.295 14.1162 28.2925 14.0784 28.2891 14.041Z" fill="#111111"/>
<path d="M27.791 18.382C27.8224 18.3601 27.8523 18.3373 27.8813 18.3135C27.8526 18.3373 27.8224 18.3601 27.791 18.382Z" fill="#111111"/>
<path d="M15.7441 29.6104C15.7835 29.6796 15.821 29.7501 15.8566 29.8223C15.821 29.7504 15.7835 29.6796 15.7441 29.6104Z" fill="#0D72B9"/>
<path d="M10.1211 36.5029C10.1945 36.5275 10.2692 36.5503 10.3451 36.5715C10.2694 36.5503 10.1948 36.5275 10.1211 36.5029Z" fill="#0D72B9"/>
<path d="M10.1201 36.5025C10.0403 36.4759 9.9619 36.4474 9.88477 36.417C9.9619 36.4474 10.0405 36.4759 10.1201 36.5025Z" fill="#0D72B9"/>
<path d="M8.21289 35.2129C8.23193 35.236 8.25121 35.2586 8.27074 35.2812C8.27099 35.2814 8.27124 35.2814 8.27124 35.2817C8.25171 35.2591 8.23217 35.2362 8.21289 35.2129Z" fill="#0D72B9"/>
<path d="M8.70312 35.7109L8.70337 35.7112C8.80672 35.7994 8.91476 35.8826 9.02725 35.9607C8.91476 35.8826 8.80672 35.7994 8.70312 35.7109Z" fill="#0D72B9"/>
<path d="M9.0293 35.9609C9.06712 35.9872 9.1052 36.0128 9.14401 36.0376C9.1052 36.0125 9.06688 35.987 9.0293 35.9609Z" fill="#0D72B9"/>
<path d="M8.70638 35.7138C8.70584 35.7133 8.7053 35.7127 8.70503 35.7122C8.70179 35.7095 8.69855 35.7068 8.69531 35.7041C8.69882 35.7071 8.7026 35.7106 8.70638 35.7138Z" fill="#0D72B9"/>
<path d="M8.66797 35.6797C8.67712 35.6879 8.68626 35.6961 8.69566 35.7043C8.69393 35.7025 8.69195 35.7011 8.68997 35.6993C8.6828 35.6929 8.67539 35.6861 8.66797 35.6797Z" fill="#0D72B9"/>
<path d="M8.32914 35.3475C8.33705 35.356 8.34471 35.3649 8.35263 35.3735C8.35658 35.3779 8.36078 35.3823 8.36499 35.3865C8.33878 35.3583 8.31257 35.3298 8.28711 35.3008C8.30095 35.3165 8.31505 35.332 8.32914 35.3475Z" fill="#0D72B9"/>
<path d="M8.45703 35.4814C8.47112 35.4959 8.48546 35.5103 8.4998 35.5247C8.4956 35.5205 8.49164 35.5165 8.48744 35.5123C8.4773 35.5021 8.46717 35.4916 8.45703 35.4814Z" fill="#0D72B9"/>
<path d="M8.40405 35.4282C8.39095 35.4145 8.37809 35.4006 8.36523 35.3867C8.37809 35.4006 8.39095 35.4143 8.40405 35.4282Z" fill="#0D72B9"/>
<path d="M8.40726 35.4309C8.41616 35.44 8.42482 35.4493 8.43372 35.4584C8.44138 35.4663 8.44929 35.4739 8.45696 35.4818C8.43916 35.4638 8.4216 35.4459 8.4043 35.4277C8.40529 35.4287 8.40627 35.4297 8.40726 35.4309Z" fill="#0D72B9"/>
<path d="M8.55664 35.5791C8.56999 35.5918 8.5831 35.6044 8.59669 35.6169C8.58779 35.6084 8.57889 35.6 8.56999 35.5918C8.56554 35.5875 8.56109 35.5833 8.55664 35.5791Z" fill="#0D72B9"/>
<path d="M8.51681 35.5411C8.52992 35.5539 8.54351 35.5664 8.55686 35.5789C8.53783 35.561 8.51879 35.5428 8.5 35.5244C8.50544 35.5298 8.51113 35.5355 8.51681 35.5411Z" fill="#0D72B9"/>
<path d="M14.8418 28.5156C14.8423 28.5162 14.8429 28.5167 14.8431 28.5172C14.8464 28.5199 14.8496 28.5226 14.8529 28.5253C14.8491 28.5221 14.8456 28.5189 14.8418 28.5156Z" fill="#0D72B9"/>
<path d="M14.8437 28.5174L14.8434 28.5171C14.7401 28.429 14.632 28.3454 14.5195 28.2676C14.632 28.3454 14.7403 28.429 14.8437 28.5174Z" fill="#0D72B9"/>
<path d="M14.8812 28.549C14.8718 28.5408 14.8627 28.5324 14.8535 28.5244C14.8555 28.5262 14.8572 28.5276 14.8592 28.5294C14.8664 28.5358 14.8738 28.5423 14.8812 28.549Z" fill="#0D72B9"/>
<path d="M14.9915 28.6503C14.9781 28.6376 14.9648 28.6247 14.9512 28.6123C14.9601 28.6208 14.969 28.6292 14.9779 28.6374C14.9823 28.6419 14.9868 28.6461 14.9915 28.6503Z" fill="#0D72B9"/>
<path d="M15.0916 28.7473C15.0775 28.7329 15.0632 28.7183 15.0488 28.7041C15.053 28.7083 15.057 28.7123 15.0612 28.7165C15.0713 28.7267 15.0815 28.7369 15.0916 28.7473Z" fill="#0D72B9"/>
<path d="M14.519 28.268C14.4812 28.242 14.4431 28.2162 14.4043 28.1914C14.4429 28.2165 14.4812 28.242 14.519 28.268Z" fill="#0D72B9"/>
<path d="M15.1445 28.8008C15.1576 28.8147 15.1705 28.8284 15.1833 28.8425C15.1705 28.8284 15.1574 28.8144 15.1445 28.8008Z" fill="#0D72B9"/>
<path d="M14.9464 28.607C14.9288 28.5911 14.911 28.5754 14.8932 28.5596C14.889 28.5559 14.8851 28.5525 14.8809 28.5488C14.9046 28.5697 14.9283 28.5906 14.9516 28.612C14.9498 28.6102 14.9481 28.6088 14.9464 28.607Z" fill="#0D72B9"/>
<path d="M16.0713 30.3411C16.0633 30.3322 16.0557 30.3234 16.0475 30.3148C16.0436 30.3104 16.0394 30.3062 16.0352 30.3018C16.0614 30.33 16.0876 30.3585 16.113 30.3875C16.0994 30.372 16.0853 30.3565 16.0713 30.3411Z" fill="#0D72B9"/>
<path d="M8.27148 35.2822C8.27496 35.2862 8.27819 35.2901 8.28167 35.2938C8.27943 35.2914 8.27744 35.2889 8.27546 35.2864C8.27397 35.2849 8.27273 35.2837 8.27148 35.2822Z" fill="#0D72B9"/>
<path d="M7.8039 34.619C7.76459 34.5497 7.72701 34.4792 7.69141 34.4072C7.72726 34.4792 7.76459 34.5497 7.8039 34.619Z" fill="#0D72B9"/>
<path d="M7.92781 34.8213C7.88504 34.755 7.844 34.6872 7.80469 34.6182C7.844 34.6874 7.88504 34.7552 7.92781 34.8213Z" fill="#0D72B9"/>
<path d="M36.5676 31.2805V31.2803H32.5357L32.1016 31.7128L32.5434 31.2815L36.5676 31.2805Z" fill="#0D72B9"/>
<path d="M15.8377 18.1881C15.6647 18.3585 15.4827 18.5373 15.2916 18.7242C15.2439 18.7709 15.1954 18.8183 15.1465 18.8662C15.1351 18.8773 15.1247 18.8876 15.1146 18.8977C15.1109 18.9013 15.1072 18.905 15.1037 18.9085C15.098 18.9144 15.0923 18.92 15.0871 18.9252C15.0832 18.9291 15.0795 18.933 15.076 18.9367C15.0713 18.9414 15.0674 18.9458 15.0632 18.9502C15.0602 18.9534 15.0567 18.9569 15.054 18.96C15.0184 18.9989 15.0046 19.0192 15.0132 19.0212C15.0142 19.0215 15.0152 19.0222 15.0154 19.0234C15.0488 19.1236 15.0691 19.2261 15.0772 19.3304C15.0785 19.3474 15.0797 19.3646 15.0805 19.3818C15.0805 19.384 15.0805 19.386 15.0807 19.3882C15.0807 19.3884 15.0807 19.3887 15.0807 19.3889C15.0807 19.3906 15.0807 19.3923 15.081 19.3941C15.0814 19.412 15.0817 19.4297 15.0817 19.4479C15.0817 19.454 15.0814 19.4604 15.0812 19.4668C15.0812 19.4704 15.081 19.4744 15.081 19.4781C15.0807 19.4884 15.0805 19.4989 15.0797 19.5093C15.0785 19.5304 15.077 19.5515 15.0748 19.5729C15.0748 19.5731 15.0748 19.5736 15.0748 19.5739C15.0713 19.607 15.0162 19.6868 14.9089 19.8133C14.901 19.8227 14.8928 19.8318 14.8842 19.8406C14.8495 19.8757 14.8092 19.9064 14.763 19.9325C14.74 19.9455 14.7153 19.9575 14.6893 19.9683C14.6762 19.9737 14.6629 19.9789 14.6493 19.9838C14.5788 20.0086 14.5069 20.0211 14.4339 20.0211C14.4048 20.0211 14.3753 20.0192 14.3459 20.0152C14.3311 20.0133 14.3163 20.0108 14.3014 20.0079C14.2703 20.0017 14.2401 19.9931 14.2109 19.9828V24.9601C14.2109 25.1313 14.3415 25.2342 14.559 25.2342H16.5616C16.8227 25.2342 16.9315 25.1316 16.9315 24.9601V19.6834C16.889 19.7261 16.8583 19.7568 16.844 19.7711C16.706 19.9069 16.5609 20.0494 16.4086 20.1985C16.3705 20.2358 16.332 20.2734 16.2929 20.3115C16.2837 20.3203 16.2753 20.3287 16.2674 20.3365C16.2645 20.3395 16.2615 20.3424 16.2588 20.3451C16.2541 20.3498 16.2496 20.3542 16.2457 20.3586C16.2427 20.3618 16.2395 20.365 16.2368 20.368C16.2331 20.3716 16.2298 20.3753 16.2266 20.3788C16.2242 20.3815 16.2214 20.3842 16.2192 20.3866C16.1908 20.4176 16.1799 20.4338 16.1866 20.4353C16.1873 20.4355 16.1881 20.436 16.1883 20.437C16.215 20.5168 16.2311 20.5986 16.2378 20.6816C16.2387 20.6951 16.2397 20.7089 16.2402 20.7224C16.2402 20.7241 16.2402 20.7258 16.2405 20.7275C16.2405 20.7278 16.2405 20.728 16.2405 20.7283C16.2405 20.7298 16.2405 20.731 16.2405 20.7325C16.241 20.7467 16.2412 20.761 16.241 20.7752C16.241 20.7801 16.2407 20.7853 16.2405 20.7902C16.2405 20.7931 16.2402 20.7961 16.2402 20.7993C16.24 20.8076 16.2397 20.8157 16.2392 20.8241C16.2382 20.841 16.237 20.8577 16.2353 20.8747C16.2353 20.8749 16.2353 20.8752 16.2353 20.8754C16.2326 20.9017 16.1886 20.9653 16.1033 21.0663C16.0971 21.0736 16.0904 21.081 16.0835 21.0879C16.056 21.1159 16.0239 21.1404 15.9871 21.1611C15.9688 21.1714 15.9492 21.181 15.9285 21.1896C15.9181 21.194 15.9075 21.1979 15.8966 21.2018C15.8402 21.2217 15.7831 21.2316 15.725 21.2316C15.7018 21.2316 15.6783 21.2301 15.6548 21.2269C15.6429 21.2254 15.6313 21.2235 15.6194 21.221C15.5025 21.1979 15.4024 21.1392 15.319 21.0446C15.3188 21.0442 15.3183 21.0439 15.318 21.0434C15.3119 21.0365 15.3059 21.0294 15.3002 21.0221C15.2985 21.0198 15.2968 21.0174 15.2951 21.0149C15.2911 21.0095 15.2869 21.0044 15.2832 20.9987C15.2815 20.996 15.2797 20.9936 15.278 20.9909C15.2745 20.9855 15.2708 20.9803 15.2674 20.9749C15.2659 20.9724 15.2644 20.97 15.2629 20.9673C15.2595 20.9616 15.2562 20.956 15.253 20.9503C15.2518 20.9479 15.2506 20.9457 15.2493 20.9432C15.2461 20.9373 15.2431 20.9312 15.2402 20.9253C15.2392 20.9231 15.2382 20.9211 15.2374 20.9189C15.2345 20.9125 15.2318 20.9061 15.229 20.8997C15.2283 20.898 15.2276 20.896 15.2271 20.8941C15.2243 20.8872 15.2219 20.8803 15.2194 20.8734C15.2189 20.872 15.2184 20.8705 15.2179 20.8688C15.2154 20.8614 15.2132 20.8543 15.2112 20.8469C15.211 20.8457 15.2107 20.8445 15.2103 20.8432C15.2083 20.8356 15.2063 20.8278 15.2046 20.8199C15.2043 20.8189 15.2043 20.8182 15.2041 20.8172C15.2023 20.8091 15.2009 20.801 15.1994 20.7929C15.1994 20.7921 15.1991 20.7917 15.1991 20.7909C15.1979 20.7826 15.1967 20.774 15.1957 20.7656C15.1957 20.7651 15.1957 20.7649 15.1957 20.7644C15.1947 20.7558 15.1942 20.747 15.1937 20.7381C15.1937 20.7379 15.1937 20.7379 15.1937 20.7376C15.1929 20.7253 15.1929 20.7131 15.1932 20.7008C15.1932 20.7008 15.1932 20.7008 15.1932 20.7005C15.1937 20.6757 15.1959 20.6512 15.2001 20.6266C15.2004 20.6259 15.2004 20.6251 15.2006 20.6244C15.2048 20.6003 15.2105 20.5765 15.2179 20.5532C15.2182 20.5522 15.2184 20.5514 15.2189 20.5505C15.2224 20.5399 15.2261 20.5293 15.2303 20.519C15.2308 20.5178 15.2313 20.5166 15.2318 20.5153C15.2362 20.504 15.2412 20.493 15.2466 20.4822C15.2466 20.4819 15.2468 20.4817 15.2468 20.4814C15.2518 20.4714 15.2572 20.4613 15.2629 20.4515C15.2642 20.4495 15.2654 20.4473 15.2666 20.4453C15.2723 20.4355 15.2785 20.4259 15.2849 20.4166C15.2852 20.4163 15.2852 20.4161 15.2854 20.4156C15.2921 20.406 15.2993 20.3964 15.3064 20.3871C15.3082 20.3849 15.3099 20.3829 15.3116 20.3807C15.3178 20.3734 15.324 20.366 15.3307 20.3589C15.3324 20.3569 15.3341 20.3552 15.3358 20.3532C15.344 20.3446 15.3522 20.3363 15.3608 20.3284C15.3625 20.3269 15.3643 20.3255 15.366 20.3237C15.3732 20.3171 15.3808 20.3107 15.3885 20.3046C15.391 20.3026 15.3937 20.3004 15.3962 20.2984C15.4058 20.2911 15.4155 20.284 15.4256 20.2771C15.5967 20.1619 15.8313 20.1572 16.0091 20.2707C16.011 20.2719 16.0135 20.2727 16.0157 20.2724C16.018 20.2722 16.0202 20.2712 16.0217 20.2695L16.9315 19.3695V17.085C16.533 17.4875 15.9282 18.0989 15.8377 18.1881Z" fill="#0D72B9"/>
<path d="M16.5616 12.2658H14.559C14.3415 12.2658 14.2109 12.3685 14.2109 12.54V17.5858V17.9874H10.9512V17.5858V16.5397V12.1384V10.9216V7.33865V5.67578H8.62667H8.2306V10.0678V10.4694L4.27734 14.4354H7.11509L8.2311 13.3159V13.6504V16.5397V24.9596C8.2311 25.1308 8.33988 25.2338 8.60096 25.2338H10.6035C10.8211 25.2338 10.9517 25.1311 10.9517 24.9596V19.847V19.5125H13.7832C13.7827 19.5098 13.782 19.5073 13.7812 19.5046C13.781 19.5034 13.7807 19.5024 13.7805 19.5012C13.7783 19.4911 13.7763 19.4808 13.7748 19.4707C13.7746 19.47 13.7746 19.4692 13.7746 19.4682C13.7728 19.4577 13.7713 19.4471 13.7704 19.4366C13.7704 19.4361 13.7704 19.4356 13.7701 19.4351C13.7689 19.424 13.7681 19.4132 13.7676 19.4022C13.7676 19.4019 13.7676 19.4019 13.7676 19.4017C13.7669 19.3862 13.7666 19.371 13.7669 19.3555V19.3553C13.7676 19.3243 13.7704 19.2931 13.7755 19.2627C13.7758 19.2617 13.7758 19.2607 13.776 19.26C13.7812 19.2297 13.7884 19.1998 13.7978 19.1706C13.798 19.1693 13.7985 19.1683 13.799 19.1671C13.8035 19.1538 13.8082 19.1406 13.8134 19.1276C13.8141 19.1261 13.8146 19.1244 13.8154 19.1229C13.821 19.1089 13.8272 19.0949 13.8339 19.0811C13.8341 19.0809 13.8341 19.0807 13.8344 19.0804C13.8406 19.0676 13.8475 19.0551 13.8547 19.0428C13.8561 19.0401 13.8576 19.0377 13.8591 19.035C13.8663 19.0227 13.8739 19.0106 13.8821 18.9989C13.8824 18.9986 13.8826 18.9981 13.8828 18.9979C13.8913 18.9858 13.9002 18.9738 13.9093 18.9623C13.9115 18.9596 13.9137 18.9569 13.9157 18.9542C13.9234 18.9448 13.9313 18.9357 13.9395 18.9266C13.9417 18.9242 13.9437 18.922 13.9459 18.9195C13.956 18.9087 13.9664 18.8984 13.9773 18.8883C13.9795 18.8864 13.9817 18.8844 13.9837 18.8824C13.9929 18.8743 14.0023 18.8662 14.0119 18.8584C14.0151 18.8557 14.0183 18.8532 14.0215 18.8505C14.0334 18.8412 14.0458 18.8321 14.0584 18.8235C14.2732 18.6788 14.5674 18.6729 14.7904 18.8154C14.7929 18.8171 14.7959 18.8176 14.7986 18.8173C14.8013 18.8171 14.804 18.8159 14.8063 18.8137L16.9315 16.7111V12.54C16.9312 12.3685 16.8224 12.2658 16.5616 12.2658Z" fill="#0D72B9"/>
<path d="M16.5234 7.90227H17.989V6.78223C17.2862 6.78223 16.6953 7.25751 16.5234 7.90227Z" fill="#0D72B9"/>
<path d="M18.5449 6.78223V7.90202H20.0105C19.8384 7.25751 19.2478 6.78223 18.5449 6.78223Z" fill="#0D72B9"/>
<path d="M20.0619 8.84277H18.5449V9.94169H20.0619V8.84277Z" fill="#0D72B9"/>
<path d="M17.9877 8.84277H16.4707V9.94169H17.9877V8.84277Z" fill="#0D72B9"/>
<path d="M7.11242 14.435H4.27492L3.94141 14.7695H7.11242L8.22843 13.6502V13.3154L7.11242 14.435Z" fill="#046299"/>
<path d="M13.9224 19.7861C13.922 19.7856 13.9217 19.7851 13.9212 19.7846C13.9135 19.7758 13.9061 19.7669 13.899 19.7578C13.8967 19.7549 13.8945 19.7519 13.8923 19.749C13.8871 19.7424 13.8821 19.7355 13.8772 19.7288C13.875 19.7257 13.873 19.7222 13.8708 19.719C13.8663 19.7124 13.8619 19.7058 13.8577 19.6989C13.8557 19.6957 13.854 19.6925 13.8522 19.6895C13.848 19.6824 13.8438 19.6753 13.8399 19.6682C13.8384 19.6652 13.8369 19.6623 13.8354 19.6591C13.8315 19.6517 13.8278 19.6441 13.824 19.6365C13.8228 19.6338 13.8218 19.6311 13.8206 19.6284C13.8169 19.6203 13.8134 19.6124 13.8102 19.6043C13.8092 19.6021 13.8085 19.5996 13.8075 19.5974C13.8043 19.5888 13.8008 19.5802 13.7981 19.5716C13.7973 19.5697 13.7968 19.5677 13.7964 19.566C13.7934 19.5569 13.7904 19.5478 13.7879 19.5385C13.7875 19.537 13.7872 19.5355 13.7867 19.5341C13.7847 19.5269 13.7833 19.5198 13.7815 19.5127H10.9492V19.8472H13.983C13.9622 19.8281 13.942 19.8079 13.9224 19.7861Z" fill="#046299"/>
<path d="M16.9295 25.2945V24.96C16.9295 25.1312 16.8208 25.2341 16.5597 25.2341H14.5571C14.3395 25.2341 14.209 25.1314 14.209 24.96V25.2945C14.209 25.4657 14.3395 25.5686 14.5571 25.5686H16.5597C16.8208 25.5686 16.9295 25.4659 16.9295 25.2945Z" fill="#046299"/>
<path d="M10.6029 25.2341H8.60033C8.33925 25.2341 8.23047 25.1314 8.23047 24.96V25.2945C8.23047 25.4657 8.33925 25.5686 8.60033 25.5686H10.6029C10.8205 25.5686 10.951 25.4657 10.951 25.2945V24.96C10.9508 25.1312 10.8205 25.2341 10.6029 25.2341Z" fill="#046299"/>
<path d="M16.4727 7.99764C16.4729 7.99298 16.4734 7.98831 16.4736 7.9834C16.4734 7.98831 16.4732 7.99298 16.4727 7.99764Z" fill="#046299"/>
<path d="M17.9876 7.90234H16.522C16.5056 7.96301 16.493 8.0254 16.4844 8.08877H17.9876V7.90234Z" fill="#046299"/>
<path d="M20.0586 8.02637C20.0596 8.04725 20.0601 8.06812 20.0601 8.08925C20.0603 8.06812 20.0596 8.04725 20.0586 8.02637Z" fill="#046299"/>
<path d="M18.5449 7.90234V8.08877H20.0481C20.0397 8.02516 20.0268 7.96301 20.0105 7.90234H18.5449Z" fill="#046299"/>
<path d="M20.0619 9.94141H18.5449V10.149H20.0619V9.94141Z" fill="#046299"/>
<path d="M17.9877 9.94141H16.4707V10.149H17.9877V9.94141Z" fill="#046299"/>
<path d="M26.9297 18.3645V18.3989C27.1309 18.4252 27.3188 18.4768 27.4874 18.549C27.4874 18.549 27.4877 18.549 27.4877 18.5487C27.5156 18.5367 27.5431 18.5242 27.57 18.5109C27.573 18.5094 27.576 18.508 27.5792 18.5065C27.5913 18.5006 27.6031 18.4945 27.6148 18.4883C27.619 18.4861 27.6234 18.4836 27.6276 18.4814C27.6645 18.4615 27.7003 18.4407 27.7347 18.4188C27.7386 18.4163 27.7428 18.4136 27.7468 18.4112C27.7569 18.4046 27.7671 18.3979 27.777 18.391C27.7817 18.3879 27.7863 18.3844 27.791 18.3812C27.8224 18.3594 27.8524 18.3365 27.8813 18.3127C27.8865 18.3085 27.8917 18.3043 27.8966 18.2999C27.9045 18.293 27.9124 18.2864 27.9203 18.2793C27.9258 18.2744 27.9312 18.2695 27.9367 18.2645C27.9441 18.2577 27.9515 18.251 27.9587 18.2442C27.9695 18.2338 27.9802 18.2233 27.9906 18.2125C27.9967 18.2061 28.0029 18.1995 28.0091 18.1928C28.0148 18.1867 28.0207 18.1803 28.0262 18.1742C28.0321 18.1675 28.0378 18.1609 28.0435 18.1543C28.0494 18.1474 28.0553 18.1403 28.061 18.1331C28.066 18.127 28.0712 18.1209 28.0759 18.1147C28.0855 18.1024 28.0946 18.0902 28.1038 18.0776C28.108 18.0717 28.112 18.0658 28.1162 18.0599C28.1218 18.0516 28.1275 18.0432 28.133 18.0349C28.1369 18.0287 28.1409 18.0226 28.1448 18.0165C28.1508 18.0069 28.1565 17.9973 28.1621 17.9877C28.1651 17.9828 28.1681 17.9779 28.1708 17.973C28.1787 17.959 28.1861 17.945 28.1933 17.9307C28.196 17.9253 28.1985 17.9202 28.201 17.9148C28.2059 17.9045 28.2106 17.8944 28.2153 17.8838C28.2178 17.8782 28.2202 17.8725 28.2227 17.8669C28.2279 17.8546 28.2326 17.8423 28.2373 17.83C28.2385 17.8266 28.24 17.8234 28.2413 17.82C28.2469 17.8045 28.2519 17.7888 28.2568 17.7728C28.2583 17.7679 28.2598 17.7627 28.2613 17.7578C28.2647 17.746 28.268 17.7342 28.2709 17.7222C28.2722 17.7168 28.2736 17.7116 28.2749 17.7062C28.2783 17.6913 28.2816 17.6763 28.2843 17.6613C28.2845 17.6596 28.285 17.6579 28.2853 17.6561C28.2882 17.6394 28.2907 17.6222 28.2927 17.6053C28.2932 17.6004 28.2937 17.5952 28.2944 17.5903C28.2959 17.5775 28.2969 17.5645 28.2979 17.5515C28.2981 17.5463 28.2986 17.5412 28.2989 17.536C28.2999 17.5186 28.3003 17.5009 28.3003 17.483V17.1484C28.2999 17.7819 27.7127 18.2616 26.9297 18.3645Z" fill="#171717"/>
<path d="M23.4829 25.2344L23.3457 25.5689H24.3435L24.2061 25.2344H23.4829Z" fill="#171717"/>
<path d="M19.5781 24.96V25.2945C19.5781 25.4657 19.7087 25.5686 19.9262 25.5686H22.34V25.2341H19.9262C19.7087 25.2341 19.5781 25.1312 19.5781 24.96Z" fill="#171717"/>
<path d="M23.1057 25.2344H22.7344V25.5689H22.9623L23.1057 25.2344Z" fill="#171717"/>
<path d="M25.0338 25.2344H24.5918L24.7352 25.5689H25.0338V25.2344Z" fill="#171717"/>
<path d="M28.2996 22.7666C28.2996 24.3069 27.2845 25.1575 25.4062 25.2285V25.563C27.2842 25.492 28.2996 24.6417 28.2996 23.1011V22.7666Z" fill="#171717"/>
<path d="M26.7584 12.0976C26.9221 12.1325 27.0761 12.1755 27.2205 12.2265L18.265 3.24805L11.4648 10.07V10.4045L18.265 3.58259L26.7584 12.0976Z" fill="#171717"/>
<path d="M25.4082 14.4753C25.4082 14.03 25.1254 13.79 24.5382 13.79H22.4004V14.1246H22.4061H22.7374H24.5382C25.1254 14.1246 25.4082 14.3643 25.4082 14.8099V14.4753Z" fill="#171717"/>
<path d="M22.4004 19.5127V19.8472H24.5382C25.1254 19.8472 25.4082 20.087 25.4082 20.5325V20.198C25.4082 19.7527 25.1254 19.5127 24.5382 19.5127H22.4004Z" fill="#171717"/>
<path d="M28.3018 14.3314C28.3018 14.3007 28.3014 14.2703 28.3004 14.2403C28.3001 14.2283 28.2996 14.2162 28.2991 14.2042C28.2984 14.1872 28.2976 14.1705 28.2967 14.1538C28.2944 14.1155 28.292 14.0777 28.2885 14.0404C28.2885 14.0399 28.2885 14.0394 28.2885 14.0389L28.1973 13.9473C28.2662 14.185 28.3018 14.4469 28.3018 14.7328V14.3314Z" fill="#171717"/>
<path d="M28.2954 19.841C28.2949 19.8376 28.2946 19.8339 28.2944 19.8305C28.2924 19.8138 28.2899 19.7971 28.287 19.7806C28.2862 19.7762 28.2852 19.7718 28.2845 19.7676C28.282 19.7548 28.2796 19.742 28.2766 19.7295C28.2756 19.7246 28.2744 19.7199 28.2731 19.715C28.2692 19.6991 28.265 19.6833 28.2605 19.6676C28.2595 19.6642 28.2583 19.6607 28.2573 19.6573C28.2533 19.6448 28.2494 19.6322 28.2449 19.62C28.243 19.6146 28.241 19.6089 28.239 19.6035C28.2346 19.5917 28.2301 19.5802 28.2252 19.5686C28.2234 19.5647 28.222 19.5605 28.2202 19.5566C28.214 19.5423 28.2076 19.5283 28.2007 19.5146C28.1977 19.5087 28.1948 19.5026 28.1918 19.4967C28.1871 19.4876 28.1824 19.4787 28.1774 19.4696C28.1742 19.4635 28.1708 19.4576 28.1676 19.4515C28.1601 19.4387 28.1527 19.4259 28.1448 19.4134C28.1406 19.4068 28.1364 19.4004 28.1322 19.394C28.1275 19.3866 28.1226 19.3795 28.1176 19.3724C28.1127 19.3652 28.1077 19.3584 28.1028 19.3515C28.0978 19.3449 28.0929 19.3382 28.088 19.3318C28.0786 19.3196 28.0689 19.3075 28.059 19.2955C28.0546 19.2903 28.0504 19.2849 28.0459 19.2798C28.0392 19.2722 28.0326 19.2643 28.0256 19.2567C28.0217 19.2523 28.0177 19.2481 28.0138 19.2437C27.9896 19.2174 27.9638 19.1918 27.9369 19.1673C27.9339 19.1646 27.9307 19.1616 27.9277 19.1589C27.8983 19.1324 27.8674 19.1071 27.835 19.0828C27.8338 19.0818 27.8323 19.0808 27.8311 19.0798C27.8199 19.0715 27.8086 19.0631 27.797 19.055C27.7967 19.0548 27.7965 19.0545 27.7962 19.0545C27.7606 19.0295 27.7235 19.0057 27.6847 18.9831C27.6842 18.9828 27.6837 18.9826 27.6832 18.9821C27.6444 18.9595 27.6044 18.9381 27.5628 18.918C27.3762 19.0081 27.1626 19.0712 26.9316 19.1017V19.1361C27.7146 19.2388 28.3021 19.7185 28.3021 20.3524V19.9508C28.3021 19.9331 28.3013 19.9157 28.3006 19.8983C28.3003 19.8933 28.3001 19.8887 28.2996 19.8838C28.2981 19.869 28.2969 19.8548 28.2954 19.841Z" fill="#171717"/>
<path d="M26.2126 11.9569C26.1758 11.9497 26.1382 11.9431 26.1001 11.937C26.0907 11.9355 26.0811 11.934 26.0715 11.9323C26.0423 11.9276 26.0129 11.9232 25.9832 11.919C25.9721 11.9176 25.9609 11.9158 25.9496 11.9144C25.9192 11.9102 25.8885 11.9065 25.8576 11.9028C25.8482 11.9018 25.8388 11.9006 25.8294 11.8996C25.7488 11.8908 25.6665 11.8837 25.5822 11.878C25.5698 11.8773 25.5575 11.8765 25.5448 11.8758C25.5149 11.8741 25.4848 11.8724 25.4544 11.8711C25.44 11.8704 25.4254 11.8699 25.4109 11.8694C25.3807 11.8682 25.35 11.8675 25.3194 11.8665C25.306 11.8662 25.2927 11.8657 25.2791 11.8655C25.2353 11.8647 25.1913 11.8643 25.1466 11.8643H19.9262C19.7087 11.8643 19.5781 11.95 19.5781 12.1384V12.54C19.5781 12.3516 19.7087 12.2659 19.9262 12.2659H25.1471C25.774 12.2659 26.3125 12.3467 26.7585 12.5048L26.2126 11.9569Z" fill="#171717"/>
<path d="M32.9882 14.77L18.265 0L11.4648 6.82193V7.22353L18.265 0.401594L32.2542 14.4355H29.4167L28.1961 13.2111C28.2344 13.343 28.2619 13.4825 28.2794 13.6291L29.4167 14.77H32.5879H32.9882Z" fill="#171717"/>
<path d="M25.4082 23.0237V22.6221C25.4082 23.0846 25.1036 23.3074 24.5382 23.3074H22.4004V23.709H24.5382C25.1039 23.7087 25.4082 23.4862 25.4082 23.0237Z" fill="#171717"/>
<path d="M25.4082 16.918C25.4082 17.3463 25.1036 17.5861 24.5382 17.5861H22.7725C22.6778 17.6814 22.6093 17.7501 22.5821 17.7769C22.5225 17.8356 22.4617 17.8953 22.4004 17.9557V17.9874H24.5382C25.1036 17.9874 25.4082 17.7477 25.4082 17.3193V16.918Z" fill="#171717"/>
<path d="M14.2087 17.5859H10.9492V17.9875H14.2087V17.5859Z" fill="#1180C3"/>
<path d="M4.2748 14.436L8.22831 10.47V10.0684L3.54102 14.7706H3.94129L4.2748 14.436Z" fill="#1180C3"/>
<path d="M16.5597 11.8643H14.5571C14.3395 11.8643 14.209 11.9669 14.209 12.1384V12.54C14.209 12.3688 14.3395 12.2659 14.5571 12.2659H16.5597C16.8208 12.2659 16.9295 12.3685 16.9295 12.54V12.1384C16.9293 11.9672 16.8205 11.8643 16.5597 11.8643Z" fill="#1180C3"/>
<path d="M10.9488 5.67601V5.27441H8.62458H8.22852V5.67601H8.62458H10.9488Z" fill="#1180C3"/>
<path d="M16.4727 7.98306C16.4725 7.98773 16.472 7.9924 16.4717 7.99731C16.4712 8.00689 16.4707 8.01647 16.4702 8.02605C16.4695 8.04693 16.4688 8.0678 16.4688 8.08893H16.4826C16.491 8.02531 16.5039 7.96317 16.5202 7.9025C16.6922 7.25799 17.2829 6.7827 17.9858 6.7827V6.58203C17.1835 6.58179 16.5273 7.20026 16.4727 7.98306Z" fill="#1180C3"/>
<path d="M20.0086 7.9025C20.0249 7.96317 20.0375 8.02556 20.0461 8.08893H20.06C20.06 8.0678 20.0592 8.04693 20.0585 8.02605C20.058 8.01647 20.0578 8.00689 20.057 7.99756C20.0568 7.99264 20.0563 7.98773 20.0558 7.98306C20.0009 7.20026 19.3447 6.58203 18.543 6.58203V6.7827C19.2459 6.78246 19.8365 7.25774 20.0086 7.9025Z" fill="#1180C3"/>
<path d="M20.06 8.6416H18.543V8.84228H20.06V8.6416Z" fill="#1180C3"/>
<path d="M17.9858 8.6416H16.4688V8.84228H17.9858V8.6416Z" fill="#1180C3"/>
<path d="M40.39 25.8887H38.11V15.1187H40.39V19.3637H45.055V15.1187H47.335V25.8887H45.055V21.3287H40.39V25.8887ZM52.7604 26.0387C50.4354 26.0387 48.6954 24.2087 48.6954 21.8837C48.6954 19.5437 50.4354 17.7287 52.7604 17.7287C55.0854 17.7287 56.8254 19.5437 56.8254 21.8837C56.8254 24.2087 55.0854 26.0387 52.7604 26.0387ZM52.7604 24.1937C53.7954 24.1937 54.6804 23.3687 54.6804 21.8837C54.6804 20.3987 53.7954 19.5887 52.7604 19.5887C51.7254 19.5887 50.8404 20.3987 50.8404 21.8837C50.8404 23.3687 51.7254 24.1937 52.7604 24.1937ZM60.091 25.8887H58.006V17.8787H59.926V19.0187C60.511 18.2087 61.261 17.7287 62.326 17.7287C63.421 17.7287 64.261 18.2387 64.666 19.1537C65.296 18.2687 66.106 17.7287 67.306 17.7287C68.926 17.7287 70.021 18.7937 70.021 20.7137V25.8887H67.951V21.3737C67.951 20.2487 67.471 19.5737 66.556 19.5737C65.731 19.5737 65.056 20.2187 65.056 21.4187V25.8887H62.986V21.3737C62.986 20.2487 62.506 19.5737 61.591 19.5737C60.751 19.5737 60.091 20.2187 60.091 21.4187V25.8887ZM75.1348 26.0237C72.7348 26.0237 71.1298 24.3587 71.1298 21.8537C71.1298 19.4687 72.7948 17.7287 75.1048 17.7287C77.6398 17.7287 79.3198 19.7837 78.9448 22.3937H73.2598C73.3948 23.6987 74.0248 24.4187 75.0898 24.4187C76.0048 24.4187 76.6198 23.9687 76.8598 23.1737H78.9298C78.4798 24.9887 77.0848 26.0237 75.1348 26.0237ZM75.0598 19.2587C74.0848 19.2587 73.4698 19.8887 73.2898 21.0737H76.7398C76.6798 19.9637 76.0498 19.2587 75.0598 19.2587ZM88.4263 22.7237C88.4263 24.7187 86.9563 25.8887 84.5863 25.8887H80.3713V15.1187H84.4213C86.6863 15.1187 88.0813 16.1387 88.0813 17.9837C88.0813 18.9737 87.5263 19.7687 86.5663 20.2637C87.7663 20.6837 88.4263 21.5387 88.4263 22.7237ZM84.2413 16.9187H82.4413V19.4237H84.2413C85.3513 19.4237 85.9213 18.9437 85.9213 18.1637C85.9213 17.3987 85.3513 16.9187 84.2413 16.9187ZM84.4063 21.2387H82.4413V24.0887H84.4063C85.6363 24.0887 86.2813 23.5487 86.2813 22.6337C86.2813 21.7787 85.6363 21.2387 84.4063 21.2387ZM91.8382 22.0037V25.8887H89.7532V17.8787H91.6732V19.4237C92.2582 18.4037 93.5032 17.7887 94.7932 17.7887V19.9487C93.0232 19.8137 91.8382 20.2337 91.8382 22.0037ZM98.1413 16.0187C98.1413 16.7237 97.5713 17.2487 96.7463 17.2487C95.9363 17.2487 95.3663 16.7237 95.3663 16.0187C95.3663 15.2837 95.9363 14.7587 96.7463 14.7587C97.5713 14.7587 98.1413 15.2837 98.1413 16.0187ZM97.8113 25.8887H95.7263V17.8787H97.8113V25.8887ZM98.9917 21.8837C98.9917 19.5137 100.387 17.7287 102.547 17.7287C103.507 17.7287 104.317 18.1487 104.917 18.9137V15.1187H106.987V25.8887H105.082V24.7337C104.452 25.5737 103.582 26.0387 102.547 26.0387C100.387 26.0387 98.9917 24.2237 98.9917 21.8837ZM101.137 21.8837C101.137 23.3837 101.992 24.1787 103.012 24.1787C104.047 24.1787 104.902 23.3687 104.902 21.8537C104.902 20.3387 104.032 19.5737 103.012 19.5737C101.992 19.5737 101.137 20.3537 101.137 21.8837ZM112.103 28.9337C109.943 28.9337 108.503 27.7637 108.413 25.9187H110.423C110.513 26.8337 111.098 27.3137 112.088 27.3137C113.243 27.3137 113.843 26.6987 113.843 25.5437V24.3737C113.408 25.1387 112.583 25.5887 111.608 25.5887C109.643 25.5887 108.173 23.9237 108.173 21.6587C108.173 19.3337 109.553 17.7287 111.533 17.7287C112.613 17.7287 113.423 18.1487 114.008 18.9737V17.8787H115.913V25.5137C115.913 27.6437 114.473 28.9337 112.103 28.9337ZM110.258 21.6587C110.258 22.9637 110.933 23.7887 112.013 23.7887C113.108 23.7887 113.828 22.9337 113.828 21.6737C113.828 20.3687 113.108 19.5287 112.013 19.5287C110.948 19.5287 110.258 20.3537 110.258 21.6587ZM121.124 26.0237C118.724 26.0237 117.119 24.3587 117.119 21.8537C117.119 19.4687 118.784 17.7287 121.094 17.7287C123.629 17.7287 125.309 19.7837 124.934 22.3937H119.249C119.384 23.6987 120.014 24.4187 121.079 24.4187C121.994 24.4187 122.609 23.9687 122.849 23.1737H124.919C124.469 24.9887 123.074 26.0237 121.124 26.0237ZM121.049 19.2587C120.074 19.2587 119.459 19.8887 119.279 21.0737H122.729C122.669 19.9637 122.039 19.2587 121.049 19.2587ZM136.546 25.8887L135.736 23.5787H131.551L130.726 25.8887H128.431L132.481 15.1187H134.971L138.991 25.8887H136.546ZM133.666 17.6087L132.196 21.7637H135.106L133.666 17.6087ZM142.433 25.8887H140.153V15.1187H142.433V25.8887Z" fill="white"/>
</svg>
