<svg width="145" height="40" viewBox="0 0 145 40" fill="none" xmlns="http://www.w3.org/2000/svg">
<path d="M14.2578 29.0393C14.26 29.042 14.2624 29.0444 14.2646 29.0471C14.2624 29.0444 14.2602 29.0417 14.2578 29.0393Z" fill="#046299"/>
<path d="M14.6133 29.5095C14.6154 29.5128 14.6173 29.5157 14.6195 29.519C14.6173 29.5157 14.6152 29.5125 14.6133 29.5095Z" fill="#046299"/>
<path d="M14.8555 29.9331C14.8579 29.938 14.8604 29.9432 14.8626 29.9481C14.8602 29.9432 14.8579 29.938 14.8555 29.9331Z" fill="#046299"/>
<path d="M13.8398 28.627C13.8403 28.6277 13.8408 28.6282 13.8416 28.6289C13.8463 28.6329 13.8512 28.6369 13.8559 28.6411C13.8502 28.6364 13.845 28.6314 13.8398 28.627Z" fill="#046299"/>
<path d="M13.9766 28.7483C13.9944 28.765 14.0124 28.7817 14.03 28.7986C14.0124 28.7819 13.9944 28.765 13.9766 28.7483Z" fill="#046299"/>
<path d="M14.2712 29.0538C14.269 29.0514 14.267 29.0487 14.2648 29.0462C14.2628 29.0438 14.2606 29.0416 14.2586 29.0391C14.2447 29.0234 14.2306 29.0082 14.2168 28.9927C14.2351 29.0131 14.2534 29.0332 14.2712 29.0538Z" fill="#046299"/>
<path d="M14.1387 28.9092C14.1567 28.9281 14.1748 28.947 14.1926 28.9664C14.175 28.9473 14.157 28.9283 14.1387 28.9092Z" fill="#046299"/>
<path d="M36.0005 31.3911H35.5664V31.3914L36.0005 31.3911Z" fill="#046299"/>
<path d="M0.00271996 39.7197C0.00222549 39.7352 0.00123617 39.7502 0 39.7654C0 39.7657 0 39.7661 0 39.7664C0.00123617 39.7512 0.00222549 39.7354 0.00271996 39.7197Z" fill="#111111"/>
<path d="M5.71853 39.854C5.71828 39.8644 5.71729 39.8746 5.7168 39.8851C5.7168 39.8866 5.71704 39.8878 5.71704 39.889C5.71779 39.8774 5.71803 39.8657 5.71853 39.854Z" fill="#111111"/>
<path d="M26.834 19.1931C26.8664 19.2174 26.8973 19.243 26.9267 19.2693C26.8973 19.243 26.8664 19.2177 26.834 19.1931Z" fill="#111111"/>
<path d="M26.6836 19.0934C26.7222 19.116 26.7595 19.1398 26.7951 19.1649C26.7592 19.1398 26.7222 19.116 26.6836 19.0934Z" fill="#111111"/>
<path d="M22.4824 25.345H23.2056L23.2046 25.3425H22.4837L22.4824 25.345Z" fill="#111111"/>
<path d="M31.2544 14.5466L17.2652 0.512695L10.4648 7.33463V10.1814L17.265 3.35946L26.2205 12.338C26.0761 12.2869 25.9221 12.2439 25.7584 12.209L17.265 3.69425L25.7584 12.2147C25.5898 12.155 25.4079 12.1063 25.213 12.069L25.7584 12.6163C25.3124 12.4581 24.774 12.3773 24.147 12.3773H18.9266C18.7091 12.3773 18.5785 12.463 18.5785 12.6514V25.0711C18.5785 25.2423 18.7091 25.3452 18.9266 25.3452H21.3404V25.3353H21.735V25.3452H22.1063L22.6754 24.0164H23.0213L23.5904 25.3452H24.0323V24.0286H24.4073V25.3403C26.2853 25.2693 27.3007 24.4189 27.3007 22.8784V20.4627C27.3007 19.829 26.7135 19.3493 25.9303 19.2464V19.212C26.1612 19.1818 26.3748 19.1184 26.5614 19.0282C26.3748 18.9381 26.1612 18.875 25.9303 18.8445V18.8101C26.1315 18.7838 26.3194 18.7323 26.488 18.6601C26.3194 18.5876 26.1313 18.5363 25.9303 18.51V18.4756C26.7132 18.3729 27.3007 17.8932 27.3007 17.2593V14.8436C27.3007 14.5577 27.2651 14.2961 27.1961 14.0581L27.2873 14.1497C27.2713 13.9753 27.2408 13.8107 27.1961 13.6565L28.4167 14.8809L27.2794 13.74C27.2621 13.5933 27.2344 13.4538 27.1961 13.3219L28.4167 14.5464H31.2544V14.5466ZM24.4078 20.6432V22.7332V23.1348C24.4078 23.5973 24.1032 23.8201 23.5378 23.8201H21.4V23.4185V20.2974C21.267 20.4283 21.1278 20.5651 20.9816 20.7081C20.9433 20.7456 20.9043 20.7837 20.865 20.822C20.8558 20.8309 20.8474 20.8392 20.8392 20.8473C20.8363 20.8503 20.8333 20.8532 20.8306 20.8562C20.8259 20.8608 20.8214 20.8653 20.8172 20.8697C20.8143 20.8729 20.8111 20.8761 20.8081 20.879C20.8044 20.8829 20.8012 20.8864 20.7977 20.8898C20.7952 20.8925 20.7925 20.8952 20.7903 20.8977C20.7616 20.9289 20.7505 20.9453 20.7574 20.9468C20.7581 20.9471 20.7589 20.9475 20.7591 20.9485C20.7861 21.0291 20.8024 21.1116 20.8088 21.1954C20.8098 21.2091 20.8108 21.2229 20.8113 21.2366C20.8113 21.2384 20.8113 21.2401 20.8115 21.2418C20.8115 21.242 20.8115 21.2423 20.8115 21.2425C20.8115 21.244 20.8115 21.2452 20.8115 21.2467C20.812 21.261 20.8123 21.2754 20.812 21.2899C20.812 21.2948 20.8118 21.3 20.8115 21.3052C20.8115 21.3081 20.8113 21.3113 20.8113 21.3143C20.8111 21.3226 20.8108 21.331 20.8103 21.3393C20.8093 21.3563 20.8081 21.3734 20.8064 21.3904C20.8064 21.3906 20.8064 21.3909 20.8064 21.3911C20.8036 21.4177 20.7591 21.482 20.6731 21.5837C20.6667 21.5913 20.66 21.5984 20.6531 21.6056C20.6254 21.6338 20.5927 21.6584 20.5557 21.6795C20.5371 21.6901 20.5173 21.6996 20.4966 21.7082C20.4862 21.7127 20.4753 21.7166 20.4644 21.7205C20.4076 21.7404 20.35 21.7505 20.2914 21.7505C20.2679 21.7505 20.2444 21.749 20.2207 21.7458C20.2088 21.7443 20.1969 21.7424 20.1848 21.7399C20.0669 21.7166 19.9658 21.6574 19.8817 21.5621C19.8815 21.5616 19.881 21.5614 19.8807 21.5609C19.8745 21.5537 19.8686 21.5466 19.8629 21.5395C19.8609 21.537 19.8595 21.5348 19.8575 21.5324C19.8533 21.527 19.8493 21.5216 19.8454 21.5162C19.8436 21.5135 19.8419 21.5108 19.8402 21.5083C19.8365 21.5029 19.833 21.4975 19.8295 21.4921C19.8281 21.4896 19.8266 21.4869 19.8251 21.4845C19.8216 21.4788 19.8184 21.4732 19.8152 21.4673C19.814 21.4648 19.8127 21.4624 19.8115 21.4602C19.8083 21.4543 19.8053 21.4481 19.8023 21.442C19.8014 21.4398 19.8004 21.4378 19.7994 21.4356C19.7964 21.4292 19.7937 21.4226 19.791 21.4162C19.7902 21.4142 19.7895 21.4125 19.7887 21.4105C19.786 21.4037 19.7836 21.3968 19.7811 21.3899C19.7806 21.3884 19.7801 21.3867 19.7796 21.3852C19.7771 21.3779 19.7749 21.3705 19.7729 21.3631C19.7727 21.3619 19.7724 21.3607 19.7719 21.3594C19.77 21.3516 19.768 21.344 19.7662 21.3361C19.766 21.3351 19.766 21.3344 19.7658 21.3334C19.764 21.3253 19.7625 21.317 19.7611 21.3089C19.7611 21.3081 19.7608 21.3076 19.7608 21.3069C19.7596 21.2983 19.7583 21.2899 19.7573 21.2813C19.7573 21.2808 19.7573 21.2806 19.7573 21.2801C19.7564 21.2713 19.7556 21.2624 19.7554 21.2536C19.7554 21.2533 19.7554 21.2533 19.7554 21.2531C19.7546 21.2408 19.7546 21.2283 19.7549 21.216C19.7549 21.216 19.7549 21.216 19.7549 21.2158C19.7554 21.1907 19.7578 21.1659 19.7618 21.1411C19.762 21.1404 19.762 21.1396 19.7623 21.1389C19.7665 21.1146 19.7722 21.0905 19.7798 21.0669C19.7801 21.0659 19.7803 21.0652 19.7808 21.0642C19.7843 21.0534 19.7882 21.0428 19.7922 21.0325C19.7927 21.0313 19.7932 21.0301 19.7937 21.0286C19.7984 21.0173 19.8033 21.006 19.8088 20.9949C19.8088 20.9947 19.809 20.9945 19.809 20.9942C19.814 20.9839 19.8194 20.9738 19.8253 20.964C19.8266 20.9618 19.8278 20.9598 19.829 20.9579C19.835 20.948 19.8409 20.9382 19.8476 20.9286C19.8478 20.9284 19.8478 20.9281 19.8481 20.9276C19.8548 20.9178 19.8619 20.9082 19.8693 20.8989C19.8711 20.8967 19.8728 20.8947 19.8745 20.8925C19.8807 20.8849 19.8871 20.8775 19.8936 20.8704C19.8953 20.8685 19.897 20.8667 19.8988 20.8648C19.9069 20.8562 19.9153 20.8478 19.924 20.8397C19.9257 20.8382 19.9274 20.8365 19.9292 20.835C19.9366 20.8284 19.944 20.822 19.9517 20.8156C19.9541 20.8134 19.9569 20.8115 19.9596 20.8095C19.9692 20.8021 19.9791 20.7948 19.9893 20.7879C20.1618 20.6717 20.3987 20.6668 20.5779 20.7815C20.5799 20.7827 20.5824 20.7835 20.5846 20.7832C20.5868 20.783 20.589 20.782 20.5908 20.7803L21.3995 19.9803V19.9579V19.6234H23.5373C24.1245 19.6234 24.4073 19.8631 24.4073 20.3087V20.6432H24.4078ZM24.4078 14.9219V17.0289V17.4305C24.4078 17.8588 24.1032 18.0986 23.5378 18.0986H21.4V18.0669C21.2615 18.2029 21.1186 18.3432 20.9703 18.4884C20.9169 18.5407 20.8627 18.5937 20.8078 18.647C20.795 18.6596 20.7834 18.6711 20.7722 18.6822C20.768 18.6863 20.7641 18.6903 20.7601 18.6944C20.7537 18.7011 20.7475 18.7072 20.7416 18.7134C20.7374 18.7178 20.7329 18.7222 20.729 18.7264C20.7238 18.7318 20.7191 18.7367 20.7146 18.7416C20.7112 18.7453 20.7075 18.7492 20.7042 18.7524C20.6644 18.7959 20.6489 18.8187 20.6585 18.8207C20.6597 18.8209 20.6607 18.8219 20.661 18.8231C20.6983 18.9354 20.7211 19.0501 20.7302 19.1668C20.7317 19.1859 20.7329 19.2048 20.7337 19.224C20.7337 19.2265 20.7337 19.2287 20.7339 19.2311C20.7339 19.2314 20.7339 19.2316 20.7339 19.2321C20.7339 19.2341 20.7339 19.236 20.7342 19.238C20.7347 19.2579 20.7352 19.278 20.7349 19.2982C20.7349 19.3051 20.7344 19.3122 20.7344 19.3193C20.7344 19.3235 20.7342 19.3277 20.7342 19.3318C20.7337 19.3434 20.7337 19.3552 20.7329 19.3667C20.7317 19.3903 20.73 19.4141 20.7275 19.4379C20.7275 19.4382 20.7275 19.4387 20.7275 19.4389C20.7238 19.476 20.6617 19.5652 20.5421 19.7071C20.5332 19.7177 20.524 19.7278 20.5144 19.7376C20.4758 19.7769 20.4306 19.8113 20.3789 19.8405C20.3532 19.855 20.3255 19.8685 20.2966 19.8806C20.282 19.8867 20.2671 19.8923 20.2518 19.8977C20.1727 19.9255 20.0926 19.9395 20.011 19.9395C19.9784 19.9395 19.9455 19.9373 19.9124 19.9329C19.8958 19.9307 19.8792 19.928 19.8627 19.9245C19.6985 19.8921 19.5578 19.8096 19.4406 19.6769C19.4401 19.6764 19.4397 19.6757 19.4392 19.6752C19.4305 19.6654 19.4221 19.6556 19.4142 19.6452C19.4117 19.6421 19.4092 19.6386 19.4068 19.6352C19.4011 19.6276 19.3954 19.6202 19.39 19.6126C19.3875 19.6089 19.385 19.6052 19.3825 19.6015C19.3776 19.5942 19.3724 19.5865 19.3677 19.5789C19.3655 19.5755 19.3637 19.5718 19.3615 19.5684C19.3568 19.5605 19.3521 19.5524 19.3477 19.5445C19.346 19.5411 19.3442 19.5379 19.3425 19.5345C19.338 19.5261 19.3338 19.5178 19.3299 19.5092C19.3284 19.5062 19.3272 19.5033 19.3259 19.5003C19.322 19.4912 19.3178 19.4824 19.3143 19.4733C19.3133 19.4706 19.3123 19.4682 19.3113 19.4655C19.3076 19.4559 19.3039 19.4463 19.3007 19.4367C19.3 19.4345 19.2995 19.4325 19.2987 19.4303C19.2953 19.42 19.2923 19.4099 19.2893 19.3996C19.2888 19.3979 19.2886 19.3962 19.2881 19.3945C19.2851 19.3837 19.2824 19.3729 19.2802 19.3618C19.2799 19.3606 19.2797 19.3593 19.2794 19.3581C19.277 19.3468 19.2747 19.3353 19.273 19.324C19.2728 19.323 19.2728 19.3223 19.2725 19.3213C19.2705 19.3095 19.2691 19.2977 19.2678 19.2857C19.2678 19.2852 19.2678 19.2847 19.2676 19.2839C19.2663 19.2717 19.2654 19.2594 19.2646 19.2471C19.2646 19.2468 19.2646 19.2466 19.2646 19.2466C19.2636 19.2294 19.2636 19.2122 19.2639 19.195V19.1948C19.2646 19.1599 19.2678 19.1253 19.2735 19.0909C19.2738 19.0899 19.2738 19.0887 19.274 19.0877C19.2797 19.0538 19.2879 19.0204 19.2982 18.9877C19.2987 18.9865 19.299 18.9853 19.2995 18.9838C19.3044 18.9688 19.3096 18.9541 19.3155 18.9396C19.3163 18.9379 19.317 18.9361 19.3175 18.9342C19.3239 18.9184 19.3309 18.9027 19.3383 18.8875C19.3385 18.8873 19.3385 18.8868 19.3388 18.8865C19.3457 18.8723 19.3534 18.8583 19.3613 18.8445C19.363 18.8416 19.3647 18.8386 19.3665 18.8359C19.3746 18.8222 19.383 18.8087 19.3922 18.7954C19.3924 18.7949 19.3927 18.7947 19.3929 18.7942C19.4023 18.7807 19.4122 18.7674 19.4226 18.7544C19.4251 18.7514 19.4275 18.7485 19.43 18.7455C19.4387 18.735 19.4473 18.7249 19.4567 18.7148C19.4592 18.7121 19.4614 18.7094 19.4639 18.707C19.4753 18.6949 19.4869 18.6834 19.499 18.6721C19.5015 18.6699 19.5039 18.6677 19.5064 18.6657C19.5165 18.6566 19.5272 18.6475 19.5378 18.6389C19.5415 18.636 19.545 18.633 19.5487 18.6303C19.562 18.62 19.5756 18.6097 19.59 18.6001C19.8303 18.4383 20.1598 18.4316 20.4093 18.591C20.4123 18.593 20.4155 18.5937 20.4184 18.5932C20.4217 18.593 20.4246 18.5915 20.4269 18.5893L21.3997 17.6267V14.5729C21.1908 14.7807 20.9683 15.001 20.9473 15.0219C20.8012 15.1658 20.6474 15.3169 20.4859 15.4748C20.4456 15.5144 20.4048 15.5542 20.3636 15.5947C20.3539 15.604 20.345 15.6129 20.3366 15.6212C20.3334 15.6244 20.3304 15.6273 20.3275 15.6305C20.3225 15.6355 20.3178 15.6401 20.3134 15.6448C20.3102 15.6482 20.3069 15.6514 20.304 15.6546C20.3 15.6585 20.2966 15.6625 20.2931 15.6659C20.2906 15.6686 20.2877 15.6716 20.2854 15.6743C20.2553 15.7069 20.2437 15.7244 20.2511 15.7258C20.2521 15.7261 20.2528 15.7268 20.253 15.7276C20.2812 15.8123 20.2985 15.8988 20.3052 15.9869C20.3065 16.0014 20.3072 16.0157 20.3079 16.0302C20.3079 16.0319 20.3079 16.0339 20.3082 16.0356C20.3082 16.0358 20.3082 16.0361 20.3082 16.0363C20.3082 16.0378 20.3082 16.0393 20.3082 16.0407C20.3087 16.0557 20.3089 16.0709 20.3087 16.0862C20.3087 16.0916 20.3084 16.0967 20.3082 16.1021C20.3082 16.1053 20.3079 16.1085 20.3079 16.1117C20.3077 16.1206 20.3074 16.1292 20.3069 16.138C20.306 16.1559 20.3047 16.1736 20.3027 16.1918C20.3027 16.192 20.3027 16.1923 20.3027 16.1925C20.3 16.2205 20.2533 16.2878 20.1628 16.3949C20.1561 16.4028 20.1492 16.4104 20.1418 16.418C20.1126 16.4477 20.0785 16.4735 20.0397 16.4956C20.0202 16.5067 19.9994 16.5167 19.9776 16.5258C19.9668 16.5305 19.9554 16.5347 19.9438 16.5389C19.8842 16.5597 19.8236 16.5703 19.762 16.5703C19.7373 16.5703 19.7126 16.5686 19.6876 16.5654C19.6753 16.5637 19.6627 16.5617 19.65 16.5592C19.5262 16.5347 19.4201 16.4725 19.3316 16.3723C19.3311 16.3718 19.3309 16.3713 19.3306 16.3711C19.3242 16.3637 19.3178 16.3561 19.3118 16.3485C19.3099 16.346 19.3081 16.3436 19.3061 16.3409C19.3019 16.3352 19.2975 16.3296 19.2935 16.3237C19.2916 16.321 19.2898 16.318 19.2881 16.3153C19.2844 16.3097 19.2804 16.304 19.277 16.2984C19.2752 16.2957 19.274 16.293 19.2723 16.2905C19.2688 16.2846 19.2651 16.2785 19.2619 16.2726C19.2604 16.2701 19.2594 16.2674 19.2579 16.265C19.2547 16.2586 19.2513 16.2525 19.2483 16.2458C19.2473 16.2436 19.2463 16.2414 19.2453 16.2389C19.2424 16.2321 19.2391 16.2254 19.2364 16.2186C19.2357 16.2166 19.2349 16.2146 19.2342 16.2127C19.2315 16.2055 19.2288 16.1982 19.2263 16.1908C19.2258 16.1891 19.2253 16.1876 19.2248 16.1859C19.2223 16.1783 19.2199 16.1704 19.2176 16.1626C19.2174 16.1613 19.2169 16.1601 19.2166 16.1589C19.2144 16.1508 19.2124 16.1424 19.2107 16.1343C19.2105 16.1333 19.2105 16.1323 19.2102 16.1314C19.2085 16.1228 19.2068 16.1142 19.2053 16.1056C19.2053 16.1048 19.205 16.1043 19.205 16.1036C19.2035 16.0948 19.2023 16.0857 19.2016 16.0768C19.2016 16.0763 19.2016 16.0761 19.2016 16.0756C19.2006 16.0663 19.1998 16.0572 19.1993 16.0479C19.1993 16.0476 19.1993 16.0476 19.1993 16.0474C19.1986 16.0343 19.1986 16.0213 19.1988 16.0083C19.1988 16.0083 19.1988 16.0083 19.1988 16.0081C19.1993 15.9818 19.2018 15.9557 19.2063 15.9297C19.2065 15.929 19.2065 15.9282 19.2068 15.9273C19.2112 15.9017 19.2171 15.8764 19.2251 15.8518C19.2253 15.8509 19.2258 15.8499 19.226 15.8489C19.2297 15.8376 19.2337 15.8265 19.2382 15.8155C19.2387 15.8143 19.2391 15.8128 19.2396 15.8116C19.2446 15.7998 19.2498 15.788 19.2555 15.7762C19.2557 15.7759 19.2557 15.7757 19.256 15.7755C19.2612 15.7647 19.2671 15.7541 19.273 15.7438C19.2743 15.7416 19.2755 15.7394 19.2767 15.7371C19.2829 15.7268 19.2893 15.7165 19.2963 15.7067C19.2965 15.7064 19.2968 15.7059 19.2968 15.7057C19.3039 15.6954 19.3113 15.6856 19.319 15.6757C19.3207 15.6735 19.3227 15.6713 19.3244 15.6689C19.3309 15.661 19.3375 15.6531 19.3445 15.6458C19.3462 15.6438 19.3479 15.6418 19.3499 15.6399C19.3583 15.6308 19.3672 15.6219 19.3764 15.6136C19.3781 15.6119 19.3801 15.6104 19.3818 15.6087C19.3895 15.6018 19.3974 15.5949 19.4055 15.5885C19.4083 15.5863 19.411 15.5841 19.4137 15.5819C19.4238 15.574 19.4342 15.5664 19.4448 15.5593C19.6263 15.4372 19.8748 15.4321 20.0629 15.5524C20.0652 15.5539 20.0676 15.5544 20.0698 15.5542C20.0723 15.5539 20.0745 15.5529 20.0763 15.5512L21.4 14.2428V14.2371V13.9026H23.5378C24.125 13.9026 24.4078 14.1423 24.4078 14.5879V14.9219Z" fill="#111111"/>
<path d="M25.1973 12.0657C25.2027 12.0667 25.2079 12.0679 25.2131 12.0689L25.2128 12.0687C25.2079 12.0674 25.2025 12.0667 25.1973 12.0657Z" fill="#111111"/>
<path d="M25.1965 12.0659C25.1646 12.0596 25.1322 12.0539 25.0996 12.0485C25.1325 12.0539 25.1646 12.0599 25.1965 12.0659Z" fill="#111111"/>
<path d="M22.6172 25.0133H23.0701L22.8437 24.4639L22.6172 25.0133Z" fill="#111111"/>
<path d="M27.2891 14.1515C27.2925 14.1888 27.2952 14.2266 27.2972 14.265C27.295 14.2266 27.2925 14.1888 27.2891 14.1515Z" fill="#111111"/>
<path d="M26.791 18.4922C26.8224 18.4704 26.8523 18.4475 26.8813 18.4237C26.8526 18.4475 26.8224 18.4704 26.791 18.4922Z" fill="#111111"/>
<path d="M14.7441 29.7209C14.7835 29.7902 14.821 29.8607 14.8566 29.9329C14.821 29.861 14.7835 29.7902 14.7441 29.7209Z" fill="#0D72B9"/>
<path d="M9.12109 36.6138C9.19452 36.6383 9.26919 36.6612 9.34509 36.6823C9.26943 36.6612 9.19477 36.6383 9.12109 36.6138Z" fill="#0D72B9"/>
<path d="M9.12013 36.6138C9.04028 36.5873 8.9619 36.5588 8.88477 36.5283C8.9619 36.5588 9.04052 36.5873 9.12013 36.6138Z" fill="#0D72B9"/>
<path d="M7.21289 35.3242C7.23193 35.3473 7.25121 35.3699 7.27074 35.3925C7.27099 35.3927 7.27124 35.3927 7.27124 35.393C7.25171 35.3704 7.23217 35.3476 7.21289 35.3242Z" fill="#0D72B9"/>
<path d="M7.70312 35.8223L7.70337 35.8225C7.80672 35.9107 7.91476 35.994 8.02725 36.0721C7.91476 35.994 7.80672 35.9107 7.70312 35.8223Z" fill="#0D72B9"/>
<path d="M8.0293 36.072C8.06712 36.0983 8.1052 36.1238 8.14401 36.1487C8.1052 36.1236 8.06688 36.0981 8.0293 36.072Z" fill="#0D72B9"/>
<path d="M7.70638 35.8249C7.70584 35.8244 7.7053 35.8238 7.70503 35.8233C7.70179 35.8206 7.69855 35.8179 7.69531 35.8152C7.69882 35.8182 7.7026 35.8217 7.70638 35.8249Z" fill="#0D72B9"/>
<path d="M7.66797 35.7905C7.67712 35.7987 7.68626 35.8069 7.69566 35.8151C7.69393 35.8134 7.69195 35.8119 7.68997 35.8102C7.6828 35.8037 7.67539 35.797 7.66797 35.7905Z" fill="#0D72B9"/>
<path d="M7.32914 35.4583C7.33705 35.4669 7.34471 35.4757 7.35263 35.4843C7.35658 35.4887 7.36078 35.4932 7.36499 35.4973C7.33878 35.4691 7.31257 35.4406 7.28711 35.4116C7.30095 35.4273 7.31505 35.4428 7.32914 35.4583Z" fill="#0D72B9"/>
<path d="M7.45703 35.5928C7.47112 35.6072 7.48546 35.6216 7.4998 35.636C7.4956 35.6318 7.49164 35.6278 7.48744 35.6236C7.4773 35.6134 7.46717 35.603 7.45703 35.5928Z" fill="#0D72B9"/>
<path d="M7.40405 35.5393C7.39095 35.5256 7.37809 35.5117 7.36523 35.4978C7.37809 35.5117 7.39095 35.5254 7.40405 35.5393Z" fill="#0D72B9"/>
<path d="M7.40726 35.5418C7.41616 35.5509 7.42482 35.5602 7.43372 35.5693C7.44138 35.5771 7.44929 35.5848 7.45696 35.5926C7.43916 35.5747 7.4216 35.5568 7.4043 35.5386C7.40529 35.5396 7.40627 35.5405 7.40726 35.5418Z" fill="#0D72B9"/>
<path d="M7.55664 35.6899C7.56999 35.7026 7.5831 35.7153 7.59669 35.7277C7.58779 35.7193 7.57889 35.7108 7.56999 35.7026C7.56554 35.6984 7.56109 35.6942 7.55664 35.6899Z" fill="#0D72B9"/>
<path d="M7.51681 35.6522C7.52992 35.665 7.54351 35.6775 7.55686 35.69C7.53783 35.6721 7.51879 35.6539 7.5 35.6355C7.50544 35.6409 7.51113 35.6465 7.51681 35.6522Z" fill="#0D72B9"/>
<path d="M13.8418 28.627C13.8423 28.6275 13.8429 28.628 13.8431 28.6286C13.8464 28.6313 13.8496 28.634 13.8529 28.6367C13.8491 28.6334 13.8456 28.6302 13.8418 28.627Z" fill="#0D72B9"/>
<path d="M13.8437 28.6289L13.8434 28.6287C13.7401 28.5405 13.632 28.457 13.5195 28.3792C13.632 28.457 13.7403 28.5405 13.8437 28.6289Z" fill="#0D72B9"/>
<path d="M13.8812 28.6606C13.8718 28.6524 13.8627 28.6439 13.8535 28.636C13.8555 28.6377 13.8572 28.6392 13.8592 28.641C13.8664 28.6474 13.8738 28.6539 13.8812 28.6606Z" fill="#0D72B9"/>
<path d="M13.9915 28.7614C13.9781 28.7487 13.9648 28.7358 13.9512 28.7234C13.9601 28.7318 13.969 28.7403 13.9779 28.7485C13.9823 28.753 13.9868 28.7572 13.9915 28.7614Z" fill="#0D72B9"/>
<path d="M14.0916 28.8587C14.0775 28.8442 14.0632 28.8296 14.0488 28.8154C14.053 28.8197 14.057 28.8236 14.0612 28.8279C14.0713 28.838 14.0815 28.8482 14.0916 28.8587Z" fill="#0D72B9"/>
<path d="M13.519 28.3789C13.4812 28.3528 13.4431 28.3271 13.4043 28.3022C13.4429 28.3273 13.4812 28.3528 13.519 28.3789Z" fill="#0D72B9"/>
<path d="M14.1445 28.9124C14.1576 28.9263 14.1705 28.9399 14.1833 28.9541C14.1705 28.9399 14.1574 28.926 14.1445 28.9124Z" fill="#0D72B9"/>
<path d="M13.9464 28.7184C13.9288 28.7024 13.911 28.6867 13.8932 28.671C13.889 28.6673 13.8851 28.6638 13.8809 28.6602C13.9046 28.681 13.9283 28.7019 13.9516 28.7233C13.9498 28.7216 13.9481 28.7201 13.9464 28.7184Z" fill="#0D72B9"/>
<path d="M15.0713 30.4521C15.0633 30.4433 15.0557 30.4345 15.0475 30.4259C15.0436 30.4214 15.0394 30.4173 15.0352 30.4128C15.0614 30.4411 15.0876 30.4696 15.113 30.4986C15.0994 30.4831 15.0853 30.4676 15.0713 30.4521Z" fill="#0D72B9"/>
<path d="M7.27148 35.3928C7.27496 35.3968 7.27819 35.4007 7.28167 35.4044C7.27943 35.4019 7.27744 35.3995 7.27546 35.397C7.27397 35.3955 7.27273 35.3943 7.27148 35.3928Z" fill="#0D72B9"/>
<path d="M6.8039 34.7295C6.76459 34.6603 6.72701 34.5898 6.69141 34.5178C6.72726 34.5898 6.76459 34.6603 6.8039 34.7295Z" fill="#0D72B9"/>
<path d="M6.92781 34.9326C6.88504 34.8663 6.844 34.7985 6.80469 34.7295C6.844 34.7988 6.88504 34.8666 6.92781 34.9326Z" fill="#0D72B9"/>
<path d="M35.5676 31.3914V31.3911H31.5357L31.1016 31.8237L31.5434 31.3923L35.5676 31.3914Z" fill="#0D72B9"/>
<path d="M14.8377 18.2988C14.6647 18.4692 14.4827 18.648 14.2916 18.835C14.2439 18.8816 14.1954 18.929 14.1465 18.9769C14.1351 18.988 14.1247 18.9983 14.1146 19.0084C14.1109 19.0121 14.1072 19.0157 14.1037 19.0192C14.098 19.0251 14.0923 19.0307 14.0871 19.0359C14.0832 19.0398 14.0795 19.0437 14.076 19.0474C14.0713 19.0521 14.0674 19.0565 14.0632 19.0609C14.0602 19.0641 14.0567 19.0676 14.054 19.0708C14.0184 19.1096 14.0046 19.13 14.0132 19.1319C14.0142 19.1322 14.0152 19.1329 14.0154 19.1341C14.0488 19.2343 14.0691 19.3368 14.0772 19.4412C14.0785 19.4581 14.0797 19.4753 14.0805 19.4925C14.0805 19.4947 14.0805 19.4967 14.0807 19.4989C14.0807 19.4991 14.0807 19.4994 14.0807 19.4996C14.0807 19.5013 14.0807 19.5031 14.081 19.5048C14.0814 19.5227 14.0817 19.5404 14.0817 19.5586C14.0817 19.5647 14.0814 19.5711 14.0812 19.5775C14.0812 19.5812 14.081 19.5851 14.081 19.5888C14.0807 19.5991 14.0805 19.6097 14.0797 19.62C14.0785 19.6411 14.077 19.6622 14.0748 19.6836C14.0748 19.6838 14.0748 19.6843 14.0748 19.6846C14.0713 19.7177 14.0162 19.7976 13.9089 19.9241C13.901 19.9334 13.8928 19.9425 13.8842 19.9513C13.8495 19.9864 13.8092 20.0171 13.763 20.0432C13.74 20.0562 13.7153 20.0682 13.6893 20.079C13.6762 20.0844 13.6629 20.0896 13.6493 20.0945C13.5788 20.1193 13.5069 20.1319 13.4339 20.1319C13.4048 20.1319 13.3753 20.1299 13.3459 20.126C13.3311 20.124 13.3163 20.1215 13.3014 20.1186C13.2703 20.1125 13.2401 20.1039 13.2109 20.0935V25.0708C13.2109 25.242 13.3415 25.345 13.559 25.345H15.5616C15.8227 25.345 15.9315 25.2423 15.9315 25.0708V19.7941C15.889 19.8369 15.8583 19.8676 15.844 19.8818C15.706 20.0176 15.5609 20.1601 15.4086 20.3092C15.3705 20.3465 15.332 20.3841 15.2929 20.4222C15.2837 20.431 15.2753 20.4394 15.2674 20.4472C15.2645 20.4502 15.2615 20.4531 15.2588 20.4558C15.2541 20.4605 15.2496 20.4649 15.2457 20.4693C15.2427 20.4725 15.2395 20.4757 15.2368 20.4787C15.2331 20.4824 15.2298 20.486 15.2266 20.4895C15.2242 20.4922 15.2214 20.4949 15.2192 20.4973C15.1908 20.5283 15.1799 20.5445 15.1866 20.546C15.1873 20.5462 15.1881 20.5467 15.1883 20.5477C15.215 20.6275 15.2311 20.7093 15.2378 20.7923C15.2387 20.8058 15.2397 20.8196 15.2402 20.8331C15.2402 20.8348 15.2402 20.8365 15.2405 20.8383C15.2405 20.8385 15.2405 20.8388 15.2405 20.839C15.2405 20.8405 15.2405 20.8417 15.2405 20.8432C15.241 20.8574 15.2412 20.8717 15.241 20.8859C15.241 20.8908 15.2407 20.896 15.2405 20.9009C15.2405 20.9038 15.2402 20.9068 15.2402 20.91C15.24 20.9183 15.2397 20.9264 15.2392 20.9348C15.2382 20.9517 15.237 20.9684 15.2353 20.9854C15.2353 20.9856 15.2353 20.9859 15.2353 20.9861C15.2326 21.0124 15.1886 21.076 15.1033 21.177C15.0971 21.1843 15.0904 21.1917 15.0835 21.1986C15.056 21.2266 15.0239 21.2512 14.9871 21.2718C14.9688 21.2821 14.9492 21.2917 14.9285 21.3003C14.9181 21.3047 14.9075 21.3086 14.8966 21.3126C14.8402 21.3325 14.7831 21.3423 14.725 21.3423C14.7018 21.3423 14.6783 21.3408 14.6548 21.3376C14.6429 21.3361 14.6313 21.3342 14.6194 21.3317C14.5025 21.3086 14.4024 21.2499 14.319 21.1554C14.3188 21.1549 14.3183 21.1546 14.318 21.1541C14.3119 21.1473 14.3059 21.1401 14.3002 21.1328C14.2985 21.1306 14.2968 21.1281 14.2951 21.1256C14.2911 21.1202 14.2869 21.1151 14.2832 21.1094C14.2815 21.1067 14.2797 21.1043 14.278 21.1016C14.2745 21.0962 14.2708 21.091 14.2674 21.0856C14.2659 21.0832 14.2644 21.0807 14.2629 21.078C14.2595 21.0723 14.2562 21.0667 14.253 21.061C14.2518 21.0586 14.2506 21.0564 14.2493 21.0539C14.2461 21.048 14.2431 21.0419 14.2402 21.036C14.2392 21.0338 14.2382 21.0318 14.2374 21.0296C14.2345 21.0232 14.2318 21.0168 14.229 21.0104C14.2283 21.0087 14.2276 21.0068 14.2271 21.0048C14.2243 20.9979 14.2219 20.991 14.2194 20.9842C14.2189 20.9827 14.2184 20.9812 14.2179 20.9795C14.2154 20.9721 14.2132 20.965 14.2112 20.9576C14.211 20.9564 14.2107 20.9552 14.2103 20.954C14.2083 20.9463 14.2063 20.9385 14.2046 20.9306C14.2043 20.9296 14.2043 20.9289 14.2041 20.9279C14.2023 20.9198 14.2009 20.9117 14.1994 20.9036C14.1994 20.9029 14.1991 20.9024 14.1991 20.9016C14.1979 20.8933 14.1967 20.8847 14.1957 20.8763C14.1957 20.8758 14.1957 20.8756 14.1957 20.8751C14.1947 20.8665 14.1942 20.8577 14.1937 20.8488C14.1937 20.8486 14.1937 20.8486 14.1937 20.8483C14.1929 20.8361 14.1929 20.8238 14.1932 20.8115C14.1932 20.8115 14.1932 20.8115 14.1932 20.8112C14.1937 20.7864 14.1959 20.7619 14.2001 20.7373C14.2004 20.7366 14.2004 20.7358 14.2006 20.7351C14.2048 20.711 14.2105 20.6872 14.2179 20.6639C14.2182 20.6629 14.2184 20.6622 14.2189 20.6612C14.2224 20.6506 14.2261 20.64 14.2303 20.6297C14.2308 20.6285 14.2313 20.6273 14.2318 20.626C14.2362 20.6147 14.2412 20.6037 14.2466 20.5929C14.2466 20.5926 14.2468 20.5924 14.2468 20.5922C14.2518 20.5821 14.2572 20.572 14.2629 20.5622C14.2642 20.5602 14.2654 20.558 14.2666 20.556C14.2723 20.5462 14.2785 20.5366 14.2849 20.5273C14.2852 20.5271 14.2852 20.5268 14.2854 20.5263C14.2921 20.5167 14.2993 20.5072 14.3064 20.4978C14.3082 20.4956 14.3099 20.4937 14.3116 20.4914C14.3178 20.4841 14.324 20.4767 14.3307 20.4696C14.3324 20.4676 14.3341 20.4659 14.3358 20.4639C14.344 20.4553 14.3522 20.447 14.3608 20.4391C14.3625 20.4377 14.3643 20.4362 14.366 20.4345C14.3732 20.4278 14.3808 20.4214 14.3885 20.4153C14.391 20.4133 14.3937 20.4111 14.3962 20.4092C14.4058 20.4018 14.4155 20.3947 14.4256 20.3878C14.5967 20.2726 14.8313 20.2679 15.0091 20.3814C15.011 20.3826 15.0135 20.3834 15.0157 20.3831C15.018 20.3829 15.0202 20.3819 15.0217 20.3802L15.9315 19.4802V17.1957C15.533 17.5983 14.9282 18.2096 14.8377 18.2988Z" fill="#0D72B9"/>
<path d="M15.5616 12.3769H13.559C13.3415 12.3769 13.2109 12.4796 13.2109 12.651V17.6969V18.0985H9.95116V17.6969V16.6508V12.2494V11.0326V7.44973V5.78687H7.62667H7.2306V10.1788V10.5804L3.27734 14.5465H6.11509L7.2311 13.427V13.7615V16.6508V25.0707C7.2311 25.2419 7.33988 25.3448 7.60096 25.3448H9.60355C9.82111 25.3448 9.95165 25.2422 9.95165 25.0707V19.9581V19.6235H12.7832C12.7827 19.6208 12.782 19.6184 12.7812 19.6157C12.781 19.6145 12.7807 19.6135 12.7805 19.6122C12.7783 19.6022 12.7763 19.5919 12.7748 19.5818C12.7746 19.581 12.7746 19.5803 12.7746 19.5793C12.7728 19.5688 12.7713 19.5582 12.7704 19.5476C12.7704 19.5472 12.7704 19.5467 12.7701 19.5462C12.7689 19.5351 12.7681 19.5243 12.7676 19.5133C12.7676 19.513 12.7676 19.513 12.7676 19.5128C12.7669 19.4973 12.7666 19.4821 12.7669 19.4666V19.4663C12.7676 19.4354 12.7704 19.4042 12.7755 19.3737C12.7758 19.3728 12.7758 19.3718 12.776 19.371C12.7812 19.3408 12.7884 19.3109 12.7978 19.2816C12.798 19.2804 12.7985 19.2794 12.799 19.2782C12.8035 19.2649 12.8082 19.2517 12.8134 19.2387C12.8141 19.2372 12.8146 19.2355 12.8154 19.234C12.821 19.22 12.8272 19.206 12.8339 19.1922C12.8341 19.192 12.8341 19.1917 12.8344 19.1915C12.8406 19.1787 12.8475 19.1662 12.8547 19.1539C12.8561 19.1512 12.8576 19.1488 12.8591 19.1461C12.8663 19.1338 12.8739 19.1217 12.8821 19.1099C12.8824 19.1097 12.8826 19.1092 12.8828 19.109C12.8913 19.0969 12.9002 19.0849 12.9093 19.0733C12.9115 19.0706 12.9137 19.0679 12.9157 19.0652C12.9234 19.0559 12.9313 19.0468 12.9395 19.0377C12.9417 19.0353 12.9437 19.0331 12.9459 19.0306C12.956 19.0198 12.9664 19.0095 12.9773 18.9994C12.9795 18.9974 12.9817 18.9955 12.9837 18.9935C12.9929 18.9854 13.0023 18.9773 13.0119 18.9694C13.0151 18.9667 13.0183 18.9643 13.0215 18.9616C13.0334 18.9523 13.0458 18.9432 13.0584 18.9346C13.2732 18.7899 13.5674 18.784 13.7904 18.9265C13.7929 18.9282 13.7959 18.9287 13.7986 18.9284C13.8013 18.9282 13.804 18.927 13.8063 18.9247L15.9315 16.8222V12.651C15.9312 12.4796 15.8224 12.3769 15.5616 12.3769Z" fill="#0D72B9"/>
<path d="M15.5234 8.01347H16.989V6.89343C16.2862 6.89343 15.6953 7.36871 15.5234 8.01347Z" fill="#0D72B9"/>
<path d="M17.5449 6.89343V8.01323H19.0105C18.8384 7.36871 18.2478 6.89343 17.5449 6.89343Z" fill="#0D72B9"/>
<path d="M19.0619 8.95349H17.5449V10.0524H19.0619V8.95349Z" fill="#0D72B9"/>
<path d="M16.9877 8.95349H15.4707V10.0524H16.9877V8.95349Z" fill="#0D72B9"/>
<path d="M6.11242 14.5466H3.27492L2.94141 14.8811H6.11242L7.22843 13.7618V13.427L6.11242 14.5466Z" fill="#046299"/>
<path d="M12.9224 19.8972C12.922 19.8967 12.9217 19.8962 12.9212 19.8957C12.9135 19.8868 12.9061 19.878 12.899 19.8689C12.8967 19.866 12.8945 19.863 12.8923 19.8601C12.8871 19.8534 12.8821 19.8466 12.8772 19.8399C12.875 19.8367 12.873 19.8333 12.8708 19.8301C12.8663 19.8235 12.8619 19.8168 12.8577 19.81C12.8557 19.8068 12.854 19.8036 12.8522 19.8006C12.848 19.7935 12.8438 19.7864 12.8399 19.7793C12.8384 19.7763 12.8369 19.7734 12.8354 19.7702C12.8315 19.7628 12.8278 19.7552 12.824 19.7476C12.8228 19.7449 12.8218 19.7422 12.8206 19.7395C12.8169 19.7314 12.8134 19.7235 12.8102 19.7154C12.8092 19.7132 12.8085 19.7107 12.8075 19.7085C12.8043 19.6999 12.8008 19.6913 12.7981 19.6827C12.7973 19.6808 12.7968 19.6788 12.7964 19.6771C12.7934 19.668 12.7904 19.6589 12.7879 19.6496C12.7875 19.6481 12.7872 19.6466 12.7867 19.6451C12.7847 19.638 12.7833 19.6309 12.7815 19.6238H9.94922V19.9583H12.983C12.9622 19.9392 12.942 19.919 12.9224 19.8972Z" fill="#046299"/>
<path d="M15.9295 25.4053V25.0708C15.9295 25.242 15.8208 25.3449 15.5597 25.3449H13.5571C13.3395 25.3449 13.209 25.2422 13.209 25.0708V25.4053C13.209 25.5765 13.3395 25.6795 13.5571 25.6795H15.5597C15.8208 25.6795 15.9295 25.5768 15.9295 25.4053Z" fill="#046299"/>
<path d="M9.60292 25.3449H7.60033C7.33925 25.3449 7.23047 25.2422 7.23047 25.0708V25.4053C7.23047 25.5765 7.33925 25.6795 7.60033 25.6795H9.60292C9.82048 25.6795 9.95102 25.5765 9.95102 25.4053V25.0708C9.95078 25.242 9.82048 25.3449 9.60292 25.3449Z" fill="#046299"/>
<path d="M15.4727 8.10836C15.4729 8.1037 15.4734 8.09903 15.4736 8.09412C15.4734 8.09903 15.4732 8.1037 15.4727 8.10836Z" fill="#046299"/>
<path d="M16.9876 8.01355H15.522C15.5056 8.07422 15.493 8.13661 15.4844 8.19998H16.9876V8.01355Z" fill="#046299"/>
<path d="M19.0586 8.13708C19.0596 8.15796 19.0601 8.17884 19.0601 8.19996C19.0603 8.17884 19.0596 8.15796 19.0586 8.13708Z" fill="#046299"/>
<path d="M17.5449 8.01355V8.19998H19.0481C19.0397 8.13636 19.0268 8.07422 19.0105 8.01355H17.5449Z" fill="#046299"/>
<path d="M19.0619 10.0525H17.5449V10.26H19.0619V10.0525Z" fill="#046299"/>
<path d="M16.9877 10.0525H15.4707V10.26H16.9877V10.0525Z" fill="#046299"/>
<path d="M25.9297 18.4758V18.5102C26.1309 18.5365 26.3188 18.5881 26.4874 18.6603C26.4874 18.6603 26.4877 18.6603 26.4877 18.6601C26.5156 18.648 26.5431 18.6355 26.57 18.6222C26.573 18.6208 26.576 18.6193 26.5792 18.6178C26.5913 18.6119 26.6031 18.6058 26.6148 18.5996C26.619 18.5974 26.6234 18.595 26.6276 18.5928C26.6645 18.5729 26.7003 18.552 26.7347 18.5301C26.7386 18.5277 26.7428 18.525 26.7468 18.5225C26.7569 18.5159 26.7671 18.5092 26.777 18.5024C26.7817 18.4992 26.7863 18.4957 26.791 18.4925C26.8224 18.4707 26.8524 18.4478 26.8813 18.424C26.8865 18.4198 26.8917 18.4157 26.8966 18.4112C26.9045 18.4044 26.9124 18.3977 26.9203 18.3906C26.9258 18.3857 26.9312 18.3808 26.9367 18.3759C26.9441 18.369 26.9515 18.3624 26.9587 18.3555C26.9695 18.3452 26.9802 18.3346 26.9906 18.3238C26.9967 18.3174 27.0029 18.3108 27.0091 18.3042C27.0148 18.298 27.0207 18.2916 27.0262 18.2855C27.0321 18.2789 27.0378 18.2722 27.0435 18.2656C27.0494 18.2587 27.0553 18.2516 27.061 18.2445C27.066 18.2383 27.0712 18.2322 27.0759 18.226C27.0855 18.2138 27.0946 18.2015 27.1038 18.189C27.108 18.1831 27.112 18.1772 27.1162 18.1713C27.1218 18.1629 27.1275 18.1546 27.133 18.1462C27.1369 18.1401 27.1409 18.1339 27.1448 18.1278C27.1508 18.1182 27.1565 18.1086 27.1621 18.0991C27.1651 18.0941 27.1681 18.0892 27.1708 18.0843C27.1787 18.0703 27.1861 18.0563 27.1933 18.0421C27.196 18.0367 27.1985 18.0315 27.201 18.0261C27.2059 18.0158 27.2106 18.0057 27.2153 17.9952C27.2178 17.9895 27.2202 17.9839 27.2227 17.9782C27.2279 17.9659 27.2326 17.9537 27.2373 17.9414C27.2385 17.9379 27.24 17.9347 27.2413 17.9313C27.2469 17.9158 27.2519 17.9001 27.2568 17.8841C27.2583 17.8792 27.2598 17.8741 27.2613 17.8692C27.2647 17.8574 27.268 17.8456 27.2709 17.8335C27.2722 17.8281 27.2736 17.823 27.2749 17.8176C27.2783 17.8026 27.2816 17.7876 27.2843 17.7726C27.2845 17.7709 27.285 17.7692 27.2853 17.7675C27.2882 17.7508 27.2907 17.7336 27.2927 17.7166C27.2932 17.7117 27.2937 17.7066 27.2944 17.7016C27.2959 17.6889 27.2969 17.6759 27.2979 17.6628C27.2981 17.6577 27.2986 17.6525 27.2989 17.6474C27.2999 17.6299 27.3003 17.6122 27.3003 17.5943V17.2598C27.2999 17.8932 26.7127 18.3729 25.9297 18.4758Z" fill="#171717"/>
<path d="M22.4829 25.345L22.3457 25.6795H23.3435L23.2061 25.345H22.4829Z" fill="#171717"/>
<path d="M18.5781 25.0708V25.4053C18.5781 25.5765 18.7087 25.6795 18.9262 25.6795H21.34V25.3449H18.9262C18.7087 25.3449 18.5781 25.242 18.5781 25.0708Z" fill="#171717"/>
<path d="M22.1057 25.345H21.7344V25.6795H21.9623L22.1057 25.345Z" fill="#171717"/>
<path d="M24.0338 25.345H23.5918L23.7352 25.6795H24.0338V25.345Z" fill="#171717"/>
<path d="M27.2996 22.8782C27.2996 24.4185 26.2845 25.2691 24.4062 25.3401V25.6746C26.2842 25.6036 27.2996 24.7533 27.2996 23.2127V22.8782Z" fill="#171717"/>
<path d="M25.7584 12.2088C25.9221 12.2437 26.0761 12.2867 26.2205 12.3378L17.265 3.35925L10.4648 10.1812V10.5157L17.265 3.69379L25.7584 12.2088Z" fill="#171717"/>
<path d="M24.4082 14.5871C24.4082 14.1418 24.1254 13.9019 23.5382 13.9019H21.4004V14.2364H21.4061H21.7374H23.5382C24.1254 14.2364 24.4082 14.4761 24.4082 14.9217V14.5871Z" fill="#171717"/>
<path d="M21.4004 19.6234V19.958H23.5382C24.1254 19.958 24.4082 20.1977 24.4082 20.6432V20.3087C24.4082 19.8634 24.1254 19.6234 23.5382 19.6234H21.4004Z" fill="#171717"/>
<path d="M27.3018 14.4421C27.3018 14.4114 27.3014 14.381 27.3004 14.351C27.3001 14.339 27.2996 14.3269 27.2991 14.3149C27.2984 14.298 27.2976 14.2813 27.2967 14.2646C27.2944 14.2262 27.292 14.1884 27.2885 14.1511C27.2885 14.1506 27.2885 14.1501 27.2885 14.1496L27.1973 14.058C27.2662 14.2957 27.3018 14.5576 27.3018 14.8435V14.4421Z" fill="#171717"/>
<path d="M27.2954 19.9519C27.2949 19.9484 27.2946 19.9447 27.2944 19.9413C27.2924 19.9246 27.2899 19.9079 27.287 19.8914C27.2862 19.887 27.2852 19.8826 27.2845 19.8784C27.282 19.8656 27.2796 19.8529 27.2766 19.8403C27.2756 19.8354 27.2744 19.8308 27.2731 19.8259C27.2692 19.8099 27.265 19.7942 27.2605 19.7785C27.2595 19.775 27.2583 19.7716 27.2573 19.7681C27.2533 19.7556 27.2494 19.7431 27.2449 19.7308C27.243 19.7254 27.241 19.7197 27.239 19.7143C27.2346 19.7026 27.2301 19.691 27.2252 19.6795C27.2234 19.6755 27.222 19.6714 27.2202 19.6674C27.214 19.6532 27.2076 19.6392 27.2007 19.6254C27.1977 19.6195 27.1948 19.6134 27.1918 19.6075C27.1871 19.5984 27.1824 19.5896 27.1774 19.5805C27.1742 19.5743 27.1708 19.5684 27.1676 19.5623C27.1601 19.5495 27.1527 19.5368 27.1448 19.5242C27.1406 19.5176 27.1364 19.5112 27.1322 19.5048C27.1275 19.4975 27.1226 19.4903 27.1176 19.4832C27.1127 19.4761 27.1077 19.4692 27.1028 19.4623C27.0978 19.4557 27.0929 19.4491 27.088 19.4427C27.0786 19.4304 27.0689 19.4184 27.059 19.4063C27.0546 19.4012 27.0504 19.3958 27.0459 19.3906C27.0392 19.383 27.0326 19.3751 27.0256 19.3675C27.0217 19.3631 27.0177 19.3589 27.0138 19.3545C26.9896 19.3282 26.9638 19.3027 26.9369 19.2781C26.9339 19.2754 26.9307 19.2725 26.9277 19.2698C26.8983 19.2432 26.8674 19.2179 26.835 19.1936C26.8338 19.1926 26.8323 19.1917 26.8311 19.1907C26.8199 19.1823 26.8086 19.174 26.797 19.1659C26.7967 19.1656 26.7965 19.1654 26.7962 19.1654C26.7606 19.1403 26.7235 19.1165 26.6847 19.0939C26.6842 19.0937 26.6837 19.0934 26.6832 19.0929C26.6444 19.0703 26.6044 19.0489 26.5628 19.0288C26.3762 19.119 26.1626 19.1821 25.9316 19.2125V19.2469C26.7146 19.3496 27.3021 19.8293 27.3021 20.4632V20.0617C27.3021 20.044 27.3013 20.0265 27.3006 20.0091C27.3003 20.0042 27.3001 19.9995 27.2996 19.9946C27.2981 19.9799 27.2969 19.9656 27.2954 19.9519Z" fill="#171717"/>
<path d="M25.2126 12.0683C25.1758 12.0612 25.1382 12.0546 25.1001 12.0484C25.0907 12.0469 25.0811 12.0455 25.0715 12.0437C25.0423 12.0391 25.0129 12.0347 24.9832 12.0305C24.9721 12.029 24.9609 12.0273 24.9496 12.0258C24.9192 12.0216 24.8885 12.018 24.8576 12.0143C24.8482 12.0133 24.8388 12.0121 24.8294 12.0111C24.7488 12.0022 24.6665 11.9951 24.5822 11.9895C24.5698 11.9887 24.5575 11.988 24.5448 11.9873C24.5149 11.9855 24.4848 11.9838 24.4544 11.9826C24.44 11.9818 24.4254 11.9814 24.4109 11.9809C24.3807 11.9796 24.35 11.9789 24.3194 11.9779C24.306 11.9777 24.2927 11.9772 24.2791 11.9769C24.2353 11.9762 24.1913 11.9757 24.1466 11.9757H18.9262C18.7087 11.9757 18.5781 12.0614 18.5781 12.2498V12.6514C18.5781 12.463 18.7087 12.3773 18.9262 12.3773H24.1471C24.774 12.3773 25.3125 12.4581 25.7585 12.6163L25.2126 12.0683Z" fill="#171717"/>
<path d="M31.9882 14.8811L17.265 0.111084L10.4648 6.93302V7.33461L17.265 0.512678L31.2542 14.5466H28.4167L27.1961 13.3222C27.2344 13.4541 27.2619 13.5936 27.2794 13.7402L28.4167 14.8811H31.5879H31.9882Z" fill="#171717"/>
<path d="M24.4082 23.1349V22.7333C24.4082 23.1958 24.1036 23.4186 23.5382 23.4186H21.4004V23.8202H23.5382C24.1039 23.8199 24.4082 23.5974 24.4082 23.1349Z" fill="#171717"/>
<path d="M24.4082 17.0289C24.4082 17.4573 24.1036 17.697 23.5382 17.697H21.7725C21.6778 17.7923 21.6093 17.8611 21.5821 17.8879C21.5225 17.9466 21.4617 18.0063 21.4004 18.0667V18.0984H23.5382C24.1036 18.0984 24.4082 17.8586 24.4082 17.4303V17.0289Z" fill="#171717"/>
<path d="M13.2087 17.6971H9.94922V18.0987H13.2087V17.6971Z" fill="#1180C3"/>
<path d="M3.2748 14.5467L7.22831 10.5807V10.1791L2.54102 14.8813H2.94129L3.2748 14.5467Z" fill="#1180C3"/>
<path d="M15.5597 11.9756H13.5571C13.3395 11.9756 13.209 12.0783 13.209 12.2497V12.6513C13.209 12.4801 13.3395 12.3772 13.5571 12.3772H15.5597C15.8208 12.3772 15.9295 12.4799 15.9295 12.6513V12.2497C15.9293 12.0785 15.8205 11.9756 15.5597 11.9756Z" fill="#1180C3"/>
<path d="M9.94882 5.78709V5.3855H7.62458H7.22852V5.78709H7.62458H9.94882Z" fill="#1180C3"/>
<path d="M15.4727 8.09427C15.4725 8.09894 15.472 8.1036 15.4717 8.10852C15.4712 8.1181 15.4707 8.12768 15.4702 8.13725C15.4695 8.15813 15.4688 8.17901 15.4688 8.20013H15.4826C15.491 8.13652 15.5039 8.07438 15.5202 8.01371C15.6922 7.36919 16.2829 6.89391 16.9858 6.89391V6.69324C16.1835 6.69299 15.5273 7.31147 15.4727 8.09427Z" fill="#1180C3"/>
<path d="M19.0086 8.01371C19.0249 8.07438 19.0375 8.13676 19.0461 8.20013H19.06C19.06 8.17901 19.0592 8.15813 19.0585 8.13725C19.058 8.12768 19.0578 8.1181 19.057 8.10876C19.0568 8.10385 19.0563 8.09894 19.0558 8.09427C19.0009 7.31147 18.3447 6.69324 17.543 6.69324V6.89391C18.2459 6.89367 18.8365 7.36895 19.0086 8.01371Z" fill="#1180C3"/>
<path d="M19.06 8.75293H17.543V8.9536H19.06V8.75293Z" fill="#1180C3"/>
<path d="M16.9858 8.75293H15.4688V8.9536H16.9858V8.75293Z" fill="#1180C3"/>
<path d="M39.39 26H37.11V15.23H39.39V19.475H44.055V15.23H46.335V26H44.055V21.44H39.39V26ZM51.7604 26.15C49.4354 26.15 47.6954 24.32 47.6954 21.995C47.6954 19.655 49.4354 17.84 51.7604 17.84C54.0854 17.84 55.8254 19.655 55.8254 21.995C55.8254 24.32 54.0854 26.15 51.7604 26.15ZM51.7604 24.305C52.7954 24.305 53.6804 23.48 53.6804 21.995C53.6804 20.51 52.7954 19.7 51.7604 19.7C50.7254 19.7 49.8404 20.51 49.8404 21.995C49.8404 23.48 50.7254 24.305 51.7604 24.305ZM59.091 26H57.006V17.99H58.926V19.13C59.511 18.32 60.261 17.84 61.326 17.84C62.421 17.84 63.261 18.35 63.666 19.265C64.296 18.38 65.106 17.84 66.306 17.84C67.926 17.84 69.021 18.905 69.021 20.825V26H66.951V21.485C66.951 20.36 66.471 19.685 65.556 19.685C64.731 19.685 64.056 20.33 64.056 21.53V26H61.986V21.485C61.986 20.36 61.506 19.685 60.591 19.685C59.751 19.685 59.091 20.33 59.091 21.53V26ZM74.1348 26.135C71.7348 26.135 70.1298 24.47 70.1298 21.965C70.1298 19.58 71.7948 17.84 74.1048 17.84C76.6398 17.84 78.3198 19.895 77.9448 22.505H72.2598C72.3948 23.81 73.0248 24.53 74.0898 24.53C75.0048 24.53 75.6198 24.08 75.8598 23.285H77.9298C77.4798 25.1 76.0848 26.135 74.1348 26.135ZM74.0598 19.37C73.0848 19.37 72.4698 20 72.2898 21.185H75.7398C75.6798 20.075 75.0498 19.37 74.0598 19.37ZM87.4263 22.835C87.4263 24.83 85.9563 26 83.5863 26H79.3713V15.23H83.4213C85.6863 15.23 87.0813 16.25 87.0813 18.095C87.0813 19.085 86.5263 19.88 85.5663 20.375C86.7663 20.795 87.4263 21.65 87.4263 22.835ZM83.2413 17.03H81.4413V19.535H83.2413C84.3513 19.535 84.9213 19.055 84.9213 18.275C84.9213 17.51 84.3513 17.03 83.2413 17.03ZM83.4063 21.35H81.4413V24.2H83.4063C84.6363 24.2 85.2813 23.66 85.2813 22.745C85.2813 21.89 84.6363 21.35 83.4063 21.35ZM90.8382 22.115V26H88.7532V17.99H90.6732V19.535C91.2582 18.515 92.5032 17.9 93.7932 17.9V20.06C92.0232 19.925 90.8382 20.345 90.8382 22.115ZM97.1413 16.13C97.1413 16.835 96.5713 17.36 95.7463 17.36C94.9363 17.36 94.3663 16.835 94.3663 16.13C94.3663 15.395 94.9363 14.87 95.7463 14.87C96.5713 14.87 97.1413 15.395 97.1413 16.13ZM96.8113 26H94.7263V17.99H96.8113V26ZM97.9917 21.995C97.9917 19.625 99.3867 17.84 101.547 17.84C102.507 17.84 103.317 18.26 103.917 19.025V15.23H105.987V26H104.082V24.845C103.452 25.685 102.582 26.15 101.547 26.15C99.3867 26.15 97.9917 24.335 97.9917 21.995ZM100.137 21.995C100.137 23.495 100.992 24.29 102.012 24.29C103.047 24.29 103.902 23.48 103.902 21.965C103.902 20.45 103.032 19.685 102.012 19.685C100.992 19.685 100.137 20.465 100.137 21.995ZM111.103 29.045C108.943 29.045 107.503 27.875 107.413 26.03H109.423C109.513 26.945 110.098 27.425 111.088 27.425C112.243 27.425 112.843 26.81 112.843 25.655V24.485C112.408 25.25 111.583 25.7 110.608 25.7C108.643 25.7 107.173 24.035 107.173 21.77C107.173 19.445 108.553 17.84 110.533 17.84C111.613 17.84 112.423 18.26 113.008 19.085V17.99H114.913V25.625C114.913 27.755 113.473 29.045 111.103 29.045ZM109.258 21.77C109.258 23.075 109.933 23.9 111.013 23.9C112.108 23.9 112.828 23.045 112.828 21.785C112.828 20.48 112.108 19.64 111.013 19.64C109.948 19.64 109.258 20.465 109.258 21.77ZM120.124 26.135C117.724 26.135 116.119 24.47 116.119 21.965C116.119 19.58 117.784 17.84 120.094 17.84C122.629 17.84 124.309 19.895 123.934 22.505H118.249C118.384 23.81 119.014 24.53 120.079 24.53C120.994 24.53 121.609 24.08 121.849 23.285H123.919C123.469 25.1 122.074 26.135 120.124 26.135ZM120.049 19.37C119.074 19.37 118.459 20 118.279 21.185H121.729C121.669 20.075 121.039 19.37 120.049 19.37ZM135.546 26L134.736 23.69H130.551L129.726 26H127.431L131.481 15.23H133.971L137.991 26H135.546ZM132.666 17.72L131.196 21.875H134.106L132.666 17.72ZM141.433 26H139.153V15.23H141.433V26Z" fill="#212121"/>
</svg>
