<svg width="100" height="100" viewBox="0 0 100 100" fill="none" xmlns="http://www.w3.org/2000/svg">
<path d="M39.6074 72.7246C39.6134 72.7314 39.6202 72.7375 39.6262 72.7443C39.6202 72.7375 39.6142 72.7307 39.6074 72.7246Z" fill="#046299"/>
<path d="M40.5938 73.9062C40.5997 73.9144 40.605 73.9219 40.611 73.93C40.605 73.9219 40.599 73.9137 40.5938 73.9062Z" fill="#046299"/>
<path d="M41.2637 74.9717C41.2705 74.984 41.2774 74.997 41.2836 75.0093C41.2767 74.997 41.2705 74.984 41.2637 74.9717Z" fill="#046299"/>
<path d="M38.4473 71.6877C38.4486 71.6896 38.45 71.6909 38.4521 71.6927C38.4651 71.7027 38.4789 71.7127 38.4919 71.7233C38.4761 71.7115 38.4617 71.699 38.4473 71.6877Z" fill="#046299"/>
<path d="M38.8242 71.9929C38.8737 72.0349 38.9238 72.0769 38.9726 72.1195C38.9238 72.0775 38.8737 72.0349 38.8242 71.9929Z" fill="#046299"/>
<path d="M39.6413 72.7609C39.6351 72.7548 39.6296 72.748 39.6235 72.7418C39.618 72.7356 39.6118 72.7301 39.6063 72.7239C39.5678 72.6844 39.5287 72.6461 39.4902 72.6072C39.5411 72.6584 39.5919 72.7091 39.6413 72.7609Z" fill="#046299"/>
<path d="M39.2754 72.3975C39.3255 72.445 39.3757 72.4926 39.4251 72.5413C39.3763 72.4932 39.3262 72.4456 39.2754 72.3975Z" fill="#046299"/>
<path d="M99.9989 78.637H98.793V78.6376L99.9989 78.637Z" fill="#046299"/>
<path d="M0.00755541 99.5747C0.0061819 99.6136 0.00343378 99.6513 0 99.6896C0 99.6902 0 99.6914 0 99.692C0.00343378 99.6537 0.0061819 99.6142 0.00755541 99.5747Z" fill="#FFFBFB"/>
<path d="M15.8857 99.9119C15.885 99.9381 15.8822 99.9637 15.8809 99.9899C15.8809 99.9937 15.8815 99.9968 15.8815 99.9999C15.8836 99.9706 15.8843 99.9412 15.8857 99.9119Z" fill="#FFFBFB"/>
<path d="M74.5391 47.9714C74.629 48.0326 74.7149 48.0968 74.7966 48.1629C74.7149 48.0968 74.629 48.0332 74.5391 47.9714Z" fill="#FFFBFB"/>
<path d="M74.1211 47.7207C74.2282 47.7775 74.3319 47.8374 74.4308 47.9004C74.3312 47.8374 74.2282 47.7775 74.1211 47.7207Z" fill="#FFFBFB"/>
<path d="M62.4492 63.4372H64.458L64.4552 63.4309H62.4526L62.4492 63.4372Z" fill="#FFFBFB"/>
<path d="M86.817 36.2903L47.9583 1.00952L29.0684 18.1596V25.3163L47.9576 8.1662L72.834 30.7378C72.4329 30.6094 72.0051 30.5013 71.5504 30.4137L47.9576 9.00784L71.5504 30.4279C71.0821 30.2778 70.5766 30.1555 70.0354 30.0617L71.5504 31.4375C70.3115 31.0398 68.8158 30.8366 67.0741 30.8366H52.5733C51.9689 30.8366 51.6063 31.0521 51.6063 31.5258V62.7484C51.6063 63.1788 51.9689 63.4375 52.5733 63.4375H59.2781V63.4128H60.3741V63.4375H61.4057L62.9866 60.0969H63.9473L65.5283 63.4375H66.7555V60.1278H67.7973V63.4252C73.0139 63.2467 75.8344 61.109 75.8344 57.2361V51.1631C75.8344 49.57 74.2034 48.364 72.0277 48.1053V48.0188C72.6691 47.9429 73.2625 47.7836 73.781 47.557C73.2625 47.3303 72.6691 47.1716 72.0277 47.0951V47.0086C72.5867 46.9426 73.1087 46.8129 73.577 46.6313C73.1087 46.4492 72.5861 46.3201 72.0277 46.2541V46.1676C74.2027 45.9095 75.8344 44.7035 75.8344 43.1098V37.0368C75.8344 36.3181 75.7355 35.6604 75.5439 35.0621L75.7973 35.2924C75.7527 34.854 75.6682 34.4403 75.5439 34.0525L78.9344 37.1307L75.7753 34.2625C75.7273 33.8938 75.6504 33.5431 75.5439 33.2115L78.9344 36.2897H86.817V36.2903ZM67.7987 51.6169V56.8711V57.8807C67.7987 59.0435 66.9526 59.6035 65.382 59.6035H59.4436V58.5939V50.7475C59.0741 51.0766 58.6875 51.4206 58.2816 51.78C58.1752 51.8744 58.0666 51.9701 57.9575 52.0665C57.932 52.0887 57.9087 52.1097 57.886 52.1301C57.8778 52.1375 57.8695 52.1449 57.862 52.1523C57.8489 52.164 57.8366 52.1751 57.8249 52.1863C57.8167 52.1943 57.8077 52.2023 57.7995 52.2097C57.7892 52.2196 57.7803 52.2283 57.7707 52.2369C57.7638 52.2437 57.7562 52.2505 57.7501 52.2567C57.6704 52.3351 57.6395 52.3764 57.6587 52.3802C57.6608 52.3808 57.6628 52.382 57.6635 52.3845C57.7384 52.587 57.7837 52.7945 57.8016 53.005C57.8043 53.0396 57.8071 53.0742 57.8084 53.1088C57.8084 53.1131 57.8084 53.1174 57.8091 53.1218C57.8091 53.1224 57.8091 53.123 57.8091 53.1236C57.8091 53.1273 57.8091 53.1304 57.8091 53.1341C57.8105 53.1699 57.8112 53.2063 57.8105 53.2428C57.8105 53.2551 57.8098 53.2681 57.8091 53.2811C57.8091 53.2885 57.8084 53.2965 57.8084 53.3039C57.8077 53.3249 57.8071 53.3459 57.8057 53.3669C57.8029 53.4095 57.7995 53.4527 57.7947 53.4953C57.7947 53.496 57.7947 53.4966 57.7947 53.4972C57.7871 53.5639 57.6635 53.7257 57.4245 53.9813C57.4067 54.0004 57.3881 54.0183 57.3689 54.0363C57.292 54.1073 57.2013 54.169 57.0983 54.2221C57.0468 54.2487 56.9919 54.2728 56.9342 54.2944C56.9053 54.3055 56.8751 54.3154 56.8449 54.3252C56.687 54.3753 56.5269 54.4006 56.3642 54.4006C56.2989 54.4006 56.2337 54.3969 56.1678 54.3888C56.1348 54.3851 56.1018 54.3802 56.0682 54.374C55.7406 54.3154 55.4597 54.1665 55.2262 53.927C55.2255 53.9257 55.2242 53.9251 55.2235 53.9239C55.2063 53.906 55.1898 53.8881 55.174 53.8702C55.1685 53.864 55.1644 53.8584 55.1589 53.8522C55.1472 53.8387 55.1363 53.8251 55.1253 53.8115C55.1205 53.8047 55.1157 53.7979 55.1109 53.7917C55.1006 53.7781 55.0909 53.7646 55.0813 53.751C55.0772 53.7448 55.0731 53.738 55.069 53.7318C55.0593 53.7176 55.0504 53.7034 55.0415 53.6886C55.0381 53.6824 55.0346 53.6763 55.0312 53.6707C55.0223 53.6559 55.014 53.6404 55.0058 53.625C55.003 53.6195 55.0003 53.6145 54.9975 53.609C54.9893 53.5929 54.9817 53.5762 54.9742 53.5602C54.9721 53.5552 54.9701 53.5509 54.968 53.546C54.9604 53.5287 54.9536 53.5114 54.9467 53.4941C54.9453 53.4904 54.944 53.4861 54.9426 53.4824C54.9357 53.4638 54.9295 53.4453 54.924 53.4268C54.9234 53.4237 54.9227 53.4206 54.9213 53.4175C54.9158 53.3978 54.9103 53.3786 54.9055 53.3589C54.9048 53.3564 54.9048 53.3545 54.9041 53.3521C54.8993 53.3317 54.8952 53.3107 54.8911 53.2903C54.8911 53.2885 54.8904 53.2872 54.8904 53.2854C54.887 53.2638 54.8835 53.2428 54.8808 53.2212C54.8808 53.2199 54.8808 53.2193 54.8808 53.2181C54.878 53.1959 54.876 53.1736 54.8753 53.1514C54.8753 53.1508 54.8753 53.1508 54.8753 53.1502C54.8732 53.1193 54.8732 53.0878 54.8739 53.0569C54.8739 53.0569 54.8739 53.0569 54.8739 53.0563C54.8753 52.9933 54.8822 52.931 54.8931 52.8686C54.8938 52.8667 54.8938 52.8649 54.8945 52.863C54.9062 52.8019 54.922 52.7414 54.9433 52.6821C54.944 52.6796 54.9447 52.6778 54.946 52.6753C54.9556 52.6481 54.9666 52.6216 54.9776 52.5957C54.979 52.5926 54.9804 52.5895 54.9817 52.5858C54.9948 52.5574 55.0085 52.529 55.0236 52.5012C55.0236 52.5006 55.0243 52.4999 55.0243 52.4993C55.0381 52.4734 55.0532 52.4481 55.0696 52.4234C55.0731 52.4178 55.0765 52.4129 55.0799 52.4079C55.0964 52.3832 55.1129 52.3585 55.1314 52.3345C55.1321 52.3338 55.1321 52.3332 55.1328 52.332C55.1514 52.3073 55.1713 52.2832 55.1919 52.2597C55.1967 52.2542 55.2015 52.2492 55.2063 52.2437C55.2235 52.2245 55.2413 52.206 55.2592 52.1881C55.264 52.1832 55.2688 52.1789 55.2736 52.1739C55.2963 52.1523 55.3196 52.1313 55.3437 52.1109C55.3485 52.1072 55.3533 52.1029 55.3581 52.0992C55.3787 52.0825 55.3993 52.0665 55.4206 52.0504C55.4274 52.0449 55.435 52.0399 55.4426 52.035C55.4693 52.0164 55.4968 51.9979 55.525 51.9806C56.0043 51.6886 56.6622 51.6762 57.1601 51.9646C57.1656 51.9677 57.1725 51.9695 57.1787 51.9689C57.1849 51.9683 57.191 51.9658 57.1958 51.9615L59.4422 49.9503V49.8941V49.0531H65.3806C67.0116 49.0531 67.7973 49.6558 67.7973 50.7759V51.6169H67.7987ZM67.7987 37.2338V42.5306V43.5402C67.7987 44.6171 66.9526 45.2198 65.382 45.2198H59.4436V45.1401C59.059 45.4822 58.6621 45.8348 58.25 46.1997C58.1017 46.3312 57.9513 46.4646 57.7988 46.5986C57.7631 46.6301 57.7308 46.6591 57.6999 46.6869C57.6882 46.6974 57.6773 46.7073 57.6663 46.7178C57.6484 46.7345 57.6312 46.7499 57.6148 46.7653C57.6031 46.7765 57.5907 46.7876 57.5797 46.7981C57.5653 46.8117 57.5523 46.824 57.5399 46.8364C57.5303 46.8456 57.52 46.8555 57.5111 46.8635C57.4005 46.9728 57.3572 47.0302 57.384 47.0352C57.3874 47.0358 57.3902 47.0383 57.3909 47.0414C57.4946 47.3235 57.5578 47.6119 57.5832 47.9052C57.5873 47.9534 57.5907 48.0009 57.5928 48.0491C57.5928 48.0553 57.5928 48.0608 57.5935 48.067C57.5935 48.0676 57.5935 48.0682 57.5935 48.0695C57.5935 48.0744 57.5935 48.0794 57.5942 48.0843C57.5955 48.1343 57.5969 48.1849 57.5962 48.2356C57.5962 48.2529 57.5948 48.2708 57.5948 48.2887C57.5948 48.2992 57.5942 48.3097 57.5942 48.3202C57.5928 48.3492 57.5928 48.3788 57.5907 48.4079C57.5873 48.4671 57.5825 48.527 57.5756 48.5869C57.5756 48.5875 57.5756 48.5888 57.5756 48.5894C57.5653 48.6826 57.3929 48.9068 57.0605 49.2637C57.0358 49.2902 57.0104 49.3156 56.9836 49.3403C56.8765 49.4391 56.7508 49.5255 56.6073 49.599C56.5359 49.6354 56.459 49.6694 56.3786 49.6996C56.3381 49.7151 56.2969 49.7293 56.2543 49.7429C56.0345 49.8126 55.812 49.8478 55.5854 49.8478C55.4947 49.8478 55.4034 49.8423 55.3114 49.8312C55.2654 49.8256 55.2194 49.8188 55.1733 49.8102C54.7173 49.7287 54.3266 49.5212 54.0011 49.1877C53.9997 49.1865 53.9983 49.1847 53.9969 49.1834C53.9729 49.1587 53.9495 49.134 53.9276 49.1081C53.9207 49.1001 53.9138 49.0914 53.907 49.0828C53.8912 49.0636 53.8754 49.0451 53.8603 49.026C53.8534 49.0167 53.8465 49.0074 53.8397 48.9982C53.8259 48.9796 53.8115 48.9605 53.7985 48.9414C53.7923 48.9327 53.7875 48.9235 53.7813 48.9148C53.7682 48.8951 53.7552 48.8747 53.7428 48.8549C53.738 48.8463 53.7332 48.8382 53.7284 48.8296C53.7161 48.8086 53.7044 48.7876 53.6934 48.766C53.6893 48.7586 53.6858 48.7512 53.6824 48.7438C53.6714 48.7209 53.6597 48.6987 53.6501 48.6758C53.6474 48.6691 53.6446 48.6629 53.6419 48.6561C53.6316 48.632 53.6213 48.6079 53.6123 48.5838C53.6103 48.5783 53.6089 48.5733 53.6069 48.5678C53.5972 48.5419 53.589 48.5165 53.5808 48.4906C53.5794 48.4863 53.5787 48.482 53.5773 48.4776C53.5691 48.4505 53.5615 48.4233 53.5553 48.3955C53.5547 48.3924 53.554 48.3893 53.5533 48.3862C53.5464 48.3578 53.5402 48.3288 53.5354 48.3004C53.5347 48.2979 53.5347 48.2961 53.5341 48.2936C53.5286 48.264 53.5244 48.2343 53.521 48.2041C53.521 48.2029 53.521 48.2016 53.5203 48.1998C53.5169 48.1689 53.5141 48.138 53.5121 48.1071C53.5121 48.1065 53.5121 48.1059 53.5121 48.1059C53.5093 48.0627 53.5093 48.0195 53.51 47.9762V47.9756C53.5121 47.8879 53.521 47.8009 53.5368 47.7144C53.5375 47.7119 53.5375 47.7089 53.5382 47.7064C53.554 47.6212 53.5766 47.5372 53.6055 47.4551C53.6069 47.452 53.6075 47.4489 53.6089 47.4452C53.6227 47.4075 53.6371 47.3705 53.6535 47.334C53.6556 47.3297 53.6577 47.3254 53.659 47.3205C53.6769 47.2809 53.6961 47.2414 53.7167 47.2031C53.7174 47.2025 53.7174 47.2013 53.7181 47.2007C53.7373 47.1649 53.7586 47.1297 53.7806 47.0951C53.7854 47.0877 53.7902 47.0803 53.795 47.0735C53.8177 47.0389 53.841 47.0049 53.8664 46.9716C53.8671 46.9703 53.8678 46.9697 53.8685 46.9685C53.8946 46.9345 53.9221 46.9012 53.9509 46.8685C53.9578 46.8611 53.9646 46.8536 53.9715 46.8462C53.9956 46.8197 54.0196 46.7944 54.0457 46.769C54.0526 46.7623 54.0587 46.7555 54.0656 46.7493C54.0972 46.719 54.1295 46.69 54.1631 46.6616C54.17 46.656 54.1769 46.6505 54.1837 46.6455C54.2119 46.6227 54.2414 46.5999 54.2709 46.5782C54.2812 46.5708 54.2909 46.5634 54.3012 46.5566C54.3382 46.5307 54.376 46.5048 54.4159 46.4807C55.0834 46.0738 55.9988 46.0571 56.6918 46.4578C56.7 46.4628 56.7089 46.4646 56.7172 46.4634C56.7261 46.4628 56.7343 46.4591 56.7405 46.4535L59.4429 44.0336V36.3564C58.8626 36.8787 58.2445 37.4326 58.1861 37.4851C57.7803 37.847 57.3531 38.2267 56.9047 38.6238C56.7927 38.7232 56.6794 38.8232 56.5647 38.9251C56.5379 38.9486 56.5132 38.9708 56.4899 38.9918C56.4809 38.9998 56.4727 39.0072 56.4644 39.0153C56.4507 39.0276 56.4377 39.0393 56.4253 39.0511C56.4164 39.0597 56.4074 39.0677 56.3992 39.0758C56.3882 39.0856 56.3786 39.0955 56.369 39.1042C56.3621 39.111 56.3539 39.1184 56.3477 39.1252C56.2639 39.2073 56.2316 39.2511 56.2522 39.2548C56.255 39.2555 56.257 39.2573 56.2577 39.2592C56.336 39.4722 56.3841 39.6896 56.4026 39.9112C56.4061 39.9477 56.4081 39.9835 56.4102 40.0199C56.4102 40.0242 56.4102 40.0292 56.4109 40.0335C56.4109 40.0341 56.4109 40.0347 56.4109 40.0353C56.4109 40.0391 56.4109 40.0428 56.4109 40.0465C56.4123 40.0841 56.4129 40.1224 56.4123 40.1607C56.4123 40.1743 56.4116 40.1872 56.4109 40.2008C56.4109 40.2089 56.4102 40.2169 56.4102 40.2249C56.4095 40.2471 56.4088 40.2688 56.4074 40.291C56.4047 40.3361 56.4013 40.3805 56.3958 40.4262C56.3958 40.4268 56.3958 40.4274 56.3958 40.4281C56.3882 40.4985 56.2584 40.6677 56.0071 40.9369C55.9885 40.9566 55.9693 40.9758 55.9487 40.9949C55.8677 41.0696 55.7729 41.1345 55.6651 41.19C55.6108 41.2178 55.5531 41.2432 55.4927 41.266C55.4625 41.2777 55.4309 41.2882 55.3986 41.2987C55.2331 41.3512 55.0648 41.3778 54.8938 41.3778C54.8252 41.3778 54.7565 41.3734 54.6871 41.3654C54.6528 41.3611 54.6178 41.3561 54.5827 41.35C54.2387 41.2882 53.944 41.132 53.6982 40.8801C53.6968 40.8788 53.6961 40.8776 53.6954 40.877C53.6776 40.8585 53.6597 40.8393 53.6433 40.8202C53.6378 40.814 53.6329 40.8078 53.6275 40.801C53.6158 40.7868 53.6034 40.7726 53.5924 40.7578C53.5869 40.751 53.5821 40.7436 53.5773 40.7368C53.567 40.7226 53.556 40.7084 53.5464 40.6942C53.5416 40.6874 53.5382 40.6806 53.5334 40.6744C53.5238 40.6596 53.5135 40.6442 53.5045 40.6294C53.5004 40.6232 53.4977 40.6164 53.4935 40.6102C53.4846 40.5942 53.475 40.5787 53.4668 40.5621C53.464 40.5565 53.4613 40.5509 53.4585 40.5448C53.4503 40.5275 53.4413 40.5108 53.4338 40.4935C53.4317 40.4886 53.4297 40.4836 53.4276 40.4787C53.4201 40.4608 53.4125 40.4423 53.4056 40.4237C53.4043 40.4194 53.4029 40.4157 53.4015 40.4114C53.3946 40.3923 53.3878 40.3725 53.3816 40.3527C53.3809 40.3496 53.3795 40.3466 53.3788 40.3435C53.3727 40.3231 53.3672 40.3021 53.3624 40.2817C53.3617 40.2793 53.3617 40.2768 53.361 40.2743C53.3562 40.2527 53.3514 40.2311 53.3473 40.2095C53.3473 40.2076 53.3466 40.2064 53.3466 40.2045C53.3424 40.1823 53.339 40.1595 53.337 40.1372C53.337 40.136 53.337 40.1354 53.337 40.1341C53.3342 40.1107 53.3321 40.0878 53.3308 40.0644C53.3308 40.0637 53.3308 40.0638 53.3308 40.0631C53.3287 40.0304 53.3287 39.9977 53.3294 39.965C53.3294 39.965 53.3294 39.9649 53.3294 39.9643C53.3308 39.8983 53.3376 39.8328 53.35 39.7674C53.3507 39.7655 53.3507 39.7637 53.3514 39.7612C53.3637 39.697 53.3802 39.6334 53.4022 39.5716C53.4029 39.5691 53.4043 39.5667 53.4049 39.5642C53.4152 39.5358 53.4262 39.508 53.4386 39.4802C53.44 39.4771 53.4413 39.4734 53.4427 39.4703C53.4565 39.4407 53.4709 39.4111 53.4867 39.3814C53.4874 39.3808 53.4874 39.3802 53.488 39.3796C53.5025 39.3524 53.5189 39.3259 53.5354 39.2999C53.5389 39.2944 53.5423 39.2888 53.5457 39.2832C53.5629 39.2573 53.5808 39.2314 53.6 39.2067C53.6007 39.2061 53.6014 39.2048 53.6014 39.2042C53.6213 39.1783 53.6419 39.1536 53.6632 39.1289C53.668 39.1233 53.6735 39.1178 53.6783 39.1116C53.6961 39.0918 53.7147 39.0721 53.7339 39.0535C53.7387 39.0486 53.7435 39.0437 53.749 39.0387C53.7724 39.0159 53.7971 38.9936 53.8225 38.9726C53.8273 38.9683 53.8328 38.9646 53.8376 38.9603C53.8589 38.943 53.8809 38.9257 53.9035 38.9097C53.9111 38.9041 53.9186 38.8986 53.9262 38.893C53.9544 38.8732 53.9832 38.8541 54.0127 38.8362C54.5168 38.5293 55.207 38.5163 55.7296 38.8189C55.7358 38.8226 55.7427 38.8238 55.7488 38.8232C55.7557 38.8226 55.7619 38.8201 55.7667 38.8158L59.4436 35.5265V35.5122V34.6712H65.382C67.013 34.6712 67.7987 35.2739 67.7987 36.394V37.2338Z" fill="#FFFBFB"/>
<path d="M69.9922 30.0532C70.0073 30.0557 70.0217 30.0588 70.0361 30.0613L70.0355 30.0607C70.0217 30.0576 70.0066 30.0557 69.9922 30.0532Z" fill="#FFFBFB"/>
<path d="M69.9919 30.0537C69.9033 30.0381 69.8133 30.0238 69.7227 30.01C69.814 30.0238 69.9033 30.0387 69.9919 30.0537Z" fill="#FFFBFB"/>
<path d="M62.8262 62.6035H64.0843L63.4552 61.2222L62.8262 62.6035Z" fill="#FFFBFB"/>
<path d="M75.7988 35.2969C75.8084 35.3907 75.816 35.4858 75.8215 35.5822C75.8153 35.4858 75.8084 35.3907 75.7988 35.2969Z" fill="#FFFBFB"/>
<path d="M74.4219 46.2096C74.5091 46.1547 74.5922 46.0973 74.6725 46.0374C74.5929 46.0973 74.5091 46.1547 74.4219 46.2096Z" fill="#FFFBFB"/>
<path d="M40.9492 74.4385C41.0584 74.6126 41.1628 74.7898 41.2617 74.9714C41.1628 74.7904 41.0584 74.6126 40.9492 74.4385Z" fill="#0D72B9"/>
<path d="M25.3301 91.7666C25.534 91.8284 25.7414 91.8858 25.9523 91.9389C25.7421 91.8858 25.5347 91.8284 25.3301 91.7666Z" fill="#0D72B9"/>
<path d="M25.3296 91.7666C25.1078 91.7 24.89 91.6283 24.6758 91.5518C24.89 91.6283 25.1084 91.7 25.3296 91.7666Z" fill="#0D72B9"/>
<path d="M20.0352 88.5247C20.088 88.5827 20.1416 88.6395 20.1959 88.6963C20.1965 88.6969 20.1972 88.6969 20.1972 88.6976C20.143 88.6407 20.0887 88.5833 20.0352 88.5247Z" fill="#0D72B9"/>
<path d="M21.3965 89.7764L21.3972 89.777C21.6842 89.9987 21.9843 90.208 22.2968 90.4044C21.9843 90.208 21.6842 89.9987 21.3965 89.7764Z" fill="#0D72B9"/>
<path d="M22.2969 90.4043C22.4019 90.4704 22.5077 90.5346 22.6155 90.597C22.5077 90.534 22.4013 90.4698 22.2969 90.4043Z" fill="#0D72B9"/>
<path d="M21.4038 89.7835C21.4023 89.7821 21.4008 89.7808 21.4 89.7794C21.391 89.7726 21.382 89.7658 21.373 89.759C21.3828 89.7665 21.3933 89.7753 21.4038 89.7835Z" fill="#0D72B9"/>
<path d="M21.2949 89.6973C21.3203 89.7179 21.3457 89.7385 21.3718 89.7591C21.367 89.7547 21.3615 89.751 21.356 89.7466C21.3361 89.7304 21.3155 89.7135 21.2949 89.6973Z" fill="#0D72B9"/>
<path d="M20.357 88.862C20.379 88.8836 20.4002 88.9058 20.4222 88.9274C20.4332 88.9385 20.4449 88.9496 20.4566 88.9601C20.3838 88.8891 20.311 88.8175 20.2402 88.7446C20.2787 88.7841 20.3178 88.8231 20.357 88.862Z" fill="#0D72B9"/>
<path d="M20.7109 89.1997C20.7501 89.2359 20.7899 89.2722 20.8297 89.3084C20.8181 89.2978 20.8071 89.2878 20.7954 89.2772C20.7673 89.2515 20.7391 89.2253 20.7109 89.1997Z" fill="#0D72B9"/>
<path d="M20.5649 89.065C20.5285 89.0306 20.4927 88.9957 20.457 88.9607C20.4927 88.9957 20.5285 89.03 20.5649 89.065Z" fill="#0D72B9"/>
<path d="M20.5727 89.0717C20.5974 89.0946 20.6215 89.1181 20.6462 89.1409C20.6675 89.1607 20.6894 89.1798 20.7107 89.1996C20.6613 89.1545 20.6125 89.1094 20.5645 89.0637C20.5672 89.0662 20.5699 89.0687 20.5727 89.0717Z" fill="#0D72B9"/>
<path d="M20.9883 89.4441C21.0254 89.4759 21.0618 89.5078 21.0995 89.539C21.0748 89.5178 21.0501 89.4966 21.0254 89.4759C21.013 89.4653 21.0006 89.4547 20.9883 89.4441Z" fill="#0D72B9"/>
<path d="M20.8768 89.3491C20.9132 89.3812 20.9509 89.4127 20.988 89.4442C20.9352 89.3991 20.8823 89.3534 20.8301 89.3071C20.8452 89.3207 20.861 89.3349 20.8768 89.3491Z" fill="#0D72B9"/>
<path d="M38.4473 71.6877C38.4488 71.6891 38.4503 71.6905 38.451 71.6918C38.46 71.6986 38.469 71.7054 38.478 71.7122C38.4675 71.704 38.4578 71.6959 38.4473 71.6877Z" fill="#0D72B9"/>
<path d="M38.4511 71.6927L38.4504 71.6921C38.1634 71.4704 37.8633 71.2604 37.5508 71.0647C37.8633 71.2604 38.1641 71.4704 38.4511 71.6927Z" fill="#0D72B9"/>
<path d="M38.5535 71.7725C38.5274 71.7519 38.502 71.7307 38.4766 71.7107C38.4821 71.7151 38.4869 71.7188 38.4924 71.7232C38.5123 71.7394 38.5329 71.7557 38.5535 71.7725Z" fill="#0D72B9"/>
<path d="M38.8619 72.026C38.8249 71.9941 38.7878 71.9617 38.75 71.9304C38.7747 71.9517 38.7994 71.9729 38.8242 71.9935C38.8365 72.0047 38.8489 72.0154 38.8619 72.026Z" fill="#0D72B9"/>
<path d="M39.1364 72.2705C39.0972 72.2343 39.0574 72.1975 39.0176 72.1619C39.0293 72.1725 39.0402 72.1825 39.0519 72.1931C39.0801 72.2187 39.1082 72.2443 39.1364 72.2705Z" fill="#0D72B9"/>
<path d="M37.5511 71.064C37.446 70.9985 37.3402 70.9337 37.2324 70.8713C37.3396 70.9343 37.446 70.9985 37.5511 71.064Z" fill="#0D72B9"/>
<path d="M39.2832 72.4053C39.3196 72.4403 39.3553 72.4746 39.391 72.5102C39.3553 72.4746 39.3189 72.4396 39.2832 72.4053Z" fill="#0D72B9"/>
<path d="M38.7347 71.9181C38.686 71.8779 38.6365 71.8384 38.5871 71.7989C38.5754 71.7896 38.5644 71.781 38.5527 71.7717C38.6187 71.8242 38.6846 71.8767 38.7491 71.9304C38.7443 71.9261 38.7395 71.9224 38.7347 71.9181Z" fill="#0D72B9"/>
<path d="M41.8581 76.2763C41.8361 76.2541 41.8148 76.2318 41.7922 76.2102C41.7812 76.1991 41.7695 76.1886 41.7578 76.1775C41.8306 76.2485 41.9034 76.3201 41.9741 76.393C41.9364 76.3541 41.8972 76.3152 41.8581 76.2763Z" fill="#0D72B9"/>
<path d="M20.1953 88.697C20.205 88.7069 20.2139 88.7169 20.2236 88.7262C20.2174 88.72 20.2119 88.7138 20.2064 88.7076C20.2022 88.7038 20.1988 88.7007 20.1953 88.697Z" fill="#0D72B9"/>
<path d="M18.8965 87.0298C18.7873 86.8557 18.6829 86.6785 18.584 86.4976C18.6836 86.6785 18.7873 86.8557 18.8965 87.0298Z" fill="#0D72B9"/>
<path d="M19.2385 87.5404C19.1197 87.3737 19.0057 87.2033 18.8965 87.0298C19.0057 87.2039 19.1197 87.3743 19.2385 87.5404Z" fill="#0D72B9"/>
<path d="M98.7942 78.6376V78.637H87.5946L86.3887 79.7244L87.6159 78.6401L98.7942 78.6376Z" fill="#0D72B9"/>
<path d="M41.2122 45.7228C40.7315 46.1514 40.226 46.6009 39.6952 47.0708C39.5626 47.1881 39.428 47.3073 39.292 47.4277C39.2605 47.4555 39.2316 47.4814 39.2035 47.5068C39.1932 47.516 39.1829 47.5253 39.1732 47.5339C39.1574 47.5488 39.1416 47.563 39.1272 47.5759C39.1162 47.5858 39.1059 47.5957 39.0963 47.6049C39.0833 47.6167 39.0723 47.6278 39.0606 47.6389C39.0524 47.6469 39.0428 47.6556 39.0352 47.6636C38.9363 47.7612 38.8978 47.8124 38.9219 47.8174C38.9246 47.818 38.9274 47.8198 38.9281 47.8229C39.0208 48.0749 39.0771 48.3323 39.0998 48.5948C39.1032 48.6374 39.1066 48.6806 39.1087 48.7238C39.1087 48.7294 39.1087 48.7343 39.1094 48.7399C39.1094 48.7405 39.1094 48.7411 39.1094 48.7417C39.1094 48.7461 39.1094 48.7504 39.1101 48.7547C39.1114 48.7998 39.1121 48.8442 39.1121 48.8899C39.1121 48.9054 39.1114 48.9214 39.1107 48.9375C39.1107 48.9467 39.1101 48.9566 39.1101 48.9659C39.1094 48.9918 39.1087 49.0184 39.1066 49.0443C39.1032 49.0974 39.0991 49.1505 39.0929 49.2042C39.0929 49.2049 39.0929 49.2061 39.0929 49.2067C39.0833 49.2901 38.9301 49.4907 38.6321 49.8088C38.6101 49.8322 38.5874 49.8551 38.5634 49.8773C38.4673 49.9656 38.3553 50.0428 38.2269 50.1082C38.163 50.141 38.0943 50.1712 38.0222 50.1984C37.9858 50.212 37.9488 50.2249 37.911 50.2373C37.7153 50.2997 37.5154 50.3312 37.3128 50.3312C37.2318 50.3312 37.1501 50.3262 37.0683 50.3163C37.0271 50.3114 36.9859 50.3052 36.9447 50.2978C36.8582 50.2824 36.7744 50.2608 36.6934 50.2348V62.7476C36.6934 63.178 37.056 63.4367 37.6603 63.4367H43.223C43.9483 63.4367 44.2504 63.1786 44.2504 62.7476V49.4821C44.1323 49.5895 44.0471 49.6667 44.0073 49.7025C43.6241 50.044 43.221 50.4022 42.7979 50.777C42.6922 50.8708 42.585 50.9653 42.4765 51.061C42.4511 51.0833 42.4278 51.1042 42.4058 51.124C42.3976 51.1314 42.3893 51.1388 42.3818 51.1456C42.3687 51.1573 42.3564 51.1685 42.3454 51.1796C42.3371 51.1876 42.3282 51.1956 42.3206 51.203C42.3103 51.2123 42.3014 51.2216 42.2925 51.2302C42.2856 51.237 42.2781 51.2438 42.2719 51.25C42.1929 51.3278 42.1627 51.3685 42.1812 51.3722C42.1833 51.3729 42.1854 51.3741 42.186 51.3766C42.2602 51.5772 42.3048 51.7829 42.3234 51.9916C42.3261 52.0255 42.3289 52.0601 42.3303 52.0941C42.3303 52.0984 42.3303 52.1027 42.3309 52.107C42.3309 52.1077 42.3309 52.1083 42.3309 52.1089C42.3309 52.1126 42.3309 52.1157 42.3309 52.1194C42.3323 52.1552 42.333 52.191 42.3323 52.2268C42.3323 52.2392 42.3316 52.2522 42.3309 52.2645C42.3309 52.2719 42.3303 52.2793 42.3303 52.2874C42.3296 52.3083 42.3289 52.3287 42.3275 52.3497C42.3248 52.3923 42.3213 52.4343 42.3165 52.4769C42.3165 52.4775 42.3165 52.4782 42.3165 52.4788C42.309 52.5448 42.1867 52.7048 41.9498 52.9586C41.9326 52.9771 41.9141 52.9956 41.8949 53.0129C41.8186 53.0833 41.7293 53.145 41.627 53.1969C41.5762 53.2228 41.5219 53.2469 41.4643 53.2685C41.4354 53.2797 41.4059 53.2895 41.3757 53.2994C41.2191 53.3494 41.0604 53.3741 40.8991 53.3741C40.8345 53.3741 40.7693 53.3704 40.704 53.3624C40.6711 53.3587 40.6388 53.3538 40.6058 53.3476C40.281 53.2895 40.0028 53.142 39.7714 52.9042C39.7707 52.903 39.7693 52.9024 39.7687 52.9011C39.7515 52.8838 39.735 52.8659 39.7192 52.8474C39.7144 52.8419 39.7096 52.8357 39.7048 52.8295C39.6938 52.8159 39.6821 52.803 39.6718 52.7888C39.667 52.782 39.6622 52.7758 39.6574 52.769C39.6478 52.7554 39.6375 52.7424 39.6279 52.7289C39.6238 52.7227 39.6196 52.7165 39.6155 52.7097C39.6059 52.6955 39.597 52.6813 39.588 52.6671C39.5846 52.6609 39.5812 52.6554 39.5777 52.6492C39.5688 52.6344 39.5606 52.6189 39.5523 52.6041C39.5496 52.5986 39.5468 52.5936 39.5448 52.5881C39.5365 52.572 39.529 52.556 39.5214 52.5399C39.5194 52.5356 39.5173 52.5306 39.5159 52.5257C39.5084 52.5084 39.5015 52.4911 39.4946 52.4738C39.4933 52.4701 39.4919 52.4664 39.4905 52.4621C39.4837 52.4436 39.4775 52.4257 39.472 52.4071C39.4713 52.4041 39.4706 52.401 39.4692 52.3979C39.4637 52.3787 39.4582 52.359 39.4534 52.3392C39.4527 52.3368 39.4527 52.3349 39.4521 52.3324C39.4473 52.312 39.4431 52.2917 39.439 52.2713C39.439 52.2694 39.4383 52.2682 39.4383 52.2664C39.4349 52.2454 39.4315 52.2237 39.4287 52.2028C39.4287 52.2015 39.4287 52.2009 39.4287 52.1997C39.426 52.1781 39.4246 52.1558 39.4232 52.1336C39.4232 52.133 39.4232 52.133 39.4232 52.1324C39.4212 52.1015 39.4212 52.0706 39.4218 52.0397C39.4218 52.0397 39.4218 52.0397 39.4218 52.0391C39.4232 51.9768 39.4294 51.915 39.4411 51.8533C39.4418 51.8514 39.4418 51.8496 39.4424 51.8477C39.4541 51.7872 39.4699 51.7273 39.4905 51.6686C39.4912 51.6662 39.4919 51.6643 39.4933 51.6618C39.5029 51.6353 39.5132 51.6087 39.5249 51.5828C39.5262 51.5797 39.5276 51.5766 39.529 51.5735C39.5413 51.5451 39.5551 51.5173 39.5702 51.4902C39.5702 51.4896 39.5709 51.4889 39.5709 51.4883C39.5846 51.463 39.5997 51.4377 39.6155 51.413C39.6189 51.4081 39.6224 51.4025 39.6258 51.3976C39.6416 51.3729 39.6588 51.3488 39.6766 51.3253C39.6773 51.3247 39.6773 51.3241 39.678 51.3228C39.6965 51.2988 39.7165 51.2747 39.7364 51.2512C39.7412 51.2456 39.746 51.2407 39.7508 51.2352C39.768 51.2166 39.7851 51.1981 39.8037 51.1802C39.8085 51.1753 39.8133 51.1709 39.8181 51.166C39.8408 51.1444 39.8634 51.1234 39.8875 51.1036C39.8923 51.0999 39.8971 51.0962 39.9019 51.0919C39.9218 51.0752 39.9431 51.0592 39.9644 51.0437C39.9712 51.0388 39.9788 51.0332 39.9857 51.0283C40.0125 51.0098 40.0392 50.9919 40.0674 50.9746C40.5426 50.685 41.1944 50.6732 41.6881 50.9585C41.6936 50.9616 41.7005 50.9635 41.7067 50.9628C41.7129 50.9622 41.719 50.9598 41.7232 50.9554L44.2504 48.693V42.9497C43.1434 43.9618 41.4636 45.4987 41.2122 45.7228Z" fill="#0D72B9"/>
<path d="M43.2225 30.836H37.6598C37.0554 30.836 36.6928 31.0941 36.6928 31.5251V44.2101V45.2197H27.6379V44.2101V41.5803V30.5155V27.4565V18.4492V14.2688H21.181H20.0808V25.3101V26.3197L9.09961 36.2903H16.9822L20.0822 33.4757V34.3168V41.5803V62.7477C20.0822 63.1781 20.3844 63.4369 21.1096 63.4369H26.6723C27.2767 63.4369 27.6393 63.1787 27.6393 62.7477V49.8947V49.0537H35.5047C35.5033 49.0469 35.5013 49.0408 35.4992 49.034C35.4985 49.0309 35.4978 49.0284 35.4972 49.0253C35.491 49 35.4855 48.9741 35.4814 48.9487C35.4807 48.9469 35.4807 48.945 35.4807 48.9426C35.4759 48.916 35.4717 48.8895 35.469 48.8629C35.469 48.8617 35.469 48.8604 35.4683 48.8592C35.4649 48.8314 35.4628 48.8043 35.4614 48.7765C35.4614 48.7759 35.4614 48.7759 35.4614 48.7752C35.4594 48.7363 35.4587 48.698 35.4594 48.6591V48.6585C35.4614 48.5807 35.469 48.5023 35.4834 48.4257C35.4841 48.4233 35.4841 48.4208 35.4848 48.4189C35.4992 48.343 35.5191 48.2677 35.5452 48.1942C35.5459 48.1911 35.5473 48.1886 35.5487 48.1855C35.561 48.1522 35.5741 48.1188 35.5885 48.0861C35.5906 48.0824 35.5919 48.0781 35.594 48.0744C35.6098 48.0392 35.627 48.004 35.6455 47.9694C35.6462 47.9688 35.6462 47.9682 35.6469 47.9676C35.664 47.9354 35.6833 47.904 35.7032 47.8731C35.7073 47.8663 35.7114 47.8601 35.7155 47.8533C35.7355 47.8225 35.7567 47.7922 35.7794 47.7626C35.7801 47.7619 35.7808 47.7607 35.7815 47.7601C35.8048 47.7298 35.8295 47.6996 35.855 47.6705C35.8611 47.6638 35.8673 47.657 35.8728 47.6502C35.8941 47.6267 35.9161 47.6039 35.9387 47.581C35.9449 47.5748 35.9504 47.5693 35.9566 47.5631C35.9848 47.5359 36.0136 47.51 36.0438 47.4847C36.05 47.4797 36.0562 47.4748 36.0617 47.4699C36.0871 47.4495 36.1132 47.4291 36.14 47.4094C36.1489 47.4026 36.1578 47.3964 36.1667 47.3896C36.1997 47.3661 36.234 47.3433 36.2691 47.3217C36.8659 46.958 37.6831 46.9431 38.3026 47.3013C38.3094 47.3056 38.3177 47.3069 38.3252 47.3062C38.3328 47.3056 38.3403 47.3025 38.3465 47.297L44.2499 42.0113V31.5251C44.2492 31.0941 43.947 30.836 43.2225 30.836Z" fill="#0D72B9"/>
<path d="M43.1152 19.8663H47.1863V17.0505C45.2339 17.0505 43.5925 18.2454 43.1152 19.8663Z" fill="#0D72B9"/>
<path d="M48.7324 17.0505V19.8657H52.8035C52.3255 18.2454 50.6849 17.0505 48.7324 17.0505Z" fill="#0D72B9"/>
<path d="M52.9464 22.2295H48.7324V24.9921H52.9464V22.2295Z" fill="#0D72B9"/>
<path d="M47.1846 22.2295H42.9707V24.9921H47.1846V22.2295Z" fill="#0D72B9"/>
<path d="M16.9822 36.2903H9.10026L8.17383 37.1314H16.9822L20.0822 34.3175V33.4758L16.9822 36.2903Z" fill="#046299"/>
<path d="M35.8976 49.7417C35.8962 49.7405 35.8955 49.7392 35.8942 49.738C35.8729 49.7158 35.8523 49.6935 35.8324 49.6707C35.8262 49.6633 35.82 49.6559 35.8138 49.6485C35.7994 49.6318 35.7857 49.6145 35.7719 49.5978C35.7657 49.5898 35.7603 49.5812 35.7541 49.5731C35.7417 49.5565 35.7294 49.5398 35.7177 49.5225C35.7122 49.5145 35.7074 49.5064 35.7026 49.499C35.6909 49.4811 35.6792 49.4632 35.6682 49.4453C35.6641 49.4379 35.66 49.4305 35.6559 49.4225C35.6449 49.4039 35.6346 49.3848 35.6243 49.3657C35.6208 49.3589 35.6181 49.3521 35.6147 49.3453C35.6044 49.3249 35.5947 49.3051 35.5858 49.2848C35.5831 49.2792 35.581 49.273 35.5783 49.2675C35.5693 49.2459 35.5597 49.2243 35.5522 49.2026C35.5501 49.1977 35.5487 49.1928 35.5474 49.1884C35.5391 49.1656 35.5309 49.1427 35.524 49.1193C35.5226 49.1156 35.522 49.1119 35.5206 49.1082C35.5151 49.0903 35.511 49.0724 35.5062 49.0544H27.6387V49.8955H36.0659C36.0082 49.8473 35.9519 49.7967 35.8976 49.7417Z" fill="#046299"/>
<path d="M44.2485 63.5888V62.7478C44.2485 63.1782 43.9463 63.4369 43.2211 63.4369H37.6584C37.054 63.4369 36.6914 63.1788 36.6914 62.7478V63.5888C36.6914 64.0192 37.054 64.2779 37.6584 64.2779H43.2211C43.9463 64.2779 44.2485 64.0198 44.2485 63.5888Z" fill="#046299"/>
<path d="M26.6721 63.4369H21.1094C20.3842 63.4369 20.082 63.1788 20.082 62.7478V63.5888C20.082 64.0192 20.3842 64.2779 21.1094 64.2779H26.6721C27.2765 64.2779 27.6391 64.0192 27.6391 63.5888V62.7478C27.6384 63.1782 27.2765 63.4369 26.6721 63.4369Z" fill="#046299"/>
<path d="M42.9805 20.1047C42.9812 20.0929 42.9825 20.0812 42.9832 20.0688C42.9825 20.0812 42.9818 20.0929 42.9805 20.1047Z" fill="#046299"/>
<path d="M47.1872 19.8665H43.1161C43.0708 20.019 43.0358 20.1758 43.0117 20.3351H47.1872V19.8665Z" fill="#046299"/>
<path d="M52.9414 20.177C52.9442 20.2295 52.9455 20.282 52.9455 20.3351C52.9462 20.282 52.9442 20.2295 52.9414 20.177Z" fill="#046299"/>
<path d="M48.7324 19.8665V20.3351H52.9079C52.8845 20.1752 52.8488 20.019 52.8035 19.8665H48.7324Z" fill="#046299"/>
<path d="M52.9464 24.9922H48.7324V25.514H52.9464V24.9922Z" fill="#046299"/>
<path d="M47.1866 24.9922H42.9727V25.514H47.1866V24.9922Z" fill="#046299"/>
<path d="M72.0293 46.1683V46.2547C72.5883 46.3208 73.1102 46.4505 73.5786 46.632C73.5786 46.632 73.5793 46.632 73.5793 46.6314C73.6569 46.6011 73.7331 46.5696 73.808 46.5363C73.8162 46.5326 73.8245 46.5289 73.8334 46.5252C73.8671 46.5104 73.9 46.4949 73.9323 46.4795C73.944 46.4739 73.9563 46.4677 73.968 46.4622C74.0703 46.4122 74.1699 46.3597 74.2654 46.3047C74.2764 46.2986 74.288 46.2918 74.299 46.2856C74.3272 46.2689 74.3553 46.2522 74.3828 46.235C74.3959 46.2269 74.4089 46.2183 74.422 46.2103C74.5092 46.1553 74.5923 46.0979 74.6726 46.038C74.687 46.0275 74.7015 46.017 74.7152 46.0059C74.7372 45.9886 74.7592 45.9719 74.7811 45.954C74.7962 45.9416 74.8113 45.9293 74.8265 45.9169C74.8471 45.8997 74.8677 45.883 74.8876 45.8657C74.9178 45.8398 74.9473 45.8132 74.9762 45.786C74.9933 45.77 75.0105 45.7533 75.0277 45.7366C75.0435 45.7212 75.06 45.7051 75.0751 45.6897C75.0915 45.673 75.1073 45.6564 75.1231 45.6397C75.1396 45.6224 75.1561 45.6045 75.1719 45.5866C75.1856 45.5712 75.2001 45.5557 75.2131 45.5403C75.2399 45.5094 75.2653 45.4785 75.2907 45.447C75.3024 45.4322 75.3134 45.4174 75.325 45.4026C75.3408 45.3816 75.3566 45.3606 75.3717 45.3396C75.3827 45.3242 75.3937 45.3087 75.4047 45.2933C75.4212 45.2692 75.437 45.2451 75.4528 45.221C75.461 45.2087 75.4693 45.1963 75.4768 45.184C75.4988 45.1488 75.5194 45.1136 75.5393 45.0778C75.5469 45.0642 75.5537 45.0512 75.5606 45.0376C75.5743 45.0117 75.5874 44.9864 75.6004 44.9598C75.6073 44.9456 75.6142 44.9314 75.621 44.9172C75.6355 44.8864 75.6485 44.8555 75.6616 44.8246C75.665 44.816 75.6691 44.8079 75.6725 44.7993C75.6883 44.7604 75.7021 44.7209 75.7158 44.6807C75.7199 44.6684 75.724 44.6554 75.7282 44.6431C75.7378 44.6134 75.7467 44.5838 75.755 44.5535C75.7584 44.5399 75.7625 44.527 75.7659 44.5134C75.7756 44.4757 75.7845 44.4381 75.792 44.4004C75.7927 44.3961 75.7941 44.3918 75.7948 44.3874C75.803 44.3454 75.8099 44.3022 75.8154 44.2596C75.8168 44.2473 75.8181 44.2343 75.8202 44.2219C75.8243 44.1898 75.8271 44.1571 75.8298 44.1244C75.8305 44.1114 75.8319 44.0984 75.8326 44.0855C75.8353 44.0416 75.8367 43.9972 75.8367 43.9521V43.1111C75.8353 44.7036 74.2043 45.9095 72.0293 46.1683Z" fill="white"/>
<path d="M62.4515 63.437L62.0703 64.278H64.8421L64.4602 63.437H62.4515Z" fill="white"/>
<path d="M51.6094 62.7478V63.5888C51.6094 64.0192 51.972 64.2779 52.5763 64.2779H59.2811V63.4369H52.5763C51.972 63.4369 51.6094 63.1782 51.6094 62.7478Z" fill="white"/>
<path d="M61.4085 63.437H60.377V64.278H61.0101L61.4085 63.437Z" fill="white"/>
<path d="M66.7572 63.437H65.5293L65.9276 64.278H66.7572V63.437Z" fill="white"/>
<path d="M75.8359 57.2356C75.8359 61.1079 73.0161 63.2462 67.7988 63.4247V64.2657C73.0154 64.0872 75.8359 61.9495 75.8359 58.0766V57.2356Z" fill="white"/>
<path d="M71.5524 30.413C72.007 30.5007 72.4349 30.6087 72.8359 30.7372L47.9595 8.16553L29.0703 25.3156V26.1566L47.9595 9.00654L71.5524 30.413Z" fill="white"/>
<path d="M67.8004 36.3922C67.8004 35.2727 67.0147 34.6694 65.3837 34.6694H59.4453V35.5105H59.4611H60.3814H65.3837C67.0147 35.5105 67.8004 36.1131 67.8004 37.2332V36.3922Z" fill="white"/>
<path d="M59.4453 49.0532V49.8942H65.3837C67.0147 49.8942 67.8004 50.4969 67.8004 51.617V50.776C67.8004 49.6565 67.0147 49.0532 65.3837 49.0532H59.4453Z" fill="white"/>
<path d="M75.8374 36.028C75.8374 35.9508 75.836 35.8743 75.8333 35.7989C75.8326 35.7687 75.8312 35.7384 75.8298 35.7081C75.8278 35.6655 75.8257 35.6236 75.823 35.5816C75.8168 35.4852 75.8099 35.3901 75.8003 35.2963C75.8003 35.2951 75.8003 35.2938 75.8003 35.2926L75.5469 35.0623C75.7385 35.66 75.8374 36.3182 75.8374 37.037V36.028Z" fill="white"/>
<path d="M75.8194 49.8789C75.818 49.8702 75.8173 49.861 75.8167 49.8523C75.8112 49.8103 75.8043 49.7683 75.796 49.727C75.794 49.7159 75.7912 49.7047 75.7892 49.6942C75.7823 49.6621 75.7755 49.63 75.7672 49.5985C75.7645 49.5862 75.761 49.5744 75.7576 49.5621C75.7466 49.522 75.7349 49.4824 75.7226 49.4429C75.7198 49.4343 75.7164 49.4256 75.7136 49.417C75.7027 49.3855 75.6917 49.354 75.6793 49.3231C75.6738 49.3095 75.6683 49.2953 75.6628 49.2818C75.6505 49.2521 75.6381 49.2231 75.6244 49.1941C75.6196 49.1842 75.6154 49.1737 75.6106 49.1638C75.5935 49.128 75.5756 49.0928 75.5564 49.0582C75.5481 49.0434 75.5399 49.028 75.5316 49.0131C75.5186 48.9903 75.5056 48.9681 75.4918 48.9452C75.4829 48.9298 75.4733 48.915 75.4643 48.8995C75.4437 48.8674 75.4231 48.8353 75.4012 48.8038C75.3895 48.7872 75.3778 48.7711 75.3661 48.755C75.3531 48.7365 75.3394 48.7186 75.3256 48.7007C75.3119 48.6828 75.2982 48.6655 75.2844 48.6482C75.2707 48.6315 75.2569 48.6149 75.2432 48.5988C75.2171 48.5679 75.1903 48.5377 75.1629 48.5074C75.1505 48.4945 75.1388 48.4809 75.1265 48.4679C75.1079 48.4488 75.0894 48.429 75.0701 48.4099C75.0592 48.3988 75.0482 48.3883 75.0372 48.3771C74.9699 48.3111 74.8985 48.2468 74.8236 48.1851C74.8154 48.1783 74.8064 48.1709 74.7982 48.1641C74.7165 48.0974 74.6306 48.0338 74.5407 47.9727C74.5372 47.9702 74.5331 47.9677 74.5297 47.9653C74.4988 47.9443 74.4672 47.9233 74.4349 47.9029C74.4342 47.9023 74.4335 47.9017 74.4328 47.9017C74.3339 47.8387 74.2309 47.7788 74.1231 47.722C74.1217 47.7214 74.1204 47.7208 74.119 47.7195C74.0112 47.6627 73.8999 47.609 73.7845 47.5583C73.266 47.785 72.6727 47.9437 72.0312 48.0202V48.1067C74.2062 48.3648 75.8379 49.5707 75.8379 51.1645V50.1549C75.8379 50.1104 75.8359 50.0666 75.8338 50.0227C75.8331 50.0104 75.8324 49.9987 75.8311 49.9863C75.827 49.9493 75.8235 49.9134 75.8194 49.8789Z" fill="white"/>
<path d="M70.0365 30.0599C69.9342 30.042 69.8298 30.0254 69.7241 30.0099C69.698 30.0062 69.6712 30.0025 69.6444 29.9982C69.5634 29.9865 69.4816 29.9753 69.3992 29.9648C69.3683 29.9611 69.3374 29.9568 69.3058 29.9531C69.2213 29.9426 69.1362 29.9334 69.0503 29.9241C69.0242 29.9216 68.9982 29.9185 68.9721 29.9161C68.7482 29.8938 68.5195 29.8759 68.2853 29.8617C68.251 29.8599 68.2166 29.858 68.1816 29.8562C68.0985 29.8518 68.0147 29.8475 67.9303 29.8444C67.8904 29.8426 67.8499 29.8413 67.8094 29.8401C67.7256 29.837 67.6404 29.8352 67.5553 29.8327C67.5182 29.8321 67.4811 29.8309 67.4433 29.8302C67.3218 29.8284 67.1995 29.8271 67.0752 29.8271H52.5744C51.97 29.8271 51.6074 30.0426 51.6074 30.5163V31.5259C51.6074 31.0522 51.97 30.8367 52.5744 30.8367H67.0766C68.8182 30.8367 70.314 31.0399 71.5529 31.4376L70.0365 30.0599Z" fill="white"/>
<path d="M88.8573 37.1314L47.9595 0L29.0703 17.1501V18.1597L47.9595 1.00959L86.8183 36.2904H78.9364L75.5459 33.2122C75.6523 33.5438 75.7285 33.8945 75.7773 34.2631L78.9364 37.1314H87.7454H88.8573Z" fill="white"/>
<path d="M67.8004 57.8807V56.8711C67.8004 58.0338 66.9543 58.5939 65.3837 58.5939H59.4453V59.6035H65.3837C66.955 59.6029 67.8004 59.0434 67.8004 57.8807Z" fill="white"/>
<path d="M67.8004 42.5305C67.8004 43.6074 66.9543 44.2101 65.3837 44.2101H60.4789C60.2158 44.4497 60.0256 44.6226 59.9501 44.6899C59.7846 44.8375 59.6156 44.9875 59.4453 45.1394V45.2191H65.3837C66.9543 45.2191 67.8004 44.6164 67.8004 43.5395V42.5305Z" fill="white"/>
<path d="M36.6929 44.2102H27.6387V45.2198H36.6929V44.2102Z" fill="#1180C3"/>
<path d="M9.10079 36.2902L20.0827 26.3197V25.3101L7.0625 37.1312H8.17436L9.10079 36.2902Z" fill="#1180C3"/>
<path d="M43.225 29.8264H37.6623C37.0579 29.8264 36.6953 30.0845 36.6953 30.5155V31.5251C36.6953 31.0947 37.0579 30.836 37.6623 30.836H43.225C43.9502 30.836 44.2524 31.0941 44.2524 31.5251V30.5155C44.2517 30.0851 43.9495 29.8264 43.225 29.8264Z" fill="#1180C3"/>
<path d="M27.6404 14.2689V13.2593H21.1842H20.084V14.2689H21.1842H27.6404Z" fill="#1180C3"/>
<path d="M42.9856 20.0688C42.9849 20.0805 42.9835 20.0922 42.9829 20.1046C42.9815 20.1287 42.9801 20.1528 42.9787 20.1768C42.9767 20.2293 42.9746 20.2818 42.9746 20.3349H43.0131C43.0364 20.175 43.0721 20.0188 43.1175 19.8662C43.5954 18.246 45.2361 17.0511 47.1886 17.0511V16.5466C44.96 16.546 43.1374 18.1008 42.9856 20.0688Z" fill="#1180C3"/>
<path d="M52.8035 19.8662C52.8488 20.0188 52.8839 20.1756 52.9079 20.3349H52.9464C52.9464 20.2818 52.9443 20.2293 52.9422 20.1768C52.9409 20.1528 52.9402 20.1287 52.9381 20.1052C52.9374 20.0929 52.9361 20.0805 52.9347 20.0688C52.7822 18.1008 50.9596 16.5466 48.7324 16.5466V17.0511C50.6849 17.0505 52.3255 18.2453 52.8035 19.8662Z" fill="#1180C3"/>
<path d="M52.9464 21.7249H48.7324V22.2293H52.9464V21.7249Z" fill="#1180C3"/>
<path d="M47.1866 21.7249H42.9727V22.2293H47.1866V21.7249Z" fill="#1180C3"/>
</svg>
